<svg width="1883" height="853" viewBox="0 0 1883 853" fill="none" xmlns="http://www.w3.org/2000/svg">
<g opacity="0.08">
<path d="M287.44 768.827C278.76 732.228 251.286 658.192 191.144 616.684C131.001 575.177 82.5582 580.298 74.7571 590.445C66.956 600.591 77.9613 669.987 137.992 713.663C203.477 761.299 287.44 768.827 287.44 768.827Z" stroke="#7D869D" stroke-width="10" stroke-miterlimit="10" stroke-linecap="round"/>
<path d="M276.658 760.563C243.203 727.24 34.3931 554.133 7.76823 539.869" stroke="#7D869D" stroke-width="10" stroke-miterlimit="10" stroke-linecap="round"/>
<path d="M263.361 718.949L233.213 721.703L233.307 753.544" stroke="#7D869D" stroke-width="10" stroke-miterlimit="10" stroke-linecap="round"/>
<path d="M251.254 688.01L200.902 692.915L201.874 744.699" stroke="#7D869D" stroke-width="10" stroke-miterlimit="10" stroke-linecap="round"/>
<path d="M225.842 654.823L168.831 667.258L167.028 723.778" stroke="#7D869D" stroke-width="10" stroke-miterlimit="10" stroke-linecap="round"/>
<path d="M198.584 625.261L139.895 639.549L135.128 708.369" stroke="#7D869D" stroke-width="10" stroke-miterlimit="10" stroke-linecap="round"/>
<path d="M166.025 605.565L110.451 616.98L104.834 676.106" stroke="#7D869D" stroke-width="10" stroke-miterlimit="10" stroke-linecap="round"/>
<path d="M115.189 587.616L85.348 597.743L79.797 626.73" stroke="#7D869D" stroke-width="10" stroke-miterlimit="10" stroke-linecap="round"/>
</g>
<g opacity="0.08">
<path d="M1798.82 795.056C1804.86 768.086 1804.74 711.124 1762.31 680.341C1799.7 693.162 1817.71 677.885 1817.71 677.885C1817.71 677.885 1768.74 656.532 1749.96 625.487C1764.39 617.681 1785.84 623.118 1795.06 633.219C1788.5 566.878 1681.93 549.434 1651.28 571.343C1620.62 593.251 1598.24 657.383 1620.15 693.177C1642.05 728.972 1638.8 749.842 1638.8 749.842C1638.8 749.842 1657.19 737.723 1654.39 703.809C1660.1 746.018 1684.64 766.451 1697.05 768.488C1683.56 744.167 1692.31 716.993 1693.34 718.998C1728.88 788.373 1798.82 795.056 1798.82 795.056Z" stroke="#7D869D" stroke-width="10" stroke-miterlimit="10" stroke-linecap="round"/>
<path d="M1732.65 699.897C1721.13 678.549 1656.39 573.935 1624.64 536.12" stroke="#7D869D" stroke-width="10" stroke-miterlimit="10" stroke-linecap="round"/>
<path d="M1703.93 651.869C1715.34 657.966 1729.89 660.856 1738.17 660.506" stroke="#7D869D" stroke-width="10" stroke-miterlimit="10" stroke-linecap="round"/>
<path d="M1701.22 647.759C1702.24 650.497 1692.76 674.259 1699.02 686.309" stroke="#7D869D" stroke-width="10" stroke-miterlimit="10" stroke-linecap="round"/>
<path d="M1710.08 597.283C1698.86 594.463 1682.91 594.759 1671.82 602.073C1666.88 605.327 1657.94 618.882 1657.29 632.081" stroke="#7D869D" stroke-width="10" stroke-miterlimit="10" stroke-linecap="round"/>
</g>
<g opacity="0.08">
<path d="M74.1174 293.205C91.2336 298.621 128.103 301.725 150.396 275.984C140.009 299.467 148.89 311.974 148.89 311.974C148.89 311.974 165.445 281.474 186.585 271.059C190.831 280.83 186.113 294.413 179.062 299.811C222.361 299.272 239.604 231.281 227.138 210.219C214.672 189.157 174.42 171.091 150.031 183.267C125.643 195.442 112.318 192.171 112.318 192.171C112.318 192.171 119.134 204.748 141.237 204.834C113.603 206.172 99.0082 220.912 96.9964 228.827C113.49 221.456 130.587 228.639 129.232 229.194C82.3495 248.317 74.1174 293.205 74.1174 293.205Z" stroke="#7D869D" stroke-width="10" stroke-miterlimit="10" stroke-linecap="round"/>
<path d="M139.397 255.698C153.857 249.432 225.175 213.38 251.422 194.946" stroke="#7D869D" stroke-width="10" stroke-miterlimit="10" stroke-linecap="round"/>
<path d="M172.083 239.795C167.499 246.84 164.816 256.091 164.58 261.468" stroke="#7D869D" stroke-width="10" stroke-miterlimit="10" stroke-linecap="round"/>
<path d="M174.893 238.269C173.064 238.78 158.216 231.317 150.068 234.692" stroke="#7D869D" stroke-width="10" stroke-miterlimit="10" stroke-linecap="round"/>
<path d="M207.064 246.827C209.516 239.723 210.216 229.384 206.102 221.795C204.272 218.419 195.999 211.878 187.494 210.72" stroke="#7D869D" stroke-width="10" stroke-miterlimit="10" stroke-linecap="round"/>
</g>
<g opacity="0.08">
<path d="M1802.17 33.7895C1772.6 61.3165 1747.32 91.5606 1703.64 116.974C1659.97 142.388 1620.9 195.611 1641.44 285.991C1734.98 263.168 1755.13 188.43 1760.31 176.26C1765.49 164.091 1802.17 33.7895 1802.17 33.7895Z" stroke="#505666" stroke-width="10" stroke-miterlimit="10" stroke-linecap="round"/>
<path d="M1801.38 34.5247C1778.2 69.5536 1612.33 327.616 1601.65 355.156" stroke="#505666" stroke-width="10" stroke-miterlimit="10" stroke-linecap="round"/>
</g>
</svg>
