<svg width="327" height="215" fill="none" xmlns="http://www.w3.org/2000/svg"><path fill-rule="evenodd" clip-rule="evenodd" d="M302 .178c13.807 0 25 11.193 25 25v38h-.002c-24.853 0-45 21.042-45 46.999 0 25.958 20.147 47 45 47H327v32.001c0 13.807-11.193 25-25 25H25c-13.807 0-25-11.193-25-25v-164c0-13.807 11.193-25 25-25h277z" fill="#fff"/><path fill-rule="evenodd" clip-rule="evenodd" d="M302 .178c13.807 0 25 11.193 25 25v38h-.002c-24.853 0-45 21.042-45 46.999 0 25.958 20.147 47 45 47H327v32.001c0 13.807-11.193 25-25 25H25c-13.807 0-25-11.193-25-25v-164c0-13.807 11.193-25 25-25h277z" fill="#fff"/></svg>