<svg width="1920" height="715" fill="none" xmlns="http://www.w3.org/2000/svg"><path opacity=".08" d="M1565.64 149.555l53.5 85.853-7.08 4.408-1.28.793.8 1.274 12.9 20.717.8 1.273 1.27-.792 211.41-131.496 1.27-.793-.79-1.275-12.94-20.744-.79-1.272-1.27.792-7.82 4.863c-3.14-4.061-6.63-6.744-10.38-8.303-4.66-1.94-9.57-2.082-14.44-1.171-9.64 1.806-19.44 7.828-27.41 12.784v.001c-29.35 18.261-57.74 14.202-78.97 5.445-21.27-8.773-35.24-22.221-35.47-22.445l-1.38-1.345-.84-.819-1 .62-79.61 49.565-1.28.793.8 1.274zm80.14-42.351c2.48 2.159 6.91 5.775 12.89 9.764l-3.63 15.656-.34 1.46 1.46.34 4.77 1.113 1.46.342.34-1.463 3.02-13.024a136.19 136.19 0 005.4 2.987l-3.48 14.996-.34 1.459 1.46.341 4.77 1.113 1.47.341.34-1.463 3.07-13.258c2.33 1.037 4.75 2.028 7.25 2.951l-3.21 13.835-.33 1.46 1.46.34 4.77 1.113 1.46.342.34-1.463 3.05-13.148c3.45.999 7.03 1.848 10.73 2.496l-3.37 14.512-.34 1.46 1.46.34 4.77 1.114 1.46.341.34-1.463 3.54-15.257c14.68 1.323 30.81-.777 47.4-9.043l9.17 14.709-142.55 88.692-50.1-80.478 70.04-43.557zm163.12 10.134l-33.81 21.038-8.94-14.344c.47-.279.93-.562 1.4-.851 9.64-5.978 17.88-10.987 25.12-12.313 3.55-.649 6.77-.391 9.76 1.043 2.21 1.058 4.37 2.796 6.47 5.427zm13.37.97l6.15 9.92-200.57 124.756-6.17-9.896 200.59-124.78zM304.549 361.212l1.967 2.406.66-3.037 2.056-9.462.002-.006c5.551-24.774-4.338-48.173-31.115-75.237a98.089 98.089 0 0011.06-60.163l-.001-.008-.001-.008c-4.837-32.956-27.066-60.066-58.852-77.305-31.787-17.238-73.214-24.665-116.736-18.278-43.523 6.388-81.098 25.445-106.62 51.12-25.523 25.675-39.058 58.051-34.227 90.974 4.832 32.923 27.1 60.044 58.923 77.303 31.824 17.259 73.29 24.716 116.813 18.329 17.513-2.571 30.468-5.478 42.032-10.053 11.458-4.533 21.481-10.676 33.187-19.642 13.967-.738 29.42 1.747 43.004 6.367 13.77 4.683 25.408 11.488 31.671 19.142l.001.001 6.176 7.557zM219.4 315.974l-.351.051-.291.204-1.149.803-.03.021-.03.023c-11.373 8.824-20.658 14.648-31.276 18.895-10.633 4.253-22.679 6.955-39.619 9.441-40.366 5.924-78.672-.714-107.928-16.181-29.258-15.467-49.37-39.697-53.666-68.972-4.296-29.274 8.022-58.264 31.61-81.488 23.587-23.222 58.37-40.586 98.703-46.506 40.33-5.918 78.624.756 107.875 16.241 29.249 15.485 49.359 39.712 53.648 68.913a86.61 86.61 0 01-11.87 56.294l-.005.008-.004.009-1.917 3.243-.608 1.028.866.822 2.687 2.555.005.005c21.426 20.829 31.556 38.242 32.153 55-9.683-7.319-22.237-12.763-35.322-16.254-14.234-3.798-29.208-5.315-41.996-4.369l-.054.004-.053.008-1.378.202zm-72.919-150.169l-.614-1.371-1.37.616-117.274 52.685-1.367.614.613 1.367 3.879 8.661.614 1.37 1.37-.615 117.273-52.685 1.367-.614-.612-1.368-3.879-8.66zm-54.036 71.534l-.65-1.353-1.353.651-46.745 22.522-1.35.65.649 1.351 4.108 8.553.65 1.354 1.353-.652 46.745-22.521 1.35-.65-.649-1.351-4.108-8.554zm118.312-64.235l-.729-1.313-1.312.731-91.499 51.013-1.308.729.727 1.309 4.609 8.294.729 1.313 1.312-.731 91.499-51.013 1.308-.729-.727-1.309-4.609-8.294zm-35.195 66.784l-.773-1.288-1.287.775-93.847 56.553-1.282.773.77 1.284 4.885 8.134.773 1.288 1.287-.775 93.847-56.553 1.283-.773-.771-1.284-4.885-8.134zm15.926 32.918l-.667-1.345-1.345.669-41.685 20.746-1.341.667.665 1.342 4.214 8.495.668 1.345 1.344-.669 41.686-20.746 1.341-.667-.666-1.342-4.214-8.495z" fill="#7D869D" stroke="#7D869D" stroke-width="3"/><g opacity=".08" stroke="#505666" stroke-width="10" stroke-miterlimit="10" stroke-linecap="round"><path d="M1885.37 431.655c-25.69-4.285-79.27-1.231-106.04 40.218 10.14-35.788-5.16-51.916-5.16-51.916s-17.57 47.107-45.8 66.344c-8.09-13.148-4.08-33.586 4.95-42.762-62.07 9.585-72.99 110.593-50.8 138.258 22.19 27.666 83.67 45.381 116.22 22.958 32.54-22.423 52.34-20.443 52.34-20.443s-12.35-16.65-44.11-12.274c39.41-7.543 57.37-31.65 58.65-43.41-22.19 13.928-48.2 7.106-46.37 6.034 63.43-36.963 66.12-103.007 66.12-103.007zm-86.11 67.062c-19.49 11.928-114.55 78.134-148.49 109.906m104.79-80.447c5.14-11.036 7.11-24.848 6.36-32.607m-10.09 35.369c2.53-1.105 25.37 6.575 36.39.077"/><path d="M1703.9 525.2c-2.08 10.687-.98 25.658 6.48 35.705 3.31 4.469 16.53 12.167 28.98 12.096"/></g></svg>