<svg width="315" preserveAspectRatio="none" height="93" viewBox="0 0 315 93" fill="none" xmlns="http://www.w3.org/2000/svg">
<path d="M5.63142 9.09614C6.62432 3.70894 11.3836 0 16.8615 0H299.177C305.023 0 309.995 4.20921 310.69 10.0138C311.74 18.7752 313 32.4424 313 47.5814C313 62.6555 311.439 75.5407 310.13 83.6946C309.249 89.1825 304.449 93 298.891 93H17.1322C11.9651 93 7.40328 89.6882 6.23714 84.6545C4.36487 76.5727 2 63.2612 2 47.5814C2 31.903 4.02668 17.8031 5.63142 9.09614Z" fill="#D05700"/>
<path d="M3.85041 7.18751C4.77246 2.88559 8.63117 0 13.0308 0H303.078C307.833 0 311.902 3.34753 312.556 8.05756C313.638 15.8615 315 28.8009 315 44.5C315 60.1991 313.638 73.1385 312.556 80.9424C311.902 85.6525 307.833 89 303.078 89H13.0308C8.63116 89 4.77246 86.1144 3.85041 81.8125C2.20188 74.1211 0 60.7976 0 44.5C0 28.2024 2.20188 14.8789 3.85041 7.18751Z" fill="url(#paint0_linear)"/>
<defs>
<linearGradient id="paint0_linear" x1="130.313" y1="0" x2="130.313" y2="89" gradientUnits="userSpaceOnUse">
<stop stop-color="#FEB561"/>
<stop offset="1" stop-color="#F8792A"/>
</linearGradient>
</defs>
</svg>
