<svg width="315" preserveAspectRatio="none" height="93" fill="none" xmlns="http://www.w3.org/2000/svg"><path d="M5.631 9.096C6.624 3.71 11.384 0 16.861 0h282.316c5.846 0 10.818 4.21 11.513 10.014 1.05 8.761 2.31 22.428 2.31 37.567 0 15.075-1.561 27.96-2.87 36.114-.881 5.488-5.681 9.305-11.239 9.305H17.132c-5.167 0-9.729-3.312-10.895-8.346C4.365 76.573 2 63.261 2 47.581 2 31.903 4.027 17.803 5.631 9.096z" fill="#D05700"/><path d="M3.85 7.188C4.772 2.886 8.631 0 13.03 0h290.048c4.755 0 8.824 3.348 9.478 8.058C313.638 15.86 315 28.8 315 44.5s-1.362 28.638-2.444 36.442c-.654 4.71-4.723 8.058-9.478 8.058H13.031c-4.4 0-8.259-2.886-9.18-7.188C2.2 74.123 0 60.799 0 44.5S2.202 14.879 3.85 7.188z" fill="url(#paint0_linear)"/><defs><linearGradient id="paint0_linear" x1="130.313" y1="0" x2="130.313" y2="89" gradientUnits="userSpaceOnUse"><stop stop-color="#FEB561"/><stop offset="1" stop-color="#F8792A"/></linearGradient></defs></svg>