<svg width="27" height="27" fill="none" xmlns="http://www.w3.org/2000/svg"><g clip-path="url(#clip0)" fill="#fff"><path d="M26.83 3.927a.78.78 0 00-.609-.292H5.492l-.58-2.512a.779.779 0 00-.758-.604H.779a.779.779 0 000 1.558h2.755l3.935 17.05a.779.779 0 00.759.604h15.605a.779.779 0 000-1.558H8.847l-.599-2.596h15.637c.364 0 .68-.252.76-.608L26.98 4.585a.779.779 0 00-.152-.658zM11.422 20.77a2.859 2.859 0 00-2.856 2.855 2.859 2.859 0 002.856 2.856 2.859 2.859 0 002.856-2.856 2.859 2.859 0 00-2.856-2.856zm9.348 0a2.859 2.859 0 00-2.856 2.855 2.859 2.859 0 002.856 2.856 2.859 2.859 0 002.856-2.856 2.859 2.859 0 00-2.856-2.856z"/></g><defs><clipPath id="clip0"><path fill="#fff" d="M0 0h27v27H0z"/></clipPath></defs></svg>