<svg width="11" height="12" fill="none" xmlns="http://www.w3.org/2000/svg"><g opacity=".4"><path d="M6.508 5.509l4.283-4.284A.712.712 0 109.783.218L5.5 4.5 1.217.218A.712.712 0 10.209 1.225L4.492 5.51.21 9.792A.712.712 0 101.217 10.8L5.5 6.516 9.783 10.8a.71.71 0 001.008 0 .712.712 0 000-1.008L6.508 5.509z" fill="#000"/><path d="M6.508 5.509l4.283-4.284A.712.712 0 109.783.218L5.5 4.5 1.217.218A.712.712 0 10.209 1.225L4.492 5.51.21 9.792A.712.712 0 101.217 10.8L5.5 6.516 9.783 10.8a.71.71 0 001.008 0 .712.712 0 000-1.008L6.508 5.509z" fill="#505666"/></g></svg>