<svg width="11" height="12" viewBox="0 0 11 12" fill="none" xmlns="http://www.w3.org/2000/svg">
<g opacity="0.4">
<path d="M6.50777 5.50852L10.791 1.2252C11.0697 0.946592 11.0697 0.496115 10.791 0.217504C10.5123 -0.061108 10.0619 -0.061108 9.78325 0.217504L5.49994 4.50082L1.21676 0.217504C0.938015 -0.061108 0.487668 -0.061108 0.209057 0.217504C-0.0696856 0.496115 -0.0696856 0.946592 0.209057 1.2252L4.49224 5.50852L0.209057 9.79183C-0.0696856 10.0704 -0.0696856 10.5209 0.209057 10.7995C0.347906 10.9385 0.530472 11.0083 0.712907 11.0083C0.895342 11.0083 1.07778 10.9385 1.21676 10.7995L5.49994 6.51622L9.78325 10.7995C9.92223 10.9385 10.1047 11.0083 10.2871 11.0083C10.4695 11.0083 10.652 10.9385 10.791 10.7995C11.0697 10.5209 11.0697 10.0704 10.791 9.79183L6.50777 5.50852Z" fill="black"/>
<path d="M6.50777 5.50852L10.791 1.2252C11.0697 0.946592 11.0697 0.496115 10.791 0.217504C10.5123 -0.061108 10.0619 -0.061108 9.78325 0.217504L5.49994 4.50082L1.21676 0.217504C0.938015 -0.061108 0.487668 -0.061108 0.209057 0.217504C-0.0696856 0.496115 -0.0696856 0.946592 0.209057 1.2252L4.49224 5.50852L0.209057 9.79183C-0.0696856 10.0704 -0.0696856 10.5209 0.209057 10.7995C0.347906 10.9385 0.530472 11.0083 0.712907 11.0083C0.895342 11.0083 1.07778 10.9385 1.21676 10.7995L5.49994 6.51622L9.78325 10.7995C9.92223 10.9385 10.1047 11.0083 10.2871 11.0083C10.4695 11.0083 10.652 10.9385 10.791 10.7995C11.0697 10.5209 11.0697 10.0704 10.791 9.79183L6.50777 5.50852Z" fill="#505666"/>
</g>
</svg>
