<svg width="26" height="26" fill="none" xmlns="http://www.w3.org/2000/svg"><path d="M20.977 7.256H5.019a.874.874 0 00-.874.874v13.66A4.215 4.215 0 008.355 26h9.286a4.215 4.215 0 004.21-4.21V8.13a.874.874 0 00-.874-.874zM10.896 20.733a1.074 1.074 0 01-2.148 0v-8.211a1.074 1.074 0 012.148 0v8.211zm6.352 0a1.074 1.074 0 01-2.148 0v-8.211a1.074 1.074 0 012.148 0v8.211zM20.101 1.36h-3.809v-.33c0-.568-.462-1.03-1.03-1.03h-4.528c-.568 0-1.03.462-1.03 1.03v.33H5.895A2.648 2.648 0 003.25 4.005v1.697a.55.55 0 00.55.549h18.397a.55.55 0 00.55-.55V4.006A2.648 2.648 0 0020.1 1.36z" fill="#A7AAB2"/></svg>