<svg width="475" height="2328" viewBox="0 0 475 2328" fill="none" xmlns="http://www.w3.org/2000/svg">
<g clip-path="url(#clip0)">
<g opacity="0.08">
<path fill-rule="evenodd" clip-rule="evenodd" d="M389.787 2264.17L389.764 2264.17C367.295 2269.78 344.445 2273.73 321.398 2275.97C301.578 2278.45 281.531 2280.95 263.776 2285.3C246.021 2289.64 231.034 2295.81 215.315 2310.13C214.508 2310.86 213.275 2312.04 213.275 2312.04L212.813 2309.28L211.683 2302.52C205.506 2265.61 199.514 2244.19 188.121 2224.46C176.695 2204.68 159.801 2186.52 131.559 2156.2L131.558 2156.2L129.129 2153.58C107.972 2130.84 98.5725 2107.57 101.53 2084.44L101.529 2084.43C103.849 2066.53 113.379 2051.38 123.993 2039.65C134.611 2027.91 146.402 2019.48 153.43 2015.02L153.436 2015.02L153.443 2015.01C170.304 2004.54 208.681 1990.36 246.349 2006.17C304.499 2024.34 319.13 2118.12 319.13 2118.12C325.303 2116.29 332.15 2114.48 339.398 2112.97C366.122 2107.35 398.686 2105.37 422.547 2119.93C442.155 2131.71 452.879 2153.06 454.496 2182.42C455.861 2207.02 449.439 2224.77 437.673 2237.75C425.948 2250.67 409.067 2258.69 389.81 2264.16L389.787 2264.17ZM288.082 2129.41L289.458 2128.8L309.07 2120.71L308.764 2119.25C297.148 2063.89 274.679 2029.31 242.374 2015.86L242.371 2015.86C208.712 2001.76 173.119 2014.97 159.031 2023.89C152.589 2028 141.775 2035.68 132.073 2046.28C122.363 2056.9 113.863 2070.33 111.853 2085.93C109.357 2105.61 117.672 2125.99 136.808 2146.66L139.239 2149.29L139.24 2149.29L139.308 2149.36C166.543 2178.62 183.855 2197.22 195.871 2217.34C207.663 2237.09 214.328 2258.26 220.449 2292.26C232.199 2283.95 246.978 2278.63 263.449 2274.81C280.687 2270.8 299.916 2268.4 319.642 2265.94L319.827 2265.92L320.207 2265.87C353.493 2261.72 385.471 2257.72 408.682 2246.32C420.245 2240.65 429.542 2233.18 435.732 2223.01C441.916 2212.85 445.076 2199.85 444.133 2182.99C442.656 2156.82 433.46 2138.73 417.154 2128.8C395.875 2115.89 365.389 2118.01 339.775 2123.61C315.041 2129.02 295.305 2137.57 293.776 2138.23L293.759 2138.24C293.722 2138.26 293.697 2138.26 293.686 2138.27L292.336 2138.84L291.733 2137.5L288.701 2130.78L288.082 2129.41Z" fill="#7D869D"/>
<path d="M293.759 2138.24C293.722 2138.26 293.697 2138.26 293.686 2138.27L292.336 2138.84L291.733 2137.5L288.701 2130.78L288.082 2129.41L289.458 2128.8L309.07 2120.71L308.764 2119.25C297.148 2063.89 274.679 2029.31 242.374 2015.86L242.371 2015.86C208.712 2001.76 173.119 2014.97 159.031 2023.89C152.589 2028 141.775 2035.68 132.073 2046.28C122.363 2056.9 113.863 2070.33 111.853 2085.93C109.357 2105.61 117.672 2125.99 136.808 2146.66L139.239 2149.29L139.24 2149.29L139.308 2149.36C166.543 2178.62 183.855 2197.22 195.871 2217.34C207.663 2237.09 214.328 2258.26 220.449 2292.26C232.199 2283.95 246.978 2278.63 263.449 2274.81C280.687 2270.8 299.916 2268.4 319.642 2265.94M293.759 2138.24L293.776 2138.23M293.759 2138.24C293.764 2138.23 293.77 2138.23 293.776 2138.23M319.827 2265.92L320.207 2265.87C353.493 2261.72 385.471 2257.72 408.682 2246.32C420.245 2240.65 429.542 2233.18 435.732 2223.01C441.916 2212.85 445.076 2199.85 444.133 2182.99C442.656 2156.82 433.46 2138.73 417.154 2128.8C395.875 2115.89 365.389 2118.01 339.775 2123.61C315.041 2129.02 295.305 2137.57 293.776 2138.23M319.827 2265.92L319.642 2265.94M319.827 2265.92C319.766 2265.93 319.704 2265.93 319.642 2265.94M389.787 2264.17L389.764 2264.17C367.295 2269.78 344.445 2273.73 321.398 2275.97C301.578 2278.45 281.531 2280.95 263.776 2285.3C246.021 2289.64 231.034 2295.81 215.315 2310.13C214.508 2310.86 213.275 2312.04 213.275 2312.04L212.813 2309.28L211.683 2302.52C205.506 2265.61 199.514 2244.19 188.121 2224.46C176.695 2204.68 159.801 2186.52 131.559 2156.2L131.558 2156.2L129.129 2153.58C107.972 2130.84 98.5725 2107.57 101.53 2084.44L101.529 2084.43C103.849 2066.53 113.379 2051.38 123.993 2039.65C134.611 2027.91 146.402 2019.48 153.43 2015.02L153.436 2015.02L153.443 2015.01C170.304 2004.54 208.681 1990.36 246.349 2006.17C304.499 2024.34 319.13 2118.12 319.13 2118.12C325.303 2116.29 332.15 2114.48 339.398 2112.97C366.122 2107.35 398.686 2105.37 422.547 2119.93C442.155 2131.71 452.879 2153.06 454.496 2182.42C455.861 2207.02 449.439 2224.77 437.673 2237.75C425.948 2250.67 409.067 2258.69 389.81 2264.16L389.787 2264.17Z" stroke="#7D869D" stroke-width="3"/>
</g>
<path opacity="0.08" d="M97.6662 1262.64L66.5839 1388.43L55.8397 1385.77L54.3828 1385.4L54.0226 1386.86L46.5433 1417.12L46.1836 1418.57L47.6384 1418.93L356.159 1495.46L357.616 1495.82L357.976 1494.36L365.455 1464.06L365.814 1462.6L364.36 1462.24L352.586 1459.32C353.581 1452.73 352.943 1447.1 351.03 1442.27C348.694 1436.37 344.515 1431.8 339.398 1428.19C329.235 1421.02 315.091 1417.43 303.442 1414.54H303.441C260.431 1403.88 238.803 1374.15 227.891 1346.84C216.965 1319.49 216.846 1294.67 216.846 1294.24V1291.78V1290.6L215.707 1290.32L99.483 1261.54L98.0262 1261.18L97.6662 1262.64ZM207.751 1297.89C207.974 1302.06 208.598 1309.56 210.346 1318.92L192.535 1329.67L191.253 1330.45L192.025 1331.73L195.253 1337.09L196.027 1338.38L197.312 1337.6L212.408 1328.49C213.075 1331.21 213.835 1334.03 214.701 1336.92L197.6 1347.25L196.317 1348.02L197.09 1349.31L200.317 1354.67L201.091 1355.95L202.378 1355.18L217.684 1345.93C218.889 1349.24 220.238 1352.6 221.749 1355.98L205.912 1365.54L204.63 1366.32L205.404 1367.6L208.63 1372.96L209.406 1374.25L210.69 1373.47L225.817 1364.34C228.085 1368.63 230.637 1372.9 233.508 1377.09L216.85 1387.15L215.567 1387.92L216.34 1389.21L219.567 1394.57L220.341 1395.85L221.628 1395.08L239.055 1384.55C250.947 1399.31 267.339 1412.33 289.915 1420.17L284.412 1442.42L75.5565 1390.65L104.843 1272.36L207.751 1297.89ZM343.594 1457.09L293.39 1444.65L298.771 1422.89C299.571 1423.1 300.38 1423.31 301.195 1423.52C315.218 1427.01 327.231 1430.12 334.963 1435.62C338.772 1438.34 341.466 1441.58 342.847 1445.69C343.902 1448.83 344.221 1452.57 343.594 1457.09ZM354.751 1469.37L350.948 1484.64L57.441 1411.85L61.2014 1396.58L354.751 1469.37Z" fill="#7D869D" stroke="#7D869D" stroke-width="3"/>
<path opacity="0.08" d="M301.113 339.674L301.932 342.673L303.77 340.166L309.495 332.357C309.496 332.356 309.498 332.354 309.499 332.352C324.642 311.975 325.121 286.576 311.659 250.964C328.252 238.27 340.37 220.586 346.223 200.493L346.225 200.486L346.227 200.478C355.207 168.402 345.919 134.597 323.886 105.924C301.854 77.2519 267.024 53.6242 224.664 41.766C182.304 29.9076 140.226 32.0428 106.47 45.1241C72.7135 58.2053 47.1851 82.2824 38.2149 114.326C29.2446 146.37 38.562 180.201 60.6205 208.907C82.6792 237.613 117.532 261.285 159.893 273.143C176.938 277.915 189.957 280.525 202.382 281.046C214.693 281.563 226.347 280.026 240.688 276.593C253.748 281.598 266.856 290.15 277.389 299.894C288.065 309.771 295.932 320.719 298.542 330.258C298.543 330.258 298.543 330.259 298.543 330.259L301.113 339.674ZM241.71 263.726L241.368 263.631L241.02 263.698L239.643 263.965L239.607 263.972L239.571 263.981C225.592 267.419 214.742 268.966 203.314 268.529C191.87 268.092 179.766 265.663 163.279 261.047C123.991 250.049 91.6921 228.411 71.2507 202.386C50.8086 176.36 42.2847 146.046 50.261 117.553C58.2372 89.0606 81.2771 67.5827 112.269 55.9549C143.26 44.3276 182.099 42.604 221.354 53.5929C260.607 64.5815 292.88 86.2476 313.309 112.287C333.736 138.326 342.26 168.636 334.307 197.058C328.698 215.99 316.795 232.436 300.577 243.665L300.569 243.671L300.561 243.676L297.491 245.86L296.518 246.552L296.974 247.656L298.391 251.082C298.391 251.084 298.392 251.086 298.393 251.088C309.501 278.829 311.677 298.856 305.409 314.41C299.538 303.787 290.281 293.709 279.746 285.199C268.285 275.943 255.221 268.469 243.153 264.135L243.103 264.116L243.051 264.102L241.71 263.726ZM236.14 96.8824L236.136 95.3807L234.634 95.3861L106.07 95.8433L104.572 95.8486L104.576 97.3469L104.598 106.836L104.602 108.338L106.104 108.333L234.668 107.875L236.166 107.87L236.163 106.372L236.14 96.8824ZM157.689 140.27L157.645 138.769L156.144 138.815L104.28 140.387L102.783 140.432L102.826 141.93L103.102 151.415L103.146 152.916L104.647 152.871L156.511 151.298L158.008 151.253L157.964 149.755L157.689 140.27ZM291.897 129.682L291.764 128.186L290.268 128.321L185.933 137.729L184.442 137.863L184.574 139.355L185.412 148.806L185.545 150.303L187.041 150.168L291.376 140.76L292.868 140.626L292.735 139.134L291.897 129.682ZM232.591 176.39L232.408 174.899L230.917 175.084L122.184 188.599L120.698 188.784L120.881 190.271L122.036 199.688L122.219 201.179L123.71 200.994L232.443 187.478L233.929 187.293L233.747 185.807L232.591 176.39ZM233.758 212.94L233.696 211.439L232.195 211.504L185.676 213.511L184.179 213.575L184.242 215.072L184.639 224.546L184.701 226.047L186.202 225.982L232.721 223.975L234.218 223.911L234.155 222.414L233.758 212.94Z" fill="#7D869D" stroke="#7D869D" stroke-width="3"/>
</g>
<defs>
<clipPath id="clip0">
<rect width="475" height="2328" fill="white"/>
</clipPath>
</defs>
</svg>
