<svg width="505" height="569" fill="none" xmlns="http://www.w3.org/2000/svg"><path d="M0 51.19c0-11.303 7.53-21.15 18.548-23.678C57.038 18.683 150.54 0 252.5 0c101.96 0 195.462 18.683 233.952 27.511C497.47 30.038 505 39.886 505 51.191V544c0 13.807-11.193 25-25 25H25c-13.807 0-25-11.193-25-25V51.19z" fill="#7BAFE4"/><path d="M0 51.19c0-11.303 7.53-21.15 18.548-23.678C57.038 18.683 150.54 0 252.5 0c101.96 0 195.462 18.683 233.952 27.511C497.47 30.038 505 39.886 505 51.191V544c0 13.807-11.193 25-25 25H25c-13.807 0-25-11.193-25-25V51.19z" fill="#fff"/></svg>