<svg width="321" height="750" fill="none" xmlns="http://www.w3.org/2000/svg"><g opacity=".08" stroke="#7D869D" stroke-width="10" stroke-miterlimit="10" stroke-linecap="round"><path d="M294.44 682.827c-8.68-36.599-36.154-110.635-96.296-152.143-60.143-41.507-108.586-36.386-116.387-26.239-7.801 10.146 3.204 79.542 63.235 123.218 65.485 47.636 149.448 55.164 149.448 55.164zm-10.782-8.264c-33.455-33.323-242.265-206.43-268.89-220.694"/><path d="M270.361 632.949l-30.148 2.754.094 31.841m17.947-65.534l-50.352 4.905.972 51.784m23.968-89.876l-57.011 12.435-1.803 56.52m31.556-98.517l-58.689 14.288-4.767 68.82m30.897-102.804l-55.574 11.415-5.617 59.126m10.355-88.49l-29.841 10.127-5.551 28.987"/></g><g opacity=".08" stroke="#7D869D" stroke-width="10" stroke-miterlimit="10" stroke-linecap="round"><path d="M47.117 168.205c17.117 5.416 53.986 8.52 76.279-17.221-10.387 23.483-1.506 35.99-1.506 35.99s16.555-30.5 37.695-40.915c4.246 9.771-.472 23.354-7.523 28.752 43.299-.539 60.542-68.53 48.076-89.592-12.466-21.062-52.718-39.128-77.107-26.952-24.389 12.175-37.713 8.904-37.713 8.904s6.816 12.577 28.919 12.663c-27.634 1.338-42.229 16.078-44.24 23.993 16.493-7.371 33.59-.188 32.235.367-46.883 19.123-55.115 64.011-55.115 64.011zm65.28-37.507c14.46-6.266 85.778-42.318 112.025-60.752m-79.339 44.848c-4.584 7.046-7.267 16.297-7.503 21.674m10.313-23.199c-1.829.511-16.677-6.952-24.825-3.577"/><path d="M180.064 121.827c2.452-7.104 3.152-17.443-.962-25.032-1.83-3.376-10.103-9.917-18.608-11.075"/></g></svg>