<svg width="10" height="15" fill="none" xmlns="http://www.w3.org/2000/svg"><path d="M5.544.23c.012-.012.036-.018.072-.018h.072a.34.34 0 00.108-.018.34.34 0 01.108-.018c.132 0 .252.024.36.072.12.048.246.072.378.072l.09.09a.222.222 0 00.126.036c.084.072.198.102.342.09.144-.012.246.042.306.162a.314.314 0 00.162.09c.072 0 .12.03.144.09.108.024.18.084.216.18.036.096.09.144.162.144a.674.674 0 01.216.126c.072.048.108.12.108.216a.33.33 0 00.18.18c.084.036.132.114.144.234l.108.18c.048.048.108.09.18.126.024.096.048.186.072.27.024.072.06.15.108.234.072.096.102.234.09.414 0 .18.048.312.144.396v.072a.296.296 0 01-.018.09.16.16 0 00-.018.072c0 .096.018.18.054.252.048.072.072.15.072.234a.757.757 0 01-.072.342.57.57 0 00-.072.288c0 .06.006.132.018.216.012.072.018.138.018.198 0 .096-.042.234-.126.414-.084.168-.15.33-.198.486-.024 0-.036.012-.036.036v.054c0 .072-.018.126-.054.162a1.175 1.175 0 01-.126.108 2.846 2.846 0 00-.126.09.195.195 0 00-.054.144.279.279 0 01-.18.216.57.57 0 00-.216.162.885.885 0 01-.306.252c-.12.06-.24.114-.36.162-.12.036-.24.078-.36.126a.678.678 0 00-.27.162h-.09c-.048 0-.12.03-.216.09-.084.06-.126.12-.126.18v.108a.632.632 0 01.018.18.295.295 0 01-.036.162.34.34 0 00-.018.108v.108c.012.048.024.102.036.162a.357.357 0 01.036.162c0 .06-.03.162-.09.306a.438.438 0 01-.324.27c-.264.06-.552.09-.864.09-.3 0-.588.012-.864.036 0-.012-.018-.018-.054-.018a2.631 2.631 0 00-.324-.018l-.342-.036a1.013 1.013 0 01-.288-.072.402.402 0 01-.18-.234c0-.072-.024-.12-.072-.144-.036-.024-.054-.066-.054-.126v-.306a2.32 2.32 0 00.018-.288v-.144a.834.834 0 00-.018-.162.32.32 0 00.036-.144.504.504 0 00-.072-.252.974.974 0 01-.054-.342c0-.096.012-.186.036-.27a.772.772 0 00.036-.198.567.567 0 00-.054-.216.807.807 0 01-.036-.216c0-.096.03-.174.09-.234.06-.06.09-.138.09-.234a.571.571 0 00-.036-.162c.036-.084.084-.138.144-.162.06-.024.12-.042.18-.054.06-.012.114-.024.162-.036a.217.217 0 00.126-.126h.072a.16.16 0 01.072-.018.83.83 0 01.324.054.815.815 0 00.288.054c.192 0 .366-.03.522-.09.156-.072.306-.138.45-.198a.287.287 0 00.234-.198A.655.655 0 016.084 5c.084-.18.126-.42.126-.72 0-.084-.006-.162-.018-.234 0-.072-.006-.144-.018-.216a3.672 3.672 0 01-.432-.432c-.12-.168-.294-.252-.522-.252a.399.399 0 01-.126-.018.222.222 0 00-.126-.036.925.925 0 00-.288.054 1.613 1.613 0 00-.288.144 1.62 1.62 0 00-.234.162.433.433 0 00-.108.108 1.084 1.084 0 01-.234.486 1.16 1.16 0 01-.378.252 1.52 1.52 0 01-.486.108 8.68 8.68 0 01-.576.018h-.414a4.372 4.372 0 00-.396-.018 1.78 1.78 0 00-.252.018 1.312 1.312 0 01-.216.018.774.774 0 01-.432-.144.437.437 0 01-.216-.378.476.476 0 00-.072-.27.557.557 0 01-.054-.252c.108-.06.162-.168.162-.324a.828.828 0 01.108-.378C.69 2.564.762 2.432.81 2.3a.8.8 0 01.306-.36c.06-.18.15-.336.27-.468l.396-.396c.132-.072.264-.126.396-.162a.383.383 0 00.27-.27c.096-.024.216-.072.36-.144.156-.072.276-.108.36-.108h.072A.853.853 0 003.546.32a.972.972 0 01.288-.072h.126a.581.581 0 00.216-.036.639.639 0 01.234-.036c.372 0 .75.018 1.134.054zM5.31 10.688c.096.036.198.06.306.072a.31.31 0 01.252.108c.072.084.144.162.216.234a.7.7 0 00.252.162c.168.168.282.324.342.468.06.132.09.228.09.288a.774.774 0 01-.018.144.67.67 0 00-.018.162c0 .096.006.186.018.27.012.084.018.174.018.27a.725.725 0 01-.054.288.909.909 0 01-.108.216c-.036.06-.078.12-.126.18a.56.56 0 00-.072.198c-.06.168-.234.342-.522.522-.288.18-.642.27-1.062.27-.3 0-.564-.048-.792-.144-.096 0-.162-.042-.198-.126a.222.222 0 00-.162-.162 1.504 1.504 0 01-.396-.342 2.76 2.76 0 00-.306-.378v-.126a.529.529 0 00.018-.126c0-.096-.024-.168-.072-.216v-.486c0-.36.09-.666.27-.918a.414.414 0 00.144-.144c.048-.072.09-.138.126-.198a.837.837 0 01.126-.162.363.363 0 01.234-.072.624.624 0 00.252-.126.522.522 0 01.288-.126.256.256 0 01.144-.036.242.242 0 00.162-.09c.264 0 .48.042.648.126z" fill="#fff"/></svg>