<svg width="11" height="11" fill="none" xmlns="http://www.w3.org/2000/svg"><g clip-path="url(#clip0)"><path d="M6.33 4.67a.732.732 0 010-1.036L8.416 1.55l-1.059-.086a.734.734 0 01-.67-.79.734.734 0 01.789-.67l2.637.214c.358.03.641.314.67.67l.215 2.638a.733.733 0 01-1.46.118l-.085-1.058-2.086 2.086a.732.732 0 01-1.037 0zM3.634 6.33L1.55 8.415l-.086-1.058a.732.732 0 00-1.46.119l.214 2.637c.03.357.314.641.671.67l2.637.215a.732.732 0 00.119-1.46l-1.059-.087L4.67 7.366A.732.732 0 103.634 6.33zm6.693.356a.728.728 0 00-.79.67l-.086 1.059L7.366 6.33A.732.732 0 106.33 7.365l2.086 2.086-1.06.086a.733.733 0 00.12 1.46l2.637-.216a.733.733 0 00.67-.67l.214-2.637a.732.732 0 00-.67-.788zM2.585 1.549l1.059-.086a.733.733 0 00-.12-1.46L.887.216a.732.732 0 00-.67.67l-.215 2.64a.732.732 0 001.46.118l.087-1.059L3.635 4.67A.731.731 0 104.67 3.634L2.585 1.55z" fill="#fff"/></g><defs><clipPath id="clip0"><path fill="#fff" d="M0 0h11v11H0z"/></clipPath></defs></svg>