<svg width="48" height="48" viewBox="0 0 48 48" fill="none" xmlns="http://www.w3.org/2000/svg">
<path d="M0.722656 23.8616C0.722656 36.8403 11.244 47.3616 24.2227 47.3616C37.2013 47.3616 47.7227 36.8403 47.7227 23.8616C47.7227 10.8829 37.2013 0.361572 24.2227 0.361572C11.244 0.361572 0.722656 10.8829 0.722656 23.8616Z" fill="url(#paint0_linear)"/>
<path fill-rule="evenodd" clip-rule="evenodd" d="M20.1969 14.8232H28.9703C30.2999 14.8232 31.5751 15.3514 32.5152 16.2916C33.4554 17.2318 33.9836 18.507 33.9836 19.8366V28.6099C33.9836 29.9395 33.4554 31.2147 32.5152 32.1549C31.5751 33.0951 30.2999 33.6232 28.9703 33.6232H20.1969C18.8673 33.6232 17.5921 33.0951 16.652 32.1549C15.7118 31.2147 15.1836 29.9395 15.1836 28.6099V19.8366C15.1836 18.507 15.7118 17.2318 16.652 16.2916C17.5921 15.3514 18.8673 14.8232 20.1969 14.8232ZM20.1969 17.3299H28.9703C29.6351 17.3299 30.2726 17.594 30.7427 18.0641C31.2128 18.5342 31.4769 19.1718 31.4769 19.8366V28.6099C31.4769 29.2747 31.2128 29.9123 30.7427 30.3824C30.2726 30.8525 29.6351 31.1166 28.9703 31.1166H20.1969C19.5321 31.1166 18.8946 30.8525 18.4245 30.3824C17.9544 29.9123 17.6903 29.2747 17.6903 28.6099V19.8366C17.6903 19.1718 17.9544 18.5342 18.4245 18.0641C18.8946 17.594 19.5321 17.3299 20.1969 17.3299ZM24.5836 19.8366C25.4512 19.8366 26.2993 20.0938 27.0207 20.5758C27.7421 21.0579 28.3043 21.743 28.6364 22.5445C28.9684 23.3461 29.0552 24.2281 28.886 25.0791C28.7167 25.93 28.2989 26.7116 27.6854 27.3251C27.0719 27.9386 26.2903 28.3563 25.4394 28.5256C24.5884 28.6949 23.7064 28.608 22.9049 28.276C22.1033 27.944 21.4182 27.3817 20.9362 26.6603C20.4542 25.939 20.1969 25.0908 20.1969 24.2232C20.1969 23.0598 20.6591 21.944 21.4818 21.1214C22.3044 20.2987 23.4202 19.8366 24.5836 19.8366ZM24.5836 22.3432C24.9554 22.3432 25.3189 22.4535 25.6281 22.6601C25.9373 22.8667 26.1782 23.1603 26.3205 23.5038C26.4628 23.8473 26.5 24.2253 26.4275 24.59C26.355 24.9547 26.1759 25.2897 25.913 25.5526C25.6501 25.8155 25.3151 25.9946 24.9504 26.0671C24.5857 26.1397 24.2077 26.1024 23.8641 25.9602C23.5206 25.8179 23.227 25.5769 23.0205 25.2677C22.8139 24.9585 22.7036 24.5951 22.7036 24.2232C22.7036 23.7246 22.9017 23.2464 23.2542 22.8939C23.6068 22.5413 24.085 22.3432 24.5836 22.3432Z" fill="white"/>
<defs>
<linearGradient id="paint0_linear" x1="35.9748" y1="0.361572" x2="12.4705" y2="47.3616" gradientUnits="userSpaceOnUse">
<stop stop-color="#9E42B4"/>
<stop offset="0.067" stop-color="#9E42B4"/>
<stop offset="0.473" stop-color="#E5566F"/>
<stop offset="1" stop-color="#FDC76D"/>
</linearGradient>
</defs>
</svg>
