<svg width="37" height="37" fill="none" xmlns="http://www.w3.org/2000/svg"><path d="M26.553.276h-16c-5.523 0-10 4.478-10 10v16c0 5.523 4.477 10 10 10h16c5.523 0 10-4.477 10-10v-16c0-5.522-4.477-10-10-10z" fill="url(#paint0_linear)"/><path fill-rule="evenodd" clip-rule="evenodd" d="M15.469 11.354h6.72a3.84 3.84 0 013.84 3.84v6.72a3.84 3.84 0 01-3.84 3.84h-6.72a3.84 3.84 0 01-3.84-3.84v-6.72a3.84 3.84 0 013.84-3.84zm0 1.92h6.72a1.92 1.92 0 011.92 1.92v6.72a1.92 1.92 0 01-1.92 1.92h-6.72a1.92 1.92 0 01-1.92-1.92v-6.72a1.92 1.92 0 011.92-1.92zm3.36 1.92a3.36 3.36 0 110 6.719 3.36 3.36 0 010-6.72zm0 1.92a1.44 1.44 0 110 2.88 1.44 1.44 0 010-2.88z" fill="#fff"/><defs><linearGradient id="paint0_linear" x1="27.554" y1=".276" x2="9.551" y2="36.276" gradientUnits="userSpaceOnUse"><stop stop-color="#9E42B4"/><stop offset=".067" stop-color="#9E42B4"/><stop offset=".473" stop-color="#E5566F"/><stop offset="1" stop-color="#FDC76D"/></linearGradient></defs></svg>