<svg width="48" height="48" fill="none" xmlns="http://www.w3.org/2000/svg"><path d="M.723 23.862c0 12.978 10.521 23.5 23.5 23.5 12.978 0 23.5-10.522 23.5-23.5 0-12.98-10.522-23.5-23.5-23.5-12.979 0-23.5 10.52-23.5 23.5z" fill="url(#paint0_linear)"/><path fill-rule="evenodd" clip-rule="evenodd" d="M20.197 14.823h8.773a5.013 5.013 0 015.014 5.014v8.773a5.013 5.013 0 01-5.014 5.013h-8.773a5.013 5.013 0 01-5.013-5.013v-8.773a5.013 5.013 0 015.013-5.014zm0 2.507h8.773a2.506 2.506 0 012.507 2.507v8.773a2.507 2.507 0 01-2.507 2.507h-8.773a2.506 2.506 0 01-2.507-2.507v-8.773a2.507 2.507 0 012.507-2.507zm4.387 2.507a4.387 4.387 0 110 8.773 4.387 4.387 0 010-8.773zm0 2.506a1.88 1.88 0 110 3.76 1.88 1.88 0 010-3.76z" fill="#fff"/><defs><linearGradient id="paint0_linear" x1="35.975" y1=".362" x2="12.47" y2="47.362" gradientUnits="userSpaceOnUse"><stop stop-color="#9E42B4"/><stop offset=".067" stop-color="#9E42B4"/><stop offset=".473" stop-color="#E5566F"/><stop offset="1" stop-color="#FDC76D"/></linearGradient></defs></svg>