<svg width="468" height="633" fill="none" xmlns="http://www.w3.org/2000/svg"><path opacity=".7" d="M331 255c15.817 21.756 58.467 63.573 136 22.886" stroke="#FEA04E" stroke-width="2"/><path d="M232.5 113C236 177.5 153 258.5 28 243.5M281 618c76 31.5 134.1 2.2 160.5-47m-87.044-221.69c51.133 14.881 82.074 68.777 79.892 115.846M193 457.5c2.5 71.5-59.9 127.6-147.5 122m112-265.5c-95.5-14-145 69-145 69" stroke="#FEA04E" stroke-width="2"/><circle cx="184" cy="90" r="12" fill="#7BAFE4"/><circle cx="184" cy="90" r="12" fill="url(#paint0_linear)"/><circle cx="232.5" cy="108" r="11" fill="#7BAFE4"/><circle cx="232.5" cy="108" r="11" fill="url(#paint1_linear)"/><path d="M183 86C171.5 19.5 72-28 1 23" stroke="#FEA04E" stroke-width="2" stroke-linejoin="round"/><circle cx="240" cy="232" r="12" fill="#7BAFE4"/><circle cx="240" cy="232" r="12" fill="url(#paint2_linear)"/><circle cx="356.5" cy="348.5" r="11.5" fill="#7BAFE4"/><circle cx="356.5" cy="348.5" r="11.5" fill="url(#paint3_linear)"/><circle cx="277.5" cy="615.5" r="11.5" fill="#7BAFE4"/><circle cx="277.5" cy="615.5" r="11.5" fill="url(#paint4_linear)"/><circle cx="162" cy="314" r="11" fill="#7BAFE4"/><circle cx="162" cy="314" r="11" fill="url(#paint5_linear)"/><circle cx="193" cy="451" r="11" fill="#7BAFE4"/><circle cx="193" cy="451" r="11" fill="url(#paint6_linear)"/><path d="M240 226c6.5-95 117-113 189-105" stroke="#FEA04E" stroke-width="2"/><circle cx="162" cy="314" r="4" fill="#fff"/><circle cx="193" cy="451" r="4" fill="#fff"/><circle cx="232.5" cy="108" r="4" fill="#fff"/><circle cx="240" cy="232" r="4" fill="#fff"/><circle cx="356.5" cy="348.5" r="4.5" fill="#fff"/><circle cx="277.5" cy="615.5" r="4.5" fill="#fff"/><circle cx="184" cy="90" r="4" fill="#fff"/><defs><linearGradient id="paint0_linear" x1="184" y1="78" x2="184" y2="102" gradientUnits="userSpaceOnUse"><stop stop-color="#FFB05E"/><stop offset="1" stop-color="#F97828"/></linearGradient><linearGradient id="paint1_linear" x1="232.5" y1="97" x2="232.5" y2="119" gradientUnits="userSpaceOnUse"><stop stop-color="#FFB05E"/><stop offset="1" stop-color="#F97828"/></linearGradient><linearGradient id="paint2_linear" x1="240" y1="220" x2="240" y2="244" gradientUnits="userSpaceOnUse"><stop stop-color="#FFB05E"/><stop offset="1" stop-color="#F97828"/></linearGradient><linearGradient id="paint3_linear" x1="356.5" y1="337" x2="356.5" y2="360" gradientUnits="userSpaceOnUse"><stop stop-color="#FFB05E"/><stop offset="1" stop-color="#F97828"/></linearGradient><linearGradient id="paint4_linear" x1="277.5" y1="604" x2="277.5" y2="627" gradientUnits="userSpaceOnUse"><stop stop-color="#FFB05E"/><stop offset="1" stop-color="#F97828"/></linearGradient><linearGradient id="paint5_linear" x1="162" y1="303" x2="162" y2="325" gradientUnits="userSpaceOnUse"><stop stop-color="#FFB05E"/><stop offset="1" stop-color="#F97828"/></linearGradient><linearGradient id="paint6_linear" x1="193" y1="440" x2="193" y2="462" gradientUnits="userSpaceOnUse"><stop stop-color="#FFB05E"/><stop offset="1" stop-color="#F97828"/></linearGradient></defs></svg>