<svg width="162" height="39" fill="none" xmlns="http://www.w3.org/2000/svg"><g clip-path="url(#clip0)" fill="#7BAFE4"><path d="M49.51 35.652c.001.3-.031.599-.098.891l-.084.369-.383.051c-2.108.29-4.234.44-6.363.448h-.855c-.372.691-.688 1.145-.962 1.383l-.24.206-.304-.098a1.853 1.853 0 01-.942-.631 1.779 1.779 0 01-.383-1.05c-7.57-.783-11.477-3.997-12.942-7.54-4.648 5.492-12.851 8.707-17.948 8.707-2.381 0-4.4-.704-4.833-2.92 10.998 0 20.734-6.614 20.734-14.846 0-5.697-4.759-10.377-12.692-10.834-1.803 4.75-2.952 13.417-1.64 20.227a2.412 2.412 0 01-.76.072c-6.323-.14-2.432-15.41-.45-20.123-2.055.352-4.29 1.02-6.022 1.02C.576 10.985 0 9.929 0 8.734c0-.33.035-.657.108-.979a60.497 60.497 0 018.006-.57h1.515c.497-.986.937-1.653 1.261-1.939.757.248 1.335.848 1.198 2.117 10.241.888 15.565 5.33 16.987 10.488a19.057 19.057 0 012.663-2.197c3.386-2.33 7.678-3.836 10.928-3.836 3.146 0 4.099 1.488 4.342 2.735l.126.646h-.672c-8.527 0-15.731 5.091-15.731 11.118 0 4.331 3.611 7.484 9.03 7.94 1.296-3.691 2.109-10.11 1.125-15.217l-.093-.485.487-.135c.248-.065.505-.09.76-.076a2.87 2.87 0 011.358.348c.415.226.765.55 1.017.944 2.061 3.07.09 10.859-1.16 14.34l.643-.138c1.105-.237 2.247-.484 3.216-.484 1.497-.011 2.396.853 2.396 2.299zM30.84 11.456c2.713.433 5.337-1.776 5.865-4.918.528-3.142-1.242-6.053-3.954-6.483-2.712-.43-5.335 1.777-5.863 4.917-.529 3.14 1.242 6.052 3.952 6.484z"/><path fill-rule="evenodd" clip-rule="evenodd" d="M69.049 32.718h-4.877V16.06h-4.045v16.657h-4.875V16.06h-4.047v20.172h21.887v-20.17H69.05v16.656zm11.635-4.934h7.473v-3.51h-7.473v-4.697h8.212V16.06H76.641v20.172h12.406v-3.515h-8.364v-4.934zm22.98-3.515h-7.562v-8.207h-4.047v20.17h4.047v-8.448h7.562v8.449h4.047V16.062h-4.047v8.207zm19.686.1a6.502 6.502 0 00-2.407-1.022 13.487 13.487 0 00-2.807-.288c-.237 0-.497.01-.768.03l-.812.056a13.388 13.388 0 00-1.225.145v-7.229h-4.047v19.97c.51.121 1.028.208 1.55.26.562.057 1.118.105 1.669.144a29.59 29.59 0 001.522.07c.461.01.831.015 1.108.015 2.736 0 4.838-.586 6.305-1.757 1.467-1.172 2.201-2.91 2.201-5.216 0-1.286-.207-2.348-.621-3.184a5.173 5.173 0 00-1.668-1.989v-.005zm-2.275 6.908a2.63 2.63 0 01-.871 1.022 3.55 3.55 0 01-1.3.548 7.488 7.488 0 01-1.564.161c-.394 0-.774-.014-1.138-.043a5.045 5.045 0 01-.871-.13v-6.02a7.66 7.66 0 01.916-.144l.589-.058c.197-.02.365-.029.497-.029a9.984 9.984 0 011.535.115c.457.064.895.222 1.285.462a2.6 2.6 0 01.886.969 3.31 3.31 0 01.339 1.6 3.513 3.513 0 01-.303 1.547zm33.48-15.36h-2.981l-7.385 20.152-6.764-9.317-1.656-1.13 1.597-1.094 6.03-8.466h-4.613l-5.701 8.529-.946.403v-8.933h-4.047v20.172h4.047v-8.61h1.063l6.115 8.616h8.861l1.566-4.466h6.351l1.655 4.466h4.254l-7.446-20.321zm-3.78 12.675l1.506-4.466.62-3.199h.149l.612 3.174 1.544 4.491h-4.431z"/></g><defs><clipPath id="clip0"><path fill="#fff" d="M0 0h162v39H0z"/></clipPath></defs></svg>