<svg width="1520" preserveAspectRatio="none" height="954" fill="none" xmlns="http://www.w3.org/2000/svg"><g filter="url(#filter0_d)"><path d="M74 94.19c0-19.07 13.345-35.274 32.23-37.928C179.126 46.017 382.265 24 781.75 24c390.13 0 566.32 20.998 630.14 31.523 17.86 2.946 30.11 18.46 30.11 36.567v728.016c0 20.403-15.36 37.474-35.68 39.299C1322.87 866.898 1097.79 884 781.75 884c-322.111 0-579.827-17.765-671.599-25.016C89.551 857.356 74 840.151 74 819.487V94.19z" fill="#fff"/></g><g filter="url(#filter1_d)"><path d="M40 80.513C40 61.298 53.558 45 72.602 42.44 148.18 32.274 362.043 10 785 10c413.12 0 598.35 21.25 664.5 31.711 18.07 2.857 30.5 18.486 30.5 36.78V805.91c0 20.485-15.39 37.594-35.8 39.344C1357.79 852.667 1119.91 870 785 870c-341.101 0-613.601-17.98-708.668-25.146C55.657 843.296 40 826.052 40 805.319V80.513z" fill="#fff"/></g><defs><filter id="filter0_d" x="34" y="14" width="1448" height="940" filterUnits="userSpaceOnUse" color-interpolation-filters="sRGB"><feFlood flood-opacity="0" result="BackgroundImageFix"/><feColorMatrix in="SourceAlpha" values="0 0 0 0 0 0 0 0 0 0 0 0 0 0 0 0 0 0 127 0"/><feOffset dy="30"/><feGaussianBlur stdDeviation="20"/><feColorMatrix values="0 0 0 0 0 0 0 0 0 0 0 0 0 0 0 0 0 0 0.02 0"/><feBlend in2="BackgroundImageFix" result="effect1_dropShadow"/><feBlend in="SourceGraphic" in2="effect1_dropShadow" result="shape"/></filter><filter id="filter1_d" x="0" y="0" width="1520" height="940" filterUnits="userSpaceOnUse" color-interpolation-filters="sRGB"><feFlood flood-opacity="0" result="BackgroundImageFix"/><feColorMatrix in="SourceAlpha" values="0 0 0 0 0 0 0 0 0 0 0 0 0 0 0 0 0 0 127 0"/><feOffset dy="30"/><feGaussianBlur stdDeviation="20"/><feColorMatrix values="0 0 0 0 0 0 0 0 0 0 0 0 0 0 0 0 0 0 0.05 0"/><feBlend in2="BackgroundImageFix" result="effect1_dropShadow"/><feBlend in="SourceGraphic" in2="effect1_dropShadow" result="shape"/></filter></defs></svg>