<svg width="437" height="4189" fill="none" xmlns="http://www.w3.org/2000/svg"><g opacity=".08" stroke="#7D869D" stroke-width="10" stroke-miterlimit="10" stroke-linecap="round"><path d="M417.867 922.085c-18.112-4.977-56.785-6.743-79.061 21.062 9.919-24.968.132-37.689.132-37.689s-16.086 32.553-37.77 44.289c-4.831-10.045-.444-24.436 6.713-30.362-45.249 2.299-60.552 74.076-46.674 95.595 13.877 21.52 56.687 38.8 81.697 25.09 25.011-13.71 39.074-10.82 39.074-10.82s-7.631-12.88-30.744-12.08c28.839-2.51 43.507-18.503 45.293-26.86-16.949 8.369-35.112 1.544-33.717.909 48.25-21.873 55.057-69.134 55.057-69.134zm-66.747 41.831c-14.867 7.131-87.987 47.684-114.69 68.004m81.153-50.066c4.51-7.55 6.944-17.33 6.976-22.961m-9.854 24.669c1.892-.607 17.715 6.6 26.099 2.744"/><path d="M280.727 975.903c-2.279 7.526-2.596 18.363 2.009 26.137 2.049 3.45 10.96 9.96 19.899 10.83"/></g><path opacity=".08" d="M241.079 2462.5h-.024a471.239 471.239 0 01-68.99-7.31c-19.743-3.03-39.713-6.09-57.979-6.76-18.291-.66-34.664 1.09-47.284 7.53l174.277 6.54zm0 0h.024c20.017 0 38.447-3.11 53.254-12.34 14.862-9.27 25.887-24.6 31.29-48.64 6.457-28.68 1.97-52.15-13.679-68.83-18.98-20.52-50.847-27.51-78.089-29.4-7.387-.52-14.467-.65-20.904-.58l.072-.99c4.346-59.43-8.985-102.19-39.53-126.57-31.922-25.49-72.711-22.33-91.791-16.86l-.007.01h-.007c-7.98 2.37-21.621 7.25-35.042 15.65-13.413 8.39-26.716 20.36-33.836 36.95v.01c-9.162 21.45-6.47 46.4 7.675 74.05l1.623 3.18h.001c18.892 36.88 30.188 58.96 35.779 81.11 5.575 22.09 5.492 44.33 1.357 81.53l-.758 6.81-.308 2.78 2.483-1.28 6.114-3.13 174.279 6.54zm-33.514-159.67c-14.553.45-24.805 1.88-26.052 2.06l-1.49.21.221 1.49 1.083 7.29.215 1.45 1.454-.18c.012 0 .038 0 .079-.01 1.506-.2 22.892-3.06 48.261-1.51 26.169 1.61 56.076 7.89 73.022 26.12 12.978 14 16.887 33.91 11.164 59.49-3.697 16.48-10.284 28.12-19.008 36.21-8.73 8.09-19.714 12.74-32.386 15.04-25.441 4.63-57.297-.25-90.453-5.34l-.377-.06c-19.712-3.03-38.93-5.99-56.663-6.84-16.89-.82-32.558.26-46.131 5.05 3.393-34.38 2.759-56.56-3.194-78.78-6.066-22.64-17.643-45.26-35.856-80.84l-.046-.09h-.001l-1.622-3.19 177.78 22.43zm0 0l-3.485-.26-1.491-.11.104-1.49c3.938-56.43-8.237-95.83-35.645-117.58l-.003-.01c-28.531-22.75-66.379-19.75-82.367-15.02-7.318 2.19-19.82 6.63-32.047 14.18-12.238 7.56-24.08 18.16-30.273 32.62-7.773 18.25-5.34 40.13 7.426 65.24l177.781 22.43zM11.746 3624.18l1.555-2.35 5.529-8.38-7.084 10.73zm0 0l-1.082-2.61m1.082 2.61l-1.082-2.61m0 0l-3.759-9.06h-.003c-10.045-23.76-2.973-48.38 21.862-79.01-13.818-16.68-21.427-36.97-21.67-57.92v-.01m3.57 146l-3.57-146m0 0v0m0 0v0m0 0c0-33.38 19.95-63.43 51.83-85.08 31.89-21.64 75.848-34.99 124.296-34.99 48.449 0 92.446 13.38 124.373 35.06 31.918 21.66 51.907 51.73 51.907 85.08 0 33.34-19.989 63.41-51.907 85.08-31.927 21.67-75.924 35.05-124.373 35.05-19.51 0-34.086-.99-47.406-3.83-13.217-2.82-25.132-7.45-39.362-14.63M7.094 3475.57l89.358 101.74m0 0c-15.424 1.29-31.955 6.01-46.084 12.57-14.302 6.65-25.927 15.09-31.538 23.57l77.622-36.14zm2.68-12.66h.325l.296.13 1.382.63.032.02.031.01c13.831 7.08 24.916 11.51 37.215 14.18 12.315 2.67 25.917 3.59 44.807 3.59 45.054 0 85.84-12.15 115.319-31.72 29.49-19.58 47.517-46.47 47.517-75.99 0-29.52-18.045-56.42-47.545-76-29.489-19.57-70.276-31.72-115.291-31.72-45.014 0-85.781 12.18-115.25 31.77-29.479 19.6-47.504 46.49-47.51 75.93.33 19.71 8.064 38.73 21.954 53.93h.007l.007.01 2.61 2.93.876.98-.86 1-2.524 2.92c-.002 0-.004 0-.006.01-20.15 23.84-28.363 42.57-26.233 59.24 9.406-8.75 22.336-16.05 36.172-21.45 14.902-5.81 30.968-9.48 45.036-10.4h1.633zm55.676-159.21l.424-1.36 1.382.36 136.396 35.1 1.528.39-.47 1.5-2.845 9.14-.424 1.36-1.382-.36-136.396-35.1-1.528-.39.47-1.5 2.845-9.14zm70.415 62.93l.462-1.34 1.366.39 54.611 15.49 1.524.43-.515 1.5-3.113 9.06-.461 1.34-1.367-.38-54.61-15.5-1.524-.43.515-1.5 3.112-9.06zm-139.376-46.38l.542-1.3 1.33.46 108.005 37.19 1.511.52-.615 1.47-3.7 8.88-.542 1.3-1.331-.46-108.004-37.19-1.511-.52.615-1.47 3.7-8.88zm49.097 60.96l.585-1.27 1.31.5 111.454 42.32 1.501.57-.67 1.46-4.027 8.76-.586 1.27-1.31-.49-111.454-42.33-1.501-.57.671-1.46 4.027-8.76zm-12.108 34.89l.479-1.33 1.359.4 48.805 14.47 1.522.46-.536 1.49-3.238 9.02-.479 1.33-1.359-.4-48.806-14.48-1.521-.45.536-1.49 3.238-9.02z" fill="#7D869D" stroke="#7D869D" stroke-width="3"/><g opacity=".08" stroke="#7D869D" stroke-width="10" stroke-miterlimit="10" stroke-linecap="round"><path d="M93.401 55.936c6.614 40.502 30.784 123.201 93.025 173.029 62.241 49.827 115.357 48.002 124.632 37.564 9.275-10.439 2.669-86.814-59.282-138.993-67.58-56.91-158.375-71.6-158.375-71.6zm11.095 9.827c33.83 38.855 247.68 243.407 275.552 260.992"/><path d="M115.747 112.08l33.023-.663 2.362-34.66m-24.604 69.932l55.177-1.441 2.95-56.432m-33.039 95.956l63.007-9.12 6.337-61.37m-41.968 104.773l64.976-11.008 10.514-74.527m-41.578 109.489l61.365-8.121 10.689-63.912m-18.117 95.502l33.26-8.711 8.284-31.118"/></g><g opacity=".08" stroke="#505666" stroke-width="10" stroke-miterlimit="10" stroke-linecap="round"><path d="M356.323 3937.64c-23.386-1.45-71.054 6.27-91.147 45.92 5.731-33.02-9.468-46.05-9.468-46.05s-11.323 43.85-34.8 63.72c-8.465-11.03-6.784-29.72.439-38.79-54.658 14.37-55.003 105.92-32.56 128.65 22.442 22.73 79.123 32.88 106.157 9.76 27.034-23.13 44.941-23.2 44.941-23.2s-12.607-13.77-40.623-6.89c34.57-10.43 48.392-33.71 48.437-44.37-18.555 14.55-42.475 10.86-40.934 9.72 53.321-39.03 49.558-98.47 49.558-98.47zm-70.808 68.12c-16.329 12.51-95.242 80.7-122.651 112.34m86.289-81.86c3.577-10.38 4.05-22.94 2.65-29.82m-5.728 32.63c2.155-1.22 23.315 3.54 32.567-3.31"/><path d="M202.633 4038.39c-.859 9.77 1.523 23.08 9.13 31.39 3.385 3.7 15.928 9.37 27.063 8.14"/></g><path d="M373.358 1831.49c-44.163 10.68-196.103 55.69-230.985 213.6 152.277-3.85 230.985-213.6 230.985-213.6zM147.127 2040.7s185.962-188.21 217.187-202.02m-97.712 85.27c.654-.62 43.658-13.04 43.658-13.04m-65.335 33.08l71.236-16.42m-140.483 85.57c1.396-2.44 82.33-19.51 82.33-19.51" opacity=".08" stroke="#505666" stroke-width="10" stroke-miterlimit="10" stroke-linecap="round"/></svg>