<svg width="43" height="43" fill="none" xmlns="http://www.w3.org/2000/svg"><g clip-path="url(#clip0)" fill="#fff" stroke="#fff" stroke-width=".2"><path d="M6.618 8.247a42.85 42.85 0 00.713 2.41.77.77 0 001.463.001 42.86 42.86 0 00.713-2.411c.337-1.281.671-2.815.671-3.88a2.118 2.118 0 00-2.116-2.115 2.118 2.118 0 00-2.115 2.115c0 1.065.334 2.599.671 3.88zm.873-3.88a.573.573 0 011.143 0c0 .856-.273 2.147-.572 3.3-.298-1.152-.571-2.443-.571-3.3z"/><path d="M7.29 39.977a.771.771 0 101.544 0V10.414a.772.772 0 10-1.543 0v29.563zM41.157 3.795l-1.554 3.627a.771.771 0 101.419.609l.135-4.236zm0 0H20.655l1.554 3.627s0 0 0 0a.772.772 0 11-1.418.609s0 0 0 0l-2.016-4.703s0 0 0 0h0l.092-.04 22.29.507zM18.84 2.6h0l24.198.729a.77.77 0 00-.065-.73h0a.773.773 0 00-.645-.346H19.484c-.259 0-.5.13-.644.347zm22.182 5.43l2.016-4.703-2.016 4.703zM22.21 35.578a.772.772 0 10-1.42-.608s0 0 0 0l-2.015 4.703s0 0 0 0a.77.77 0 00.065.729h0l3.278-4.863m.091.04l-.091-.04m.091.04h0l-.091-.04m.091.04l-1.554 3.626m1.463-3.666l-1.571 3.666h.108m0 0l-.043.1h-.108H41.2l-.043-.1m-20.503 0h20.503m0 0h.109l.043.1-1.614-3.767m1.462 3.667l-1.554-3.627m0 0l.092-.04m-.092.04h0l.092-.04m-.092.04a.772.772 0 01.405-1.014m-.313.974a.672.672 0 01.353-.882m-.04-.092s0 0 0 0l.04.092m-.04-.092s0 0 0 0l.04.092m-.04-.092l.04.092m.974.313h0l-.092.04.092-.04s0 0 0 0zm2.015 4.703l-.092.04.092-.04h0z"/><path d="M20.728 35.273a.771.771 0 101.544 0V7.727a.772.772 0 10-1.544 0v27.546zm18.812 0a.771.771 0 101.544 0V7.727a.772.772 0 10-1.543 0v27.546z"/><path d="M21.5 8.498h18.813a.772.772 0 100-1.543H21.5a.772.772 0 100 1.543zm0 27.547h18.813a.771.771 0 100-1.543H21.5a.771.771 0 100 1.543zm-6.719-24.859h26.203a.772.772 0 100-1.544H14.781a.772.772 0 100 1.544zm6.047 2.016h20.156a.772.772 0 100-1.544H20.828a.772.772 0 100 1.544zm0 2.015h20.156a.772.772 0 100-1.544H20.828a.772.772 0 100 1.544zm0 2.016h20.156a.772.772 0 100-1.544H20.828a.772.772 0 100 1.544zm0 2.015h20.156a.772.772 0 100-1.543H20.828a.772.772 0 100 1.543zm0 2.016h20.156a.772.772 0 100-1.544H20.828a.772.772 0 100 1.544zm0 2.016h20.156a.771.771 0 100-1.544H20.828a.772.772 0 100 1.544zm0 2.015h20.156a.771.771 0 100-1.543H20.828a.771.771 0 100 1.543zm0 2.015h20.156a.771.771 0 100-1.543H20.828a.771.771 0 100 1.544zm0 2.017h20.156a.771.771 0 100-1.544H20.828a.771.771 0 100 1.544zm0 2.015h20.156a.771.771 0 100-1.544H20.828a.771.771 0 100 1.544zm0 2.016h20.156a.771.771 0 100-1.544H20.828a.771.771 0 100 1.544zM.672 5.81h14.11a.772.772 0 100-1.543H.671a.772.772 0 100 1.544z"/><path d="M12.666 9.07c0 1.167.949 2.116 2.115 2.116a.772.772 0 100-1.544.573.573 0 010-1.144.772.772 0 100-1.543 2.118 2.118 0 00-2.115 2.115z"/><path d="M14.01 7.727a.77.77 0 00.771.771 2.118 2.118 0 002.116-2.115c0-1.167-.95-2.116-2.116-2.116a.772.772 0 100 1.544.573.573 0 010 1.144.772.772 0 00-.772.772z"/></g><defs><clipPath id="clip0"><path fill="#fff" d="M0 0h43v43H0z"/></clipPath></defs></svg>