<svg width="22" height="22" fill="none" xmlns="http://www.w3.org/2000/svg"><g clip-path="url(#clip0)"><path d="M19.319 7.64l-2.157-.785a2.606 2.606 0 00.874-2.637c-.47-1.908-2.796-2.633-4.265-1.333L12.28 4.2l-.294-1.974C11.697.283 9.447-.652 7.863.507a2.62 2.62 0 00-1.025 2.59l-2.034-.74c-1-.364-2.11.153-2.474 1.154L1.45 5.93a.644.644 0 00.384.825l10.058 3.66H2.18a.644.644 0 00-.644.644v9.01c0 1.065.866 1.931 1.931 1.931H16.34c1.064 0 1.93-.866 1.93-1.93v-7.333l.498.181a.644.644 0 00.825-.385l.88-2.419c.365-1-.153-2.11-1.154-2.474zM7.972 20.713H3.467a.644.644 0 01-.644-.644v-8.366h5.149v9.01zm2.574 0H9.26v-9.01h1.287v9.01zm4.077-16.864a1.324 1.324 0 012.163.676 1.323 1.323 0 01-1.738 1.56l-2.093-.761 1.668-1.475zm-6-2.304a1.324 1.324 0 012.091.873l.33 2.21-2.092-.761c-.996-.363-1.184-1.696-.329-2.322zm.303 6.422L2.88 5.765l.66-1.814a.644.644 0 01.825-.385l5.443 1.981-.88 2.42zm2.42.88l-1.21-.44.88-2.42 1.21.441-.88 2.419zm5.636 11.222a.644.644 0 01-.643.644h-4.505v-9.01h3.595l1.553.565v7.801zm2.28-10.395l-.66 1.814-6.047-2.2.88-2.42 5.443 1.981a.644.644 0 01.385.825z" fill="#7BAFE4"/></g><defs><clipPath id="clip0"><path fill="#fff" d="M0 0h22v22H0z"/></clipPath></defs></svg>