<svg width="15" height="16" fill="none" xmlns="http://www.w3.org/2000/svg"><path d="M8.376.288h.072c.288 0 .496.096.624.288a.894.894 0 01.192.528.453.453 0 01-.024.144.267.267 0 00-.024.12c0 .064.008.128.024.192a.624.624 0 01.024.192c0 .24-.04.464-.12.672.032.16.048.288.048.384 0 .208-.032.352-.096.432.016.192.024.376.024.552a5.07 5.07 0 010 .984c-.016.192-.04.296-.072.312.032.016.048.056.048.12v.12c0 .288.104.52.312.696.224.16.448.24.672.24.176 0 .344-.024.504-.072.176-.048.352-.072.528-.072.16 0 .28.016.36.048h.048c.176 0 .36.008.552.024.208.016.408.024.6.024.24 0 .464-.016.672-.048.224-.048.424-.072.6-.072s.296.056.36.168c.08.096.168.144.264.144.048.08.112.152.192.216s.12.144.12.24a.553.553 0 01-.048.192.892.892 0 00-.024.216.79.79 0 00.048.24v.072c0 .064.008.128.024.192a.789.789 0 01.024.192.162.162 0 01-.072.144c-.032.032-.048.08-.048.144 0 .08.016.152.048.216a.32.32 0 01.072.192c-.096.128-.184.24-.264.336-.08.08-.16.152-.24.216-.08.064-.152.096-.216.096a.705.705 0 01-.168-.024.296.296 0 00-.168-.048.789.789 0 00-.192.024h-.168a.599.599 0 01-.264-.048c-.032.032-.08.048-.144.048h-.144c-.192 0-.376-.008-.552-.024a3.225 3.225 0 00-.576-.048c-.016.032-.088.056-.216.072a2.769 2.769 0 01-.24.024c-.128 0-.248-.008-.36-.024a1.895 1.895 0 01-.288-.072c-.064.032-.176.048-.336.048-.112 0-.2-.008-.264-.024a.599.599 0 00-.264-.048c-.512 0-.768.352-.768 1.056 0 .096.008.192.024.288.016.096.04.176.072.24-.032.032-.048.08-.048.144.016.048.008.088-.024.12 0 .16.016.328.048.504.032.16.048.328.048.504 0 .08-.016.2-.048.36a.842.842 0 01.024.24c0 .08-.008.168-.024.264-.016.08-.024.168-.024.264 0 .08.008.152.024.216a.624.624 0 01.024.192c0 .08-.008.16-.024.24v.24c0 .096.016.184.048.264a.426.426 0 01.048.192c0 .128-.056.24-.168.336a1.385 1.385 0 01-.432.24 1.86 1.86 0 01-.552.168 2.275 2.275 0 01-.888.048h-.144c-.304 0-.552-.08-.744-.24a1.161 1.161 0 01-.384-.648.762.762 0 00.048-.216c0-.08-.016-.16-.048-.24a1.221 1.221 0 01-.024-.24c0-.096.008-.208.024-.336.016-.128.024-.256.024-.384v-.288c0-.096-.008-.184-.024-.264 0-.048.008-.088.024-.12a.233.233 0 00.048-.12.395.395 0 00-.024-.12.624.624 0 010-.336A.892.892 0 006 11.52a.426.426 0 00-.048-.192 1.14 1.14 0 01-.024-.264c.048-.048.064-.112.048-.192 0-.096.024-.168.072-.216-.032-.032-.048-.096-.048-.192 0-.112.008-.192.024-.24a.789.789 0 00.024-.192.64.64 0 00-.24-.528.831.831 0 00-.84-.168c-.08.016-.152.024-.216.024a.532.532 0 01-.168-.024.624.624 0 00-.192-.024h-.96a.906.906 0 01-.288-.048 7.542 7.542 0 01-1.224.096h-.384c-.144 0-.288-.008-.432-.024a2.388 2.388 0 01-.36-.072c-.112-.032-.176-.072-.192-.12-.112-.096-.16-.232-.144-.408.016-.176-.032-.312-.144-.408l-.048-.24V7.8c0-.096.008-.184.024-.264a.388.388 0 01.096-.216.705.705 0 00-.048-.264.84.84 0 01-.048-.264c0-.032.024-.088.072-.168.064-.096.144-.192.24-.288.096-.096.2-.176.312-.24a.608.608 0 01.36-.12c.096 0 .192.032.288.096.096.048.2.072.312.072.08 0 .168-.008.264-.024s.192-.024.288-.024c.096 0 .208.024.336.072.016-.032.08-.048.192-.048.128-.016.232-.024.312-.024.336 0 .64.024.912.072h.24c.096-.016.192-.024.288-.024.16 0 .28.024.36.072.096.032.208.048.336.048.144 0 .296-.112.456-.336.16-.24.24-.472.24-.696-.064-.08-.104-.224-.12-.432v-.384c0-.08.008-.152.024-.216A.426.426 0 006 4.008a.351.351 0 00-.072-.216.476.476 0 01-.048-.216c0-.048.008-.104.024-.168a.59.59 0 00.048-.216c0-.096-.008-.184-.024-.264a1.616 1.616 0 01-.024-.264c0-.08.024-.168.072-.264 0-.112-.008-.224-.024-.336a3.093 3.093 0 01-.024-.384c.016-.016.024-.04.024-.072v-.192a.426.426 0 01-.048-.192c0-.048.008-.12.024-.216.032-.112.072-.224.12-.336a1.24 1.24 0 01.168-.288A.483.483 0 016.48.24c.208 0 .384-.016.528-.048.16-.048.328-.072.504-.072s.336.008.48.024a.801.801 0 01.384.144zM6.864 5.88c-.016-.032-.048-.048-.096-.048h-.096c0 .08.04.12.12.12l.072-.072zm.312.888c-.016-.016-.048-.024-.096-.024a.426.426 0 00-.192.048.426.426 0 01-.192.048c0 .048.024.072.072.072.176 0 .312-.048.408-.144zm-.624 1.248a.213.213 0 00.024-.096c0-.064-.04-.096-.12-.096a.43.43 0 00-.216.072c-.08.032-.12.088-.12.168 0 .032.016.048.048.048.08 0 .144-.008.192-.024a.938.938 0 01.192-.072z" fill="#BEBECB"/></svg>