<svg width="13" height="12" fill="none" xmlns="http://www.w3.org/2000/svg"><path d="M12.742 4.602a.893.893 0 00-.628-.238H8.273V.818a.76.76 0 00-.259-.58A.892.892 0 007.386 0H5.614a.892.892 0 00-.628.239.76.76 0 00-.259.58v3.545H.887a.892.892 0 00-.629.238.76.76 0 00-.258.58v1.636c0 .228.086.42.258.58a.894.894 0 00.628.238h3.841v3.546c0 .227.086.42.259.58a.893.893 0 00.628.238h1.772c.247 0 .456-.08.628-.238a.76.76 0 00.259-.58V7.636h3.84a.9.9 0 00.629-.238.76.76 0 00.258-.58V5.182a.76.76 0 00-.258-.58z" fill="#fff"/></svg>