<svg width="1116" preserveAspectRatio="none" height="619" fill="none" xmlns="http://www.w3.org/2000/svg"><g filter="url(#filter0_d)"><path d="M62.193 165.604c0-40.034 29.615-73.742 69.452-77.717 85.047-8.487 241.438-20.842 431.122-20.842 188.102 0 339.422 12.15 422.117 20.629 39.636 4.063 68.926 37.645 68.926 77.489v299.799c0 41.161-31.21 75.484-72.254 78.511C895.292 549.834 740.21 559 562.767 559c-179 0-339.382-9.327-428.005-15.694-41.178-2.958-72.569-37.355-72.569-78.639V165.604z" fill="#fff"/></g><g filter="url(#filter1_d)"><path d="M40 118.962c0-40.208 29.778-74.002 69.8-77.856C198.005 32.615 362.736 20 562.981 20c198.502 0 357.797 12.396 443.599 20.884 39.83 3.94 69.42 37.628 69.42 77.653v326.631c0 41.288-31.38 75.679-72.56 78.608-89.519 6.367-253.052 15.734-440.459 15.734-189.059 0-358.239-9.533-450.176-15.902C71.497 520.747 40 486.291 40 444.884V118.962z" fill="#fff"/></g><defs><filter id="filter0_d" x="22.193" y="47.045" width="1071.61" height="571.955" filterUnits="userSpaceOnUse" color-interpolation-filters="sRGB"><feFlood flood-opacity="0" result="BackgroundImageFix"/><feColorMatrix in="SourceAlpha" values="0 0 0 0 0 0 0 0 0 0 0 0 0 0 0 0 0 0 127 0"/><feOffset dy="20"/><feGaussianBlur stdDeviation="20"/><feColorMatrix values="0 0 0 0 0.0706287 0 0 0 0 0.0957983 0 0 0 0 0.125485 0 0 0 0.03 0"/><feBlend in2="BackgroundImageFix" result="effect1_dropShadow"/><feBlend in="SourceGraphic" in2="effect1_dropShadow" result="shape"/></filter><filter id="filter1_d" x="0" y="0" width="1116" height="599.51" filterUnits="userSpaceOnUse" color-interpolation-filters="sRGB"><feFlood flood-opacity="0" result="BackgroundImageFix"/><feColorMatrix in="SourceAlpha" values="0 0 0 0 0 0 0 0 0 0 0 0 0 0 0 0 0 0 127 0"/><feOffset dy="20"/><feGaussianBlur stdDeviation="20"/><feColorMatrix values="0 0 0 0 0.0706287 0 0 0 0 0.0957983 0 0 0 0 0.125485 0 0 0 0.1 0"/><feBlend in2="BackgroundImageFix" result="effect1_dropShadow"/><feBlend in="SourceGraphic" in2="effect1_dropShadow" result="shape"/></filter></defs></svg>