<svg width="485" height="1390" viewBox="0 0 485 1390" fill="none" xmlns="http://www.w3.org/2000/svg">
<path opacity="0.08" d="M79.2538 565.41L122.603 687.515L112.169 691.211L110.754 691.712L111.256 693.127L121.68 722.497L122.181 723.91L123.594 723.41L423.24 617.328L424.655 616.826L424.153 615.411L413.702 586L413.2 584.588L411.788 585.088L400.353 589.138C397.555 583.092 393.92 578.743 389.661 575.763C384.461 572.125 378.459 570.618 372.2 570.423C359.768 570.037 345.986 574.833 334.671 578.836L334.67 578.836C292.899 593.628 258.473 580.734 234.321 563.948C210.135 547.14 196.368 526.495 196.129 526.133L194.772 524.077L194.125 523.097L193.019 523.489L80.1662 563.494L78.7517 563.996L79.2538 565.41ZM190.55 534.19C193.034 537.55 197.683 543.46 204.298 550.309L195.357 569.097L194.713 570.45L196.065 571.096L201.71 573.791L203.066 574.438L203.711 573.082L211.289 557.159C213.346 559.066 215.535 561.002 217.85 562.938L209.266 580.976L208.622 582.329L209.974 582.975L215.619 585.67L216.974 586.317L217.62 584.961L225.304 568.814C228.132 570.912 231.109 572.974 234.232 574.961L226.282 591.666L225.638 593.019L226.99 593.665L232.635 596.36L233.991 597.007L234.636 595.65L242.229 579.694C246.486 582.026 250.971 584.188 255.673 586.102L247.311 603.673L246.667 605.026L248.019 605.671L253.664 608.366L255.019 609.013L255.665 607.657L264.413 589.274C282.469 595.041 303.322 596.881 326.483 590.988L334.146 612.588L131.317 684.429L90.596 569.566L190.55 534.19ZM391.621 592.231L342.865 609.5L335.371 588.376C336.157 588.114 336.946 587.843 337.737 587.563C351.368 582.758 363.108 578.735 372.592 579.068C377.264 579.232 381.3 580.457 384.719 583.129C387.328 585.168 389.653 588.111 391.621 592.231ZM407.697 596.334L412.936 611.174L127.873 712.097L122.6 697.282L407.697 596.334Z" fill="#7D869D" stroke="#7D869D" stroke-width="3"/>
<g opacity="0.08">
<path d="M96.221 69.2656C91.9797 94.9557 95.1237 148.529 136.617 175.231C100.812 165.157 84.7099 180.484 84.7099 180.484C84.7099 180.484 131.846 197.968 151.131 226.173C137.997 234.282 117.552 230.308 108.361 221.296C118.051 283.35 219.076 294.098 246.705 271.861C274.333 249.625 291.945 188.111 269.467 155.605C246.989 123.099 248.935 103.294 248.935 103.294C248.935 103.294 232.307 115.671 236.735 147.423C229.126 108.024 204.99 90.1072 193.227 88.8497C207.192 111.011 200.415 137.037 199.339 135.206C162.269 71.8365 96.221 69.2656 96.221 69.2656Z" stroke="#505666" stroke-width="10" stroke-miterlimit="10" stroke-linecap="round"/>
<path d="M163.427 155.262C175.387 174.728 241.753 269.681 273.583 303.56" stroke="#505666" stroke-width="10" stroke-miterlimit="10" stroke-linecap="round"/>
<path d="M192.961 198.912C181.916 193.783 168.101 191.837 160.344 192.606" stroke="#505666" stroke-width="10" stroke-miterlimit="10" stroke-linecap="round"/>
<path d="M195.728 202.63C194.62 200.109 202.261 177.254 195.744 166.25" stroke="#505666" stroke-width="10" stroke-miterlimit="10" stroke-linecap="round"/>
<path d="M190.072 250.578C200.763 252.635 215.732 251.509 225.766 244.038C230.229 240.715 237.905 227.488 237.813 215.038" stroke="#505666" stroke-width="10" stroke-miterlimit="10" stroke-linecap="round"/>
</g>
<g opacity="0.08">
<path d="M226.702 1287.3C264.298 1288.98 395.545 1288.2 459.693 1170.62C337.663 1138.58 226.702 1287.3 226.702 1287.3Z" stroke="#505666" stroke-width="10" stroke-miterlimit="10" stroke-linecap="round"/>
<path d="M454.897 1173.02C454.897 1173.02 263.576 1279.88 235.554 1283.67" stroke="#505666" stroke-width="10" stroke-miterlimit="10" stroke-linecap="round"/>
<path d="M332.941 1238.36C332.278 1238.7 295.205 1238.67 295.205 1238.67" stroke="#505666" stroke-width="10" stroke-miterlimit="10" stroke-linecap="round"/>
<path d="M354.807 1227.41L294.351 1224.05" stroke="#505666" stroke-width="10" stroke-miterlimit="10" stroke-linecap="round"/>
<path d="M425.833 1188.36C424.159 1189.98 355.838 1184.9 355.838 1184.9" stroke="#505666" stroke-width="10" stroke-miterlimit="10" stroke-linecap="round"/>
</g>
</svg>
