<svg width="425" height="1119" viewBox="0 0 425 1119" fill="none" xmlns="http://www.w3.org/2000/svg">
<g opacity="0.6">
<g opacity="0.08">
<path d="M159.973 107.193C161.774 127.57 174.661 167.713 211.491 179.891C182.25 179.249 172.989 194.068 172.989 194.068C172.989 194.068 212.311 198.125 232.521 215.802C224.107 224.548 207.759 225.534 198.994 220.48C218.527 265.791 297.569 254.155 314.255 231.818C330.941 209.482 332.305 159.227 308.821 138.904C285.336 118.581 282.939 103.132 282.939 103.132C282.939 103.132 272.7 115.809 282.291 139.098C268.78 110.615 246.889 101.717 237.685 103.067C252.66 117.189 252.596 138.32 251.419 137.137C210.776 96.195 159.973 107.193 159.973 107.193Z" stroke="#7D869D" stroke-width="10" stroke-miterlimit="10" stroke-linecap="round"/>
<path d="M228.003 159.436C240.925 171.903 310.073 231.137 340.952 250.674" stroke="#7D869D" stroke-width="10" stroke-miterlimit="10" stroke-linecap="round"/>
<path d="M259.042 186.855C249.627 185.119 238.724 186.348 232.967 188.454" stroke="#7D869D" stroke-width="10" stroke-miterlimit="10" stroke-linecap="round"/>
<path d="M261.878 189.145C260.54 187.445 261.883 168.558 254.765 161.464" stroke="#7D869D" stroke-width="10" stroke-miterlimit="10" stroke-linecap="round"/>
<path d="M266.973 226.734C275.516 226.202 286.693 222.41 292.872 214.76C295.619 211.356 298.874 199.789 296.365 190.336" stroke="#7D869D" stroke-width="10" stroke-miterlimit="10" stroke-linecap="round"/>
</g>
</g>
<g opacity="0.6">
<g opacity="0.08">
<path d="M209.319 841.546C177.518 862.794 70.5033 942.42 88.7325 1077.32C207.948 1030.12 209.319 841.546 209.319 841.546Z" stroke="#505666" stroke-width="10" stroke-miterlimit="10" stroke-linecap="round"/>
<path d="M91.2149 1072.47C91.2149 1072.47 183.586 869.813 204.258 849.851" stroke="#505666" stroke-width="10" stroke-miterlimit="10" stroke-linecap="round"/>
<path d="M151.771 945.565C152.107 944.886 182.489 922.603 182.489 922.603" stroke="#505666" stroke-width="10" stroke-miterlimit="10" stroke-linecap="round"/>
<path d="M140.453 967.691L191.983 934.056" stroke="#505666" stroke-width="10" stroke-miterlimit="10" stroke-linecap="round"/>
<path d="M105.786 1042.42C106.181 1040.08 165.187 1003.12 165.187 1003.12" stroke="#505666" stroke-width="10" stroke-miterlimit="10" stroke-linecap="round"/>
</g>
</g>
</svg>
