<svg width="23" height="23" fill="none" xmlns="http://www.w3.org/2000/svg"><rect width="23" height="23" rx="5" fill="#C4C4C4"/><rect width="23" height="23" rx="5" fill="url(#paint0_linear)"/><path d="M15.821 10.452a.592.592 0 00-.435-.18h-2.659V7.615c0-.17-.06-.316-.179-.435a.592.592 0 00-.434-.18h-1.228c-.17 0-.315.06-.434.179a.592.592 0 00-.18.435v2.659H7.615c-.17 0-.316.06-.435.179a.591.591 0 00-.179.434v1.228c0 .17.06.315.179.434.12.12.264.18.435.18h2.659v2.659c0 .17.06.315.179.434.119.12.264.179.434.179h1.228c.17 0 .315-.06.434-.179a.592.592 0 00.18-.434v-2.66h2.658c.17 0 .316-.06.435-.179a.591.591 0 00.179-.434v-1.228c0-.17-.06-.315-.179-.434z" fill="#fff"/><defs><linearGradient id="paint0_linear" x1="14.29" y1="23.001" x2="14.922" y2="3.124" gradientUnits="userSpaceOnUse"><stop stop-color="#FEBA6F"/><stop offset="1" stop-color="#F98132"/></linearGradient></defs></svg>