<svg width="434" height="2682" fill="none" xmlns="http://www.w3.org/2000/svg"><g opacity=".6"><path d="M118.224 733.805c31.4-3.483 61.383-10.668 100.655-6.241 39.271 4.428 88.627-10.75 117.908-77.061-69.361-29.321-116.885 8.186-125.815 13.407-8.93 5.221-92.748 69.895-92.748 69.895zm.837-.094c30.897-11.169 255.419-95.754 274.973-108.056" opacity=".08" stroke="#505666" stroke-width="10" stroke-miterlimit="10" stroke-linecap="round"/></g><g opacity=".6"><path d="M124.663 2601.9c29.428-6.65 57.116-16.66 94.855-16.64 37.739.02 82.961-19.64 103.685-85.69-68.945-20.44-110.049 20.22-117.968 26.12-7.918 5.91-80.572 76.21-80.572 76.21zm.784-.18c28.132-13.89 232.19-118.07 249.435-131.83" opacity=".08" stroke="#505666" stroke-width="10" stroke-miterlimit="10" stroke-linecap="round"/></g><g opacity=".6"><g opacity=".08" stroke="#7D869D" stroke-width="10" stroke-miterlimit="10" stroke-linecap="round"><path d="M74.876 123.445c2.084 23.577 16.995 70.024 59.607 84.113-33.832-.743-44.547 16.403-44.547 16.403s45.496 4.695 68.879 25.147c-9.735 10.119-28.65 11.259-38.792 5.412 22.6 52.426 114.054 38.963 133.359 13.119 19.306-25.844 20.885-83.989-6.287-107.503-27.172-23.514-29.945-41.389-29.945-41.389s-11.848 14.668-.75 41.614c-15.633-32.956-40.961-43.251-51.611-41.688 17.328 16.338 17.253 40.787 15.891 39.419-47.024-47.371-105.804-34.647-105.804-34.647zm78.712 60.447c14.952 14.423 94.957 82.959 130.685 105.563m-94.771-73.839c-10.894-2.009-23.508-.587-30.17 1.85m33.449.8c-1.548-1.968.006-23.82-8.229-32.028"/><path d="M198.676 261.756c9.884-.616 22.817-5.003 29.965-13.855 3.179-3.937 6.945-17.32 4.043-28.258"/></g></g><g opacity=".6"><g opacity=".08" stroke="#7D869D" stroke-width="10" stroke-miterlimit="10" stroke-linecap="round"><path d="M87.041 2018.87c2.157 24.39 17.583 72.45 61.671 87.02-35.003-.77-46.09 16.97-46.09 16.97s47.072 4.86 71.265 26.02c-10.072 10.47-29.643 11.65-40.135 5.6 23.383 54.24 118.003 40.31 137.977 13.57 19.974-26.73 21.608-86.89-6.505-111.22-28.114-24.33-30.983-42.82-30.983-42.82s-12.257 15.17-.775 43.05c-16.174-34.1-42.379-44.75-53.398-43.13 17.927 16.9 17.851 42.2 16.441 40.78-48.652-49.01-109.468-35.84-109.468-35.84zm81.438 62.54c15.47 14.92 98.244 85.83 135.21 109.22m-98.053-76.4c-11.271-2.08-24.322-.61-31.214 1.91m34.608.83c-1.601-2.03.006-24.64-8.514-33.14"/><path d="M215.127 2161.97c10.227-.64 23.607-5.18 31.003-14.34 3.289-4.07 7.185-17.92 4.182-29.23"/></g></g></svg>