<svg width="1037" height="4505" fill="none" xmlns="http://www.w3.org/2000/svg"><path d="M835.79 144.621c21.933-9.248 42.049-20.866 71.363-26.088 29.313-5.222 61.708-26.766 68.64-80.939-56.384-6.307-82.668 30.972-87.998 36.658-5.331 5.686-52.005 70.369-52.005 70.369zm.585-.248c19.922-14.691 163.955-123.921 175.435-137" opacity=".08" stroke="#505666" stroke-width="10" stroke-miterlimit="10" stroke-linecap="round"/><path opacity=".08" d="M228.079 1265.5h-.024a471.239 471.239 0 01-68.99-7.31c-19.743-3.03-39.713-6.09-57.979-6.76-18.291-.66-34.664 1.09-47.284 7.53l174.277 6.54zm0 0h.024c20.017 0 38.447-3.11 53.254-12.34 14.862-9.27 25.887-24.6 31.29-48.64 6.457-28.68 1.97-52.15-13.679-68.83-18.98-20.52-50.847-27.51-78.089-29.4-7.387-.52-14.467-.65-20.904-.58l.072-.99c4.346-59.43-8.985-102.19-39.53-126.569-31.922-25.493-72.711-22.33-91.791-16.857l-.007.002-.007.002c-7.98 2.374-21.621 7.257-35.042 15.653-13.413 8.391-26.716 20.362-33.835 36.949l-.001.01c-9.162 21.45-6.47 46.4 7.675 74.05l1.623 3.18h.001c18.892 36.88 30.188 58.96 35.779 81.11 5.575 22.09 5.492 44.33 1.357 81.53l-.758 6.81-.308 2.78 2.483-1.28 6.114-3.13 174.279 6.54zm-33.514-159.67c-14.553.45-24.805 1.88-26.052 2.06l-1.49.21.221 1.49 1.083 7.29.215 1.45 1.454-.18c.012 0 .038 0 .079-.01 1.506-.2 22.892-3.06 48.261-1.51 26.169 1.61 56.076 7.89 73.022 26.12 12.978 14 16.887 33.91 11.164 59.49-3.697 16.48-10.284 28.12-19.008 36.21-8.73 8.09-19.714 12.74-32.386 15.04-25.441 4.63-57.297-.25-90.453-5.34l-.377-.06c-19.712-3.03-38.93-5.99-56.663-6.84-16.89-.82-32.558.26-46.131 5.05 3.393-34.38 2.759-56.56-3.194-78.78-6.066-22.64-17.643-45.26-35.856-80.84l-.046-.09h-.001l-1.622-3.19 177.78 22.43zm0 0l-3.485-.26-1.491-.11.104-1.49c3.938-56.43-8.237-95.83-35.645-117.583l-.003-.002c-28.531-22.753-66.38-19.759-82.367-15.025-7.318 2.194-19.82 6.633-32.047 14.183-12.238 7.557-24.08 18.157-30.273 32.617-7.773 18.25-5.34 40.13 7.426 65.24l177.781 22.43zm183.849 1739.94l1.597 2.67 1.094-2.91 3.408-9.07h.003c9.089-23.71 2.703-48.29-19.861-78.96a98.085 98.085 0 0019.679-57.92v-.01 0c0-33.31-18.056-63.36-47.003-85.03-28.946-21.68-68.856-35.04-112.844-35.04-43.989 0-83.933 13.4-112.914 35.1-28.98 21.69-47.073 51.76-47.073 85.04 0 33.27 18.093 63.34 47.073 85.04 28.981 21.69 68.925 35.09 112.914 35.09 17.7 0 30.941-.99 43.046-3.84 11.995-2.82 22.803-7.44 35.688-14.62 13.926 1.3 28.854 6 41.623 12.55 12.944 6.63 23.471 15.05 28.556 23.54h.001l5.013 8.37zm-77.678-57.12h-.355l-.317.16-1.253.63-.034.01-.032.02c-12.534 7.08-22.566 11.49-33.688 14.15-11.138 2.67-23.449 3.59-40.57 3.59-40.799 0-77.735-12.13-104.435-31.68-26.702-19.55-43.082-46.45-43.082-76.03 0-29.59 16.397-56.49 43.108-76.04 26.709-19.55 63.645-31.68 104.409-31.68 40.762 0 77.681 12.17 104.373 31.73 26.691 19.57 43.07 46.46 43.074 75.98a86.623 86.623 0 01-19.918 53.97l-.007.01-.006.01-2.367 2.93-.75.93.736.93 2.288 2.92.004.01c18.175 23.72 25.669 42.42 23.827 59.08-8.518-8.64-20.149-15.85-32.588-21.21-13.532-5.82-28.127-9.5-40.917-10.42h-1.5zm-50.341-159.17l-.408-1.44-1.445.41-123.681 35.1-1.441.4.407 1.45 2.58 9.13.408 1.44 1.445-.41 123.682-35.09 1.441-.41-.408-1.45-2.58-9.13zm-63.85 62.93l-.447-1.43-1.433.45-49.52 15.49-1.43.45.446 1.43 2.823 9.06.446 1.43 1.434-.44 49.519-15.5 1.43-.45-.446-1.43-2.822-9.06zm126.386-46.37l-.532-1.41-1.404.54-97.936 37.18-1.4.53.529 1.4 3.355 8.88.532 1.4 1.404-.53 97.936-37.18 1.4-.54-.529-1.4-3.355-8.87zm-44.52 60.96l-.578-1.38-1.386.58-101.064 42.32-1.381.58.576 1.38 3.652 8.76.578 1.39 1.386-.58 101.064-42.33 1.381-.58-.576-1.38-3.652-8.76zm10.977 34.89l-.465-1.43-1.427.46-44.256 14.48-1.424.46.464 1.43 2.936 9.01.465 1.43 1.427-.47 44.256-14.47 1.424-.46-.464-1.43-2.936-9.01z" fill="#7D869D" stroke="#7D869D" stroke-width="3"/><path d="M73.95 1806.53c12.59 23.6 27.644 44.93 36.481 77.2 8.836 32.27 36.254 66.32 97.586 68.55 1.301-63.74-43.101-89.35-50.008-94.73-6.907-5.39-84.059-51.02-84.059-51.02zm.337.63c18.475 20.79 155.419 170.83 171.228 182.34m94.533 2506.99c-12.595-35.47-62.725-156.77-195.808-171.93 16.258 125.11 195.808 171.93 195.808 171.93zM148.269 4328.1s171.024 137.02 185.077 161.55m-78.634-73.16c.567.48 14.491 34.84 14.491 34.84m-32.866-50.98l19.65 57.27m-82.567-108.37c2.134.94 23.15 66.14 23.15 66.14" opacity=".08" stroke="#505666" stroke-width="10" stroke-miterlimit="10" stroke-linecap="round"/><g opacity=".08" stroke="#7D869D" stroke-width="10" stroke-miterlimit="10" stroke-linecap="round"><path d="M22.657 3659.85c4.036 22.46 22.37 65.79 64.529 75.63-32.572 2.22-41.389 19.61-41.389 19.61s44.12.58 68.352 18.2c-8.481 10.56-26.558 13.29-36.806 8.55 26.237 48.41 112.948 27.56 129.269 1.07 16.32-26.5 12.822-82.48-15.315-102.72-28.136-20.23-32.342-37.16-32.342-37.16s-10.119 15.11 2.869 40.03c-17.864-30.3-43.088-38-53.186-35.58 18.058 14.2 20.096 37.69 18.669 36.49-49.269-41.43-104.65-24.12-104.65-24.12zm80.844 51.25c15.611 12.56 98.393 71.47 134.671 90.09m-97.427-62.72c-10.641-.99-22.639 1.47-28.829 4.38m32.211-2.12c-1.657-1.76-2.05-22.88-10.67-30.06"/><path d="M153.539 3781.99c9.445-1.45 21.493-6.78 27.597-15.9 2.715-4.06 5.179-17.24 1.447-27.49"/></g><g opacity=".08" stroke="#7D869D" stroke-width="10" stroke-miterlimit="10" stroke-linecap="round"><path d="M45.372 222.35c-1.957 24.947 5.457 75.982 47.434 98.13-35.157-6.696-49.338 9.305-49.338 9.305s46.63 12.858 67.437 38.275c-11.927 8.845-31.856 6.724-41.409-1.147 14.387 58.615 112.133 60.585 136.797 37.019 24.664-23.566 36.498-83.913 12.277-113.185-24.221-29.272-23.981-48.394-23.981-48.394s-14.927 13.22-8.074 43.256c-10.53-37.096-35.144-52.263-46.526-52.498 15.21 20.068 10.849 45.546 9.668 43.881-40.747-57.62-104.285-54.642-104.285-54.642zm71.507 76.8c13.068 17.655 84.504 103.113 117.808 132.934m-85.909-93.571c-11.011-4.002-24.417-4.727-31.792-3.352m34.749 6.687c-1.27-2.322 4.179-24.834-2.972-34.832"/><path d="M150.262 388.224c10.417 1.088 24.675-1.222 33.682-9.2 4.005-3.549 10.278-16.844 9.167-28.756"/></g><path d="M42.682 2424.4c42.829-15 189.358-74.81 208.343-235.21-150.951 18.95-208.343 235.21-208.343 235.21zm204.054-230.37s-166.12 205.51-195.781 222.33m88.641-94.44c-.588.68-42.093 17.29-42.093 17.29m61.645-39.36l-69.163 23.39m131.114-98.99c-1.145 2.57-79.883 27.57-79.883 27.57" opacity=".08" stroke="#505666" stroke-width="10" stroke-miterlimit="10" stroke-linecap="round"/></svg>