<svg width="111" height="111" fill="none" xmlns="http://www.w3.org/2000/svg"><path d="M107.826 15.175a4.182 4.182 0 00-5.915-.007L51.724 65.223 33.617 45.556a4.184 4.184 0 00-6.155 5.667l21.056 22.868a4.179 4.179 0 002.988 1.349l.09.001a4.19 4.19 0 002.953-1.22l53.269-53.13a4.182 4.182 0 00.008-5.916z" fill="#7BAFE4"/><path d="M106.816 51.316a4.183 4.183 0 00-4.183 4.184c0 25.99-21.143 47.133-47.133 47.133-25.989 0-47.133-21.143-47.133-47.133C8.367 29.511 29.51 8.367 55.5 8.367A4.183 4.183 0 1055.5 0C24.897 0 0 24.897 0 55.5 0 86.102 24.897 111 55.5 111c30.602 0 55.5-24.898 55.5-55.5a4.184 4.184 0 00-4.184-4.184z" fill="#7BAFE4"/></svg>