<svg width="616" height="1449" fill="none" xmlns="http://www.w3.org/2000/svg"><path opacity=".08" d="M312.455 764.463l-.022.008a471.075 471.075 0 01-66.758 18.881c-19.452 4.535-39.128 9.123-56.33 15.302-17.226 6.188-31.772 13.905-41.088 24.58l164.198-58.771zm0 0l.022-.009c18.58-7.448 34.531-17.189 44.838-31.271 10.347-14.135 14.877-32.465 10.948-56.787-4.676-29.023-17.575-49.14-38.307-58.801-25.251-11.984-57.433-6.619-83.421 1.764-7.048 2.273-13.672 4.778-19.618 7.244l-.3-.943c-18.081-56.787-46.363-91.513-83.786-102.779-39.115-11.785-75.799 6.327-91.473 18.506l-.006.004-.005.005c-6.524 5.171-17.37 14.779-26.703 27.566-9.328 12.78-17.222 28.841-17.657 46.89v.002c-.523 23.318 11.26 45.483 34.676 65.877l2.69 2.353.003.002c31.256 27.201 49.955 43.489 63.387 61.97 13.392 18.427 21.592 39.105 31.596 75.178l1.83 6.6.745 2.69 1.832-2.106 4.51-5.182 164.199-58.773zm-90.516-135.74c-13.341 5.831-22.326 10.972-23.416 11.603l-1.303.755.76 1.3 3.718 6.367.739 1.266 1.283-.71.069-.039c1.323-.747 20.108-11.36 44.235-19.355 24.887-8.247 54.984-13.544 77.498-2.924 17.255 8.167 28.291 25.192 32.495 51.063 2.7 16.67.916 29.922-4.173 40.677-5.091 10.761-13.556 19.164-24.461 26.018-21.894 13.759-53.279 21.079-85.95 28.689l-.371.087c-19.424 4.522-38.361 8.931-55.14 14.733-15.98 5.527-30.124 12.356-40.939 21.856-9.644-33.18-18.483-53.527-32.275-71.937-14.057-18.761-33.216-35.446-63.361-61.696l-.075-.066-.003-.002-2.69-2.352 173.36-45.333zm0 0l-3.33 1.059-1.425.453-.458-1.423c-17.34-53.842-43.302-85.888-76.835-95.879l-.003-.001c-34.949-10.504-68.966 6.357-82.044 16.699-5.977 4.76-15.93 13.531-24.47 25.089-8.547 11.567-15.597 25.811-15.962 41.542-.426 19.829 9.974 39.234 31.166 57.793l173.361-45.332z" fill="#7D869D" stroke="#7D869D" stroke-width="3"/><g opacity=".08" stroke="#7D869D" stroke-width="10" stroke-miterlimit="10" stroke-linecap="round"><path d="M558.915 32.194c-40.725 5.071-124.282 26.083-176.438 86.386-52.155 60.303-52.349 113.451-42.27 123.116 10.079 9.665 86.65 5.964 141.143-53.961 59.436-65.37 77.565-155.54 77.565-155.54zm-10.243 10.713c-40.111 32.33-252.638 238.257-271.269 265.44"/><path d="M501.962 52.391l-.591 33.024 34.546 3.677M466.968 61.85l-.656 55.193 56.279 5.091m-94.632-36.66l6.721 63.308 61.086 8.663m-103.103-45.917l8.532 65.347 74.074 13.337m-107.831-45.705l5.785 61.629 63.459 13.109m-94.745-21.733l7.442 33.566 30.781 9.461"/></g><g opacity=".08" stroke="#505666" stroke-width="10" stroke-miterlimit="10" stroke-linecap="round"><path d="M440.719 1282.05c-6.692-31.41-34.417-91.52-94.087-103.51 45.653-4.54 57.246-29.39 57.246-29.39s-62.001 1.14-96.842-22.57c11.433-15.23 36.701-19.87 51.312-13.65-39.059-66.91-159.913-33.78-181.633 4.2-21.719 37.97-14.257 116.54 26.188 143.75 40.445 27.21 47.124 50.83 47.124 50.83s13.525-21.7-5.853-56.17c26.472 41.82 62.255 51.54 76.33 47.68-26.013-19.16-29.944-52.1-27.885-50.48 71.094 56.09 148.1 29.31 148.1 29.31zm-115.888-68.51c-22.497-16.97-141.45-96.14-193.252-120.72m139.69 83.89c14.992.92 31.733-3.07 40.295-7.44m-45.146 4.42c2.408 2.39 3.92 32.08 16.357 41.78"/><path d="M251.332 1116.08c-13.203 2.45-29.886 10.48-38.047 23.57-3.629 5.83-6.491 24.47-.781 38.73"/></g></svg>