<svg width="84" height="77" fill="none" xmlns="http://www.w3.org/2000/svg"><path d="M.918 16.14C1.724 6.69 9.802 0 19.286 0h46.262c9.101 0 16.813 6.214 17.574 15.283C83.616 21.16 84 28.837 84 38.5c0 9.663-.384 17.341-.878 23.217C82.361 70.787 74.65 77 65.548 77H19.286C9.802 77 1.724 70.31.918 60.861.405 54.856 0 47.319 0 38.5c0-8.82.405-16.355.918-22.36z" fill="#7BAFE4"/><path d="M23.672 20.328a.95.95 0 00-1.344 0l-6.046 6.046a.95.95 0 101.344 1.344L23 22.343l5.374 5.375a.95.95 0 101.344-1.344l-6.046-6.046zm-1.344 39.344a.95.95 0 001.344 0l6.046-6.046a.95.95 0 10-1.344-1.343L23 57.655l-5.374-5.373a.95.95 0 10-1.344 1.343l6.046 6.046zM22.05 21v38h1.9V21h-1.9z" fill="#fff"/></svg>