<svg width="215" height="110" fill="none" xmlns="http://www.w3.org/2000/svg"><path fill-rule="evenodd" clip-rule="evenodd" d="M180.698 110c11.045 0 20-8.954 20-20V61.286l13.605.828-13.605-10.397V20c0-11.045-8.955-20-20-20H20C8.955 0 0 8.955 0 20v70c0 11.046 8.955 20 20 20h160.698z" fill="url(#paint0_linear)"/><path fill-rule="evenodd" clip-rule="evenodd" d="M180.698 110c11.045 0 20-8.954 20-20V61.286l13.605.828-13.605-10.397V20c0-11.045-8.955-20-20-20H20C8.955 0 0 8.955 0 20v70c0 11.046 8.955 20 20 20h160.698z" fill="url(#paint1_linear)"/><defs><linearGradient id="paint0_linear" x1="90.502" y1="-.005" x2="120.504" y2="103.841" gradientUnits="userSpaceOnUse"><stop stop-color="#FFB464"/><stop offset="1" stop-color="#F97928"/></linearGradient><linearGradient id="paint1_linear" x1="76" y1="-.005" x2="73.927" y2="106.398" gradientUnits="userSpaceOnUse"><stop stop-color="#FEBA6F"/><stop offset="1" stop-color="#F98132"/></linearGradient></defs></svg>