<svg width="320" height="790" fill="none" xmlns="http://www.w3.org/2000/svg"><g opacity=".08" stroke="#7D869D" stroke-width="10" stroke-miterlimit="10" stroke-linecap="round"><path d="M283.956 723.806c-6.558-16.712-27.343-47.323-61.376-48.456 24.788-6.7 28.922-21.472 28.922-21.472s-34.123 6.321-55.518-3.558c4.923-9.448 18.449-14.327 27.081-12.242-27.661-33.316-91.357-3.943-99.885 18.998-8.528 22.941 2.754 65.595 27.562 76.891 24.808 11.297 30.648 23.712 30.648 23.712s5.488-13.211-8.351-30.446c18.426 20.638 39.065 22.709 46.483 19.293-16.107-8.182-21.28-25.991-19.995-25.287 44.359 24.409 84.429 2.567 84.429 2.567zm-70.223-27.143c-13.968-7.297-86.86-40.049-117.702-48.853m84.775 33.452c8.36-.87 17.239-4.605 21.567-7.804m-24.521 6.579c1.548 1.1 5.089 17.336 12.839 21.546"/><path d="M164.264 649.647c-7.065 2.563-15.541 8.525-18.852 16.497-1.472 3.546-1.352 14.092 3.099 21.431"/></g><path d="M267.168 33.79c-29.563 27.526-54.849 57.77-98.523 83.184-43.674 25.414-82.742 78.637-62.205 169.017 93.54-22.823 113.694-97.561 118.874-109.731 5.18-12.169 41.854-142.47 41.854-142.47zm-.787.735C243.196 69.554 77.333 327.616 66.654 355.156" opacity=".08" stroke="#505666" stroke-width="10" stroke-miterlimit="10" stroke-linecap="round"/></svg>