<svg width="485" height="1390" fill="none" xmlns="http://www.w3.org/2000/svg"><path opacity=".08" d="M79.254 565.41l43.349 122.105-10.434 3.696-1.415.501.502 1.415 10.424 29.37.501 1.413 1.413-.5L423.24 617.328l1.415-.502-.502-1.415L413.702 586l-.502-1.412-1.412.5-11.435 4.05c-2.798-6.046-6.433-10.395-10.692-13.375-5.2-3.638-11.202-5.145-17.461-5.34-12.432-.386-26.214 4.41-37.529 8.413h-.001c-41.771 14.792-76.197 1.898-100.349-14.888-24.186-16.808-37.953-37.453-38.192-37.815l-1.357-2.056-.647-.98-1.106.392-112.853 40.005-1.414.502.502 1.414zm111.296-31.22c2.484 3.36 7.133 9.27 13.748 16.119l-8.941 18.788-.644 1.353 1.352.646 5.645 2.695 1.356.647.645-1.356 7.578-15.923a171.252 171.252 0 006.561 5.779l-8.584 18.038-.644 1.353 1.352.646 5.645 2.695 1.355.647.646-1.356 7.684-16.147a151.406 151.406 0 008.928 6.147l-7.95 16.705-.644 1.353 1.352.646 5.645 2.695 1.356.647.645-1.357 7.593-15.956a130.074 130.074 0 0013.444 6.408l-8.362 17.571-.644 1.353 1.352.645 5.645 2.695 1.355.647.646-1.356 8.748-18.383c18.056 5.767 38.909 7.607 62.07 1.714l7.663 21.6-202.829 71.841-40.721-114.863 99.954-35.376zm201.071 58.041L342.865 609.5l-7.494-21.124c.786-.262 1.575-.533 2.366-.813 13.631-4.805 25.371-8.828 34.855-8.495 4.672.164 8.708 1.389 12.127 4.061 2.609 2.039 4.934 4.982 6.902 9.102zm16.076 4.103l5.239 14.84-285.063 100.923-5.273-14.815 285.097-100.948z" fill="#7D869D" stroke="#7D869D" stroke-width="3"/><g opacity=".08" stroke="#505666" stroke-width="10" stroke-miterlimit="10" stroke-linecap="round"><path d="M96.221 69.266c-4.241 25.69-1.097 79.263 40.396 105.965-35.805-10.074-51.907 5.253-51.907 5.253s47.136 17.484 66.421 45.689c-13.134 8.109-33.579 4.135-42.77-4.877 9.69 62.054 110.715 72.802 138.344 50.565 27.628-22.236 45.24-83.75 22.762-116.256s-20.532-52.311-20.532-52.311-16.628 12.377-12.2 44.129c-7.609-39.399-31.745-57.316-43.508-58.573 13.965 22.161 7.188 48.187 6.112 46.356-37.07-63.37-103.118-65.94-103.118-65.94zm67.206 85.996c11.96 19.466 78.326 114.419 110.156 148.298m-80.622-104.648c-11.045-5.129-24.86-7.075-32.617-6.306m35.384 10.024c-1.108-2.521 6.533-25.376.016-36.38"/><path d="M190.072 250.578c10.691 2.057 25.66.931 35.694-6.54 4.463-3.323 12.139-16.55 12.047-29"/></g><path d="M226.702 1287.3c37.596 1.68 168.843.9 232.991-116.68-122.03-32.04-232.991 116.68-232.991 116.68zm228.195-114.28s-191.321 106.86-219.343 110.65m97.387-45.31c-.663.34-37.736.31-37.736.31m59.602-11.26l-60.456-3.36m131.482-35.69c-1.674 1.62-69.995-3.46-69.995-3.46" opacity=".08" stroke="#505666" stroke-width="10" stroke-miterlimit="10" stroke-linecap="round"/></svg>