<svg width="425" height="1119" fill="none" xmlns="http://www.w3.org/2000/svg"><g opacity=".6"><g opacity=".08" stroke="#7D869D" stroke-width="10" stroke-miterlimit="10" stroke-linecap="round"><path d="M159.973 107.193c1.801 20.377 14.688 60.52 51.518 72.698-29.241-.642-38.502 14.177-38.502 14.177s39.322 4.057 59.532 21.734c-8.414 8.746-24.762 9.732-33.527 4.678 19.533 45.311 98.575 33.675 115.261 11.338 16.686-22.336 18.05-72.591-5.434-92.914-23.485-20.323-25.882-35.772-25.882-35.772s-10.239 12.677-.648 35.966c-13.511-28.483-35.402-37.381-44.606-36.031 14.975 14.122 14.911 35.253 13.734 34.07-40.643-40.942-91.446-29.944-91.446-29.944zm68.03 52.243c12.922 12.467 82.07 71.701 112.949 91.238m-81.91-63.819c-9.415-1.736-20.318-.507-26.075 1.599m28.911.691c-1.338-1.7.005-20.587-7.113-27.681"/><path d="M266.973 226.734c8.543-.532 19.72-4.324 25.899-11.974 2.747-3.404 6.002-14.971 3.493-24.424"/></g></g><g opacity=".6"><path d="M209.319 841.546C177.518 862.794 70.503 942.42 88.733 1077.32c119.215-47.2 120.586-235.774 120.586-235.774zM91.215 1072.47s92.371-202.657 113.043-222.619m-52.487 95.714c.336-.679 30.718-22.962 30.718-22.962m-42.036 45.088l51.53-33.635m-86.197 108.364c.395-2.34 59.401-39.3 59.401-39.3" opacity=".08" stroke="#505666" stroke-width="10" stroke-miterlimit="10" stroke-linecap="round"/></g></svg>