<svg width="38" height="38" fill="none" xmlns="http://www.w3.org/2000/svg"><g clip-path="url(#clip0)" fill="#fff" stroke="#fff" stroke-width=".6"><path d="M22.303 3.6A122.814 122.814 0 0119.442.22a.563.563 0 00-.886-.01l-.002.002c-.793.967-1.772 2.12-2.865 3.388C10.88 9.177 4.23 16.877 4.23 23.23 4.23 31.389 10.843 38 19 38s14.77-6.612 14.77-14.77c0-6.34-6.651-14.053-11.467-19.63zm6.342 29.273c-5.328 5.328-13.965 5.329-19.293.002a13.642 13.642 0 01-3.996-9.644c0-5.945 6.488-13.456 11.188-18.894.896-1.038 1.729-1.981 2.454-2.885.725.904 1.557 1.847 2.453 2.885C26.131 9.775 32.64 17.29 32.64 23.231a13.598 13.598 0 01-3.995 9.642z"/><path d="M19.061 32.03v.003a8.557 8.557 0 01-8.56-8.553v-.008a.565.565 0 10-1.13 0c-.004 5.346 4.325 9.682 9.67 9.687h.02a.565.565 0 100-1.13z"/></g><defs><clipPath id="clip0"><path fill="#fff" d="M0 0h38v38H0z"/></clipPath></defs></svg>