<svg width="1883" height="853" fill="none" xmlns="http://www.w3.org/2000/svg"><g opacity=".08" stroke="#7D869D" stroke-width="10" stroke-miterlimit="10" stroke-linecap="round"><path d="M287.44 768.827c-8.68-36.599-36.154-110.635-96.296-152.143-60.143-41.507-108.586-36.386-116.387-26.239-7.801 10.146 3.204 79.542 63.235 123.218 65.485 47.636 149.448 55.164 149.448 55.164zm-10.782-8.264C243.203 727.24 34.393 554.133 7.768 539.869"/><path d="M263.361 718.949l-30.148 2.754.094 31.841m17.947-65.534l-50.352 4.905.972 51.784m23.968-89.876l-57.011 12.435-1.803 56.52m31.556-98.517l-58.689 14.288-4.767 68.82m30.897-102.804l-55.574 11.415-5.617 59.126m10.355-88.49l-29.841 10.127-5.551 28.987"/></g><g opacity=".08" stroke="#7D869D" stroke-width="10" stroke-miterlimit="10" stroke-linecap="round"><path d="M1798.82 795.056c6.04-26.97 5.92-83.932-36.51-114.715 37.39 12.821 55.4-2.456 55.4-2.456s-48.97-21.353-67.75-52.398c14.43-7.806 35.88-2.369 45.1 7.732-6.56-66.341-113.13-83.785-143.78-61.876-30.66 21.908-53.04 86.04-31.13 121.834 21.9 35.795 18.65 56.665 18.65 56.665s18.39-12.119 15.59-46.033c5.71 42.209 30.25 62.642 42.66 64.679-13.49-24.321-4.74-51.495-3.71-49.49 35.54 69.375 105.48 76.058 105.48 76.058zm-66.17-95.159c-11.52-21.348-76.26-125.962-108.01-163.777m79.29 115.749c11.41 6.097 25.96 8.987 34.24 8.637m-36.95-12.747c1.02 2.738-8.46 26.5-2.2 38.55"/><path d="M1710.08 597.283c-11.22-2.82-27.17-2.524-38.26 4.79-4.94 3.254-13.88 16.809-14.53 30.008"/></g><g opacity=".08" stroke="#7D869D" stroke-width="10" stroke-miterlimit="10" stroke-linecap="round"><path d="M74.117 293.205c17.117 5.416 53.986 8.52 76.279-17.221-10.387 23.483-1.506 35.99-1.506 35.99s16.555-30.5 37.695-40.915c4.246 9.771-.472 23.354-7.523 28.752 43.299-.539 60.542-68.53 48.076-89.592-12.466-21.062-52.718-39.128-77.107-26.952-24.388 12.175-37.713 8.904-37.713 8.904s6.816 12.577 28.919 12.663c-27.634 1.338-42.229 16.078-44.24 23.993 16.493-7.371 33.59-.188 32.235.367-46.882 19.123-55.115 64.011-55.115 64.011zm65.28-37.507c14.46-6.266 85.778-42.318 112.025-60.752m-79.339 44.849c-4.584 7.045-7.267 16.296-7.503 21.673m10.313-23.199c-1.829.511-16.677-6.952-24.825-3.577"/><path d="M207.064 246.827c2.452-7.104 3.152-17.443-.962-25.032-1.83-3.376-10.103-9.917-18.608-11.075"/></g><path d="M1802.17 33.79c-29.57 27.526-54.85 57.77-98.53 83.184-43.67 25.414-82.74 78.637-62.2 169.017 93.54-22.823 113.69-97.561 118.87-109.731 5.18-12.169 41.86-142.47 41.86-142.47zm-.79.735c-23.18 35.029-189.05 293.091-199.73 320.631" opacity=".08" stroke="#505666" stroke-width="10" stroke-miterlimit="10" stroke-linecap="round"/></svg>