<svg width="1896" height="4505" fill="none" xmlns="http://www.w3.org/2000/svg"><path opacity=".08" d="M228.079 1265.5h-.024a471.239 471.239 0 01-68.99-7.31c-19.743-3.03-39.713-6.09-57.979-6.76-18.291-.66-34.664 1.09-47.284 7.53l174.277 6.54zm0 0h.024c20.017 0 38.447-3.11 53.254-12.34 14.862-9.27 25.887-24.6 31.29-48.64 6.457-28.68 1.97-52.15-13.679-68.83-18.98-20.52-50.847-27.51-78.089-29.4-7.387-.52-14.467-.65-20.904-.58l.072-.99c4.346-59.43-8.985-102.19-39.53-126.569-31.922-25.493-72.711-22.33-91.791-16.857l-.007.002-.007.002c-7.98 2.374-21.621 7.257-35.042 15.653-13.413 8.391-26.716 20.362-33.835 36.949l-.001.01c-9.162 21.45-6.47 46.4 7.675 74.05l1.623 3.18h.001c18.892 36.88 30.188 58.96 35.779 81.11 5.575 22.09 5.492 44.33 1.357 81.53l-.758 6.81-.308 2.78 2.483-1.28 6.114-3.13 174.279 6.54zm-33.514-159.67c-14.553.45-24.805 1.88-26.052 2.06l-1.49.21.221 1.49 1.083 7.29.215 1.45 1.454-.18c.012 0 .038 0 .079-.01 1.506-.2 22.892-3.06 48.261-1.51 26.169 1.61 56.076 7.89 73.022 26.12 12.978 14 16.887 33.91 11.164 59.49-3.697 16.48-10.284 28.12-19.008 36.21-8.73 8.09-19.714 12.74-32.386 15.04-25.441 4.63-57.297-.25-90.453-5.34l-.377-.06c-19.712-3.03-38.93-5.99-56.663-6.84-16.89-.82-32.558.26-46.131 5.05 3.393-34.38 2.759-56.56-3.194-78.78-6.066-22.64-17.643-45.26-35.856-80.84l-.046-.09h-.001l-1.622-3.19 177.78 22.43zm0 0l-3.485-.26-1.491-.11.104-1.49c3.938-56.43-8.237-95.83-35.645-117.583l-.003-.002c-28.531-22.753-66.38-19.759-82.367-15.025-7.318 2.194-19.82 6.633-32.047 14.183-12.238 7.557-24.08 18.157-30.273 32.617-7.773 18.25-5.34 40.13 7.426 65.24l177.781 22.43zM1724.08 2572.5h-.03c-23.14-.74-46.2-3.18-68.98-7.31-19.75-3.03-39.72-6.09-57.98-6.76-18.3-.66-34.67 1.09-47.29 7.53l174.28 6.54zm0 0h.02c20.02 0 38.45-3.11 53.26-12.34 14.86-9.27 25.88-24.6 31.29-48.64 6.45-28.68 1.97-52.15-13.68-68.83-18.98-20.52-50.85-27.51-78.09-29.4-7.39-.52-14.47-.65-20.91-.58l.08-.99c4.34-59.43-8.99-102.19-39.53-126.57-31.93-25.49-72.71-22.33-91.79-16.86l-.01.01h-.01c-7.98 2.37-21.62 7.25-35.04 15.65-13.41 8.39-26.72 20.36-33.84 36.95v.01c-9.16 21.45-6.47 46.4 7.68 74.05l1.62 3.18h0c18.89 36.88 30.19 58.96 35.78 81.11 5.58 22.09 5.49 44.33 1.36 81.53l-.76 6.81-.31 2.78 2.49-1.28 6.11-3.13 174.28 6.54zm-33.51-159.67c-14.56.45-24.81 1.88-26.06 2.06l-1.49.21.22 1.49 1.09 7.29.21 1.45 1.46-.18c.01 0 .03 0 .08-.01 1.5-.2 22.89-3.06 48.26-1.51 26.16 1.61 56.07 7.89 73.02 26.12 12.98 14 16.89 33.91 11.16 59.49-3.69 16.48-10.28 28.12-19.01 36.21-8.73 8.09-19.71 12.74-32.38 15.04-25.44 4.63-57.3-.25-90.45-5.34l-.38-.06c-19.71-3.03-38.93-5.99-56.67-6.84-16.88-.82-32.55.26-46.13 5.05 3.4-34.38 2.76-56.56-3.19-78.78-6.07-22.64-17.64-45.26-35.86-80.84l-.04-.09h0l-1.63-3.19 177.79 22.43zm0 0l-3.49-.26-1.49-.11.1-1.49c3.94-56.43-8.23-95.83-35.64-117.58v-.01c-28.54-22.75-66.38-19.75-82.37-15.02-7.32 2.19-19.82 6.63-32.05 14.18-12.24 7.56-24.08 18.16-30.27 32.62-7.78 18.25-5.34 40.13 7.42 65.24l177.79 22.43zM903.667 608.64l-31.083 125.789-10.744-2.663-1.457-.361-.36 1.457-7.479 30.254-.36 1.455 1.455.361 308.521 76.524 1.46.361.36-1.458 7.48-30.304.36-1.454-1.46-.361-11.77-2.918c.99-6.587.35-12.22-1.56-17.053-2.34-5.901-6.51-10.465-11.63-14.075-10.16-7.171-24.31-10.76-35.96-13.651v-.001c-43.01-10.664-64.64-40.39-75.55-67.703-10.93-27.351-11.04-52.165-11.04-52.599v-3.637l-1.14-.282-116.227-28.777-1.456-.361-.36 1.457zm110.083 35.251c.22 4.173.85 11.667 2.6 21.027l-17.814 10.755-1.283.775.773 1.283 3.224 5.359.78 1.287 1.28-.777 15.1-9.115c.67 2.726 1.43 5.547 2.29 8.438l-17.1 10.326-1.28.775.77 1.283 3.23 5.359.77 1.287 1.29-.777 15.31-9.243c1.2 3.309 2.55 6.67 4.06 10.048l-15.84 9.563-1.28.775.77 1.283 3.23 5.359.78 1.287 1.28-.777 15.13-9.134a130.35 130.35 0 007.69 12.753l-16.66 10.059-1.28.774.77 1.284 3.23 5.359.77 1.286 1.29-.776 17.43-10.524c11.89 14.76 28.28 27.782 50.86 35.622l-5.51 22.249-208.853-51.77 29.287-118.297 102.906 25.535zm135.84 159.202l-50.2-12.445 5.38-21.758c.8.215 1.61.423 2.42.625 14.03 3.498 26.04 6.607 33.77 12.11 3.81 2.71 6.51 5.956 7.89 10.069 1.05 3.14 1.37 6.876.74 11.399zm11.16 12.28l-3.8 15.271-293.509-72.796 3.761-15.27 293.548 72.795zM378.414 2845.77l1.597 2.67 1.094-2.91 3.408-9.07h.003c9.089-23.71 2.703-48.29-19.861-78.96a98.085 98.085 0 0019.679-57.92v-.01 0c0-33.31-18.056-63.36-47.003-85.03-28.946-21.68-68.856-35.04-112.844-35.04-43.989 0-83.933 13.4-112.914 35.1-28.98 21.69-47.073 51.76-47.073 85.04 0 33.27 18.093 63.34 47.073 85.04 28.981 21.69 68.925 35.09 112.914 35.09 17.7 0 30.941-.99 43.046-3.84 11.995-2.82 22.803-7.44 35.688-14.62 13.926 1.3 28.854 6 41.623 12.55 12.944 6.63 23.471 15.05 28.556 23.54h.001l5.013 8.37zm-77.678-57.12h-.355l-.317.16-1.253.63-.034.01-.032.02c-12.534 7.08-22.566 11.49-33.688 14.15-11.138 2.67-23.449 3.59-40.57 3.59-40.799 0-77.735-12.13-104.435-31.68-26.702-19.55-43.082-46.45-43.082-76.03 0-29.59 16.397-56.49 43.108-76.04 26.709-19.55 63.645-31.68 104.409-31.68 40.762 0 77.681 12.17 104.373 31.73 26.691 19.57 43.07 46.46 43.074 75.98a86.623 86.623 0 01-19.918 53.97l-.007.01-.006.01-2.367 2.93-.75.93.736.93 2.288 2.92.004.01c18.175 23.72 25.669 42.42 23.827 59.08-8.518-8.64-20.149-15.85-32.588-21.21-13.532-5.82-28.127-9.5-40.917-10.42h-1.5zm-50.341-159.17l-.408-1.44-1.445.41-123.681 35.1-1.441.4.407 1.45 2.58 9.13.408 1.44 1.445-.41 123.682-35.09 1.441-.41-.408-1.45-2.58-9.13zm-63.85 62.93l-.447-1.43-1.433.45-49.52 15.49-1.43.45.446 1.43 2.823 9.06.446 1.43 1.434-.44 49.519-15.5 1.43-.45-.446-1.43-2.822-9.06zm126.386-46.37l-.532-1.41-1.404.54-97.936 37.18-1.4.53.529 1.4 3.355 8.88.532 1.4 1.404-.53 97.936-37.18 1.4-.54-.529-1.4-3.355-8.87zm-44.52 60.96l-.578-1.38-1.386.58-101.064 42.32-1.381.58.576 1.38 3.652 8.76.578 1.39 1.386-.58 101.064-42.33 1.381-.58-.576-1.38-3.652-8.76zm10.977 34.89l-.465-1.43-1.427.46-44.256 14.48-1.424.46.464 1.43 2.936 9.01.465 1.43 1.427-.47 44.256-14.47 1.424-.46-.464-1.43-2.936-9.01zm1215.362 992.29l1.55-2.35 5.53-8.38-7.08 10.73zm0 0l-1.09-2.61m1.09 2.61l-1.09-2.61m0 0l-3.75-9.06h-.01c-10.04-23.76-2.97-48.38 21.86-79.01-13.81-16.68-21.42-36.97-21.67-57.92v-.01m3.57 146l-3.57-146m0 0v0m0 0v0m0 0c0-33.38 19.95-63.43 51.83-85.08 31.89-21.64 75.85-34.99 124.3-34.99s92.45 13.38 124.37 35.06c31.92 21.66 51.91 51.73 51.91 85.08 0 33.34-19.99 63.41-51.91 85.08-31.92 21.67-75.92 35.05-124.37 35.05-19.51 0-34.09-.99-47.41-3.83-13.21-2.82-25.13-7.45-39.36-14.63m-89.36-101.74l89.36 101.74m0 0c-15.42 1.29-31.95 6.01-46.08 12.57-14.3 6.65-25.93 15.09-31.54 23.57l77.62-36.14zm2.68-12.66h.33l.29.13 1.39.63.03.02.03.01c13.83 7.08 24.91 11.51 37.21 14.18 12.32 2.67 25.92 3.59 44.81 3.59 45.05 0 85.84-12.15 115.32-31.72 29.49-19.58 47.52-46.47 47.52-75.99 0-29.52-18.05-56.42-47.55-76-29.49-19.57-70.27-31.72-115.29-31.72-45.01 0-85.78 12.18-115.25 31.77-29.48 19.6-47.5 46.49-47.51 75.93.33 19.71 8.06 38.73 21.95 53.93h.01l.01.01 2.61 2.93.87.98-.86 1-2.52 2.92-.01.01c-20.15 23.84-28.36 42.57-26.23 59.24 9.41-8.75 22.34-16.05 36.17-21.45 14.9-5.81 30.97-9.48 45.04-10.4h1.63zm55.68-159.21l.42-1.36 1.38.36 136.4 35.1 1.53.39-.47 1.5-2.85 9.14-.42 1.36-1.38-.36-136.4-35.1-1.53-.39.47-1.5 2.85-9.14zm70.41 62.93l.46-1.34 1.37.39 54.61 15.49 1.53.43-.52 1.5-3.11 9.06-.46 1.34-1.37-.38-54.61-15.5-1.52-.43.51-1.5 3.11-9.06zm-139.37-46.38l.54-1.3 1.33.46 108 37.19 1.52.52-.62 1.47-3.7 8.88-.54 1.3-1.33-.46-108.01-37.19-1.51-.52.62-1.47 3.7-8.88zm49.09 60.96l.59-1.27 1.31.5 111.45 42.32 1.5.57-.67 1.46-4.02 8.76-.59 1.27-1.31-.49-111.45-42.33-1.5-.57.67-1.46 4.02-8.76zm-12.1 34.89l.47-1.33 1.36.4 48.81 14.47 1.52.46-.54 1.49-3.23 9.02-.48 1.33-1.36-.4-48.81-14.48-1.52-.45.54-1.49 3.24-9.02z" fill="#7D869D" stroke="#7D869D" stroke-width="3"/><path d="M73.95 1806.53c12.59 23.6 27.644 44.93 36.481 77.2 8.836 32.27 36.254 66.32 97.586 68.55 1.301-63.74-43.101-89.35-50.008-94.73-6.907-5.39-84.059-51.02-84.059-51.02zm.337.63c18.475 20.79 155.419 170.83 171.228 182.34" opacity=".08" stroke="#505666" stroke-width="10" stroke-miterlimit="10" stroke-linecap="round"/><g opacity=".08" stroke="#7D869D" stroke-width="10" stroke-miterlimit="10" stroke-linecap="round"><path d="M1576.4 165.936c6.62 40.502 30.79 123.201 93.03 173.029 62.24 49.827 115.35 48.002 124.63 37.564 9.27-10.439 2.67-86.814-59.28-138.993-67.58-56.91-158.38-71.6-158.38-71.6zm11.1 9.828c33.83 38.854 247.68 243.406 275.55 260.991"/><path d="M1598.75 222.08l33.02-.663 2.36-34.66m-24.6 69.932l55.18-1.441 2.95-56.432m-33.04 95.956l63-9.12 6.34-61.37m-41.97 104.773l64.98-11.008 10.51-74.527m-41.58 109.489l61.37-8.121 10.69-63.912m-18.12 95.502l33.26-8.711 8.29-31.118"/></g><g opacity=".08" stroke="#505666" stroke-width="10" stroke-miterlimit="10" stroke-linecap="round"><path d="M1839.32 4047.64c-23.38-1.45-71.05 6.27-91.14 45.92 5.73-33.02-9.47-46.05-9.47-46.05s-11.32 43.85-34.8 63.72c-8.47-11.03-6.79-29.72.44-38.79-54.66 14.37-55.01 105.92-32.56 128.65 22.44 22.73 79.12 32.88 106.15 9.76 27.04-23.13 44.94-23.2 44.94-23.2s-12.6-13.77-40.62-6.89c34.57-10.43 48.39-33.71 48.44-44.37-18.56 14.55-42.48 10.86-40.94 9.72 53.33-39.03 49.56-98.47 49.56-98.47zm-70.8 68.12c-16.33 12.51-95.25 80.7-122.66 112.34m86.29-81.86c3.58-10.38 4.05-22.94 2.65-29.82m-5.72 32.63c2.15-1.22 23.31 3.54 32.56-3.31"/><path d="M1685.63 4148.39c-.86 9.77 1.53 23.08 9.13 31.39 3.39 3.7 15.93 9.37 27.07 8.14"/></g><path d="M340.048 4496.49c-12.595-35.47-62.725-156.77-195.808-171.93 16.258 125.11 195.808 171.93 195.808 171.93zM148.269 4328.1s171.024 137.02 185.077 161.55m-78.634-73.16c.567.48 14.491 34.84 14.491 34.84m-32.866-50.98l19.65 57.27m-82.567-108.37c2.134.94 23.15 66.14 23.15 66.14" opacity=".08" stroke="#505666" stroke-width="10" stroke-miterlimit="10" stroke-linecap="round"/><g opacity=".08" stroke="#7D869D" stroke-width="10" stroke-miterlimit="10" stroke-linecap="round"><path d="M22.657 3659.85c4.036 22.46 22.37 65.79 64.529 75.63-32.572 2.22-41.389 19.61-41.389 19.61s44.12.58 68.352 18.2c-8.481 10.56-26.558 13.29-36.806 8.55 26.237 48.41 112.948 27.56 129.269 1.07 16.32-26.5 12.822-82.48-15.315-102.72-28.136-20.23-32.342-37.16-32.342-37.16s-10.119 15.11 2.869 40.03c-17.864-30.3-43.088-38-53.186-35.58 18.058 14.2 20.096 37.69 18.669 36.49-49.269-41.43-104.65-24.12-104.65-24.12zm80.844 51.25c15.611 12.56 98.393 71.47 134.671 90.09m-97.427-62.72c-10.641-.99-22.639 1.47-28.829 4.38m32.211-2.12c-1.657-1.76-2.05-22.88-10.67-30.06"/><path d="M153.539 3781.99c9.445-1.45 21.493-6.78 27.597-15.9 2.715-4.06 5.179-17.24 1.447-27.49"/></g><g opacity=".08" stroke="#7D869D" stroke-width="10" stroke-miterlimit="10" stroke-linecap="round"><path d="M45.372 222.35c-1.957 24.947 5.457 75.982 47.434 98.13-35.157-6.696-49.338 9.305-49.338 9.305s46.63 12.858 67.437 38.275c-11.927 8.845-31.856 6.724-41.409-1.147 14.387 58.615 112.133 60.585 136.797 37.019 24.664-23.566 36.498-83.913 12.277-113.185-24.221-29.272-23.981-48.394-23.981-48.394s-14.927 13.22-8.074 43.256c-10.53-37.096-35.144-52.263-46.526-52.498 15.21 20.068 10.849 45.546 9.668 43.881-40.747-57.62-104.285-54.642-104.285-54.642zm71.507 76.8c13.068 17.655 84.504 103.113 117.808 132.934m-85.909-93.571c-11.011-4.002-24.417-4.727-31.792-3.352m34.749 6.687c-1.27-2.322 4.179-24.834-2.972-34.832"/><path d="M150.262 388.224c10.417 1.088 24.675-1.222 33.682-9.2 4.005-3.549 10.278-16.844 9.167-28.756"/></g><path d="M835.79 144.621c21.933-9.248 42.049-20.866 71.363-26.088 29.313-5.222 61.708-26.766 68.64-80.939-56.384-6.307-82.668 30.972-87.998 36.658-5.331 5.686-52.005 70.369-52.005 70.369zm.585-.248c19.922-14.691 163.955-123.921 175.435-137M42.682 2424.4c42.829-15 189.358-74.81 208.343-235.21-150.951 18.95-208.343 235.21-208.343 235.21zm204.054-230.37s-166.12 205.51-195.781 222.33m88.641-94.44c-.588.68-42.093 17.29-42.093 17.29m61.645-39.36l-69.163 23.39m131.114-98.99c-1.145 2.57-79.883 27.57-79.883 27.57m1715.144-310.33c-44.17 10.68-196.11 55.69-230.99 213.6 152.28-3.85 230.99-213.6 230.99-213.6zm-226.23 209.21s185.96-188.21 217.18-202.02m-97.71 85.27c.66-.62 43.66-13.04 43.66-13.04m-65.33 33.08l71.23-16.42m-140.48 85.57c1.39-2.44 82.33-19.51 82.33-19.51" opacity=".08" stroke="#505666" stroke-width="10" stroke-miterlimit="10" stroke-linecap="round"/></svg>