<svg width="1896" height="4505" viewBox="0 0 1896 4505" fill="none" xmlns="http://www.w3.org/2000/svg">
<path opacity="0.08" d="M228.079 1265.5L228.055 1265.5C204.909 1264.76 181.85 1262.32 159.065 1258.19C139.322 1255.16 119.352 1252.1 101.086 1251.43C82.7949 1250.77 66.4218 1252.52 53.8023 1258.96L228.079 1265.5ZM228.079 1265.5H228.103C248.12 1265.5 266.55 1262.39 281.357 1253.16C296.219 1243.89 307.244 1228.56 312.647 1204.52C319.104 1175.84 314.617 1152.37 298.968 1135.69C279.988 1115.17 248.121 1108.18 220.879 1106.29C213.492 1105.77 206.412 1105.64 199.975 1105.71L200.047 1104.72C204.393 1045.29 191.062 1002.53 160.517 978.151C128.595 952.658 87.8057 955.821 68.7256 961.294L68.7186 961.296L68.7116 961.298C60.7324 963.672 47.0907 968.555 33.6702 976.951C20.2569 985.342 6.95364 997.313 -0.165475 1013.9L-0.166461 1013.91C-9.32782 1035.36 -6.63679 1060.31 7.50925 1087.96L9.13172 1091.14L9.13328 1091.14C28.0246 1128.02 39.3206 1150.1 44.912 1172.25C50.487 1194.34 50.4044 1216.58 46.2693 1253.78L45.5115 1260.59L45.2028 1263.37L47.6863 1262.09L53.8005 1258.96L228.079 1265.5ZM194.565 1105.83C180.012 1106.28 169.76 1107.71 168.513 1107.89L167.023 1108.1L167.244 1109.59L168.327 1116.88L168.542 1118.33L169.996 1118.15C170.008 1118.15 170.034 1118.15 170.075 1118.14C171.581 1117.94 192.967 1115.08 218.336 1116.63C244.505 1118.24 274.412 1124.52 291.358 1142.75C304.336 1156.75 308.245 1176.66 302.522 1202.24C298.825 1218.72 292.238 1230.36 283.514 1238.45C274.784 1246.54 263.8 1251.19 251.128 1253.49C225.687 1258.12 193.831 1253.24 160.675 1248.15L160.298 1248.09C140.586 1245.06 121.368 1242.1 103.635 1241.25C86.7456 1240.43 71.0767 1241.51 57.5038 1246.3C60.8974 1211.92 60.2628 1189.74 54.3102 1167.52C48.2437 1144.88 36.6675 1122.26 18.4536 1086.68L18.408 1086.59L18.4067 1086.59L16.7849 1083.4L194.565 1105.83ZM194.565 1105.83L191.08 1105.57L189.589 1105.46L189.693 1103.97C193.631 1047.54 181.456 1008.14 154.048 986.387L154.045 986.385C125.514 963.632 87.6658 966.626 71.6782 971.36C64.3596 973.554 51.8584 977.993 39.6311 985.543C27.3932 993.1 15.5505 1003.7 9.35812 1018.16C1.58465 1036.41 4.01882 1058.29 16.7843 1083.4L194.565 1105.83Z" fill="#7D869D" stroke="#7D869D" stroke-width="3"/>
<path opacity="0.08" d="M1724.08 2572.5L1724.05 2572.5C1700.91 2571.76 1677.85 2569.32 1655.07 2565.19C1635.32 2562.16 1615.35 2559.1 1597.09 2558.43C1578.79 2557.77 1562.42 2559.52 1549.8 2565.96L1724.08 2572.5ZM1724.08 2572.5H1724.1C1744.12 2572.5 1762.55 2569.39 1777.36 2560.16C1792.22 2550.89 1803.24 2535.56 1808.65 2511.52C1815.1 2482.84 1810.62 2459.37 1794.97 2442.69C1775.99 2422.17 1744.12 2415.18 1716.88 2413.29C1709.49 2412.77 1702.41 2412.64 1695.97 2412.71L1696.05 2411.72C1700.39 2352.29 1687.06 2309.53 1656.52 2285.15C1624.59 2259.66 1583.81 2262.82 1564.73 2268.29L1564.72 2268.3L1564.71 2268.3C1556.73 2270.67 1543.09 2275.55 1529.67 2283.95C1516.26 2292.34 1502.95 2304.31 1495.83 2320.9L1495.83 2320.91C1486.67 2342.36 1489.36 2367.31 1503.51 2394.96L1505.13 2398.14L1505.13 2398.14C1524.02 2435.02 1535.32 2457.1 1540.91 2479.25C1546.49 2501.34 1546.4 2523.58 1542.27 2560.78L1541.51 2567.59L1541.2 2570.37L1543.69 2569.09L1549.8 2565.96L1724.08 2572.5ZM1690.57 2412.83C1676.01 2413.28 1665.76 2414.71 1664.51 2414.89L1663.02 2415.1L1663.24 2416.59L1664.33 2423.88L1664.54 2425.33L1666 2425.15C1666.01 2425.15 1666.03 2425.15 1666.08 2425.14C1667.58 2424.94 1688.97 2422.08 1714.34 2423.63C1740.5 2425.24 1770.41 2431.52 1787.36 2449.75C1800.34 2463.75 1804.25 2483.66 1798.52 2509.24C1794.83 2525.72 1788.24 2537.36 1779.51 2545.45C1770.78 2553.54 1759.8 2558.19 1747.13 2560.49C1721.69 2565.12 1689.83 2560.24 1656.68 2555.15L1656.3 2555.09C1636.59 2552.06 1617.37 2549.1 1599.63 2548.25C1582.75 2547.43 1567.08 2548.51 1553.5 2553.3C1556.9 2518.92 1556.26 2496.74 1550.31 2474.52C1544.24 2451.88 1532.67 2429.26 1514.45 2393.68L1514.41 2393.59L1514.41 2393.59L1512.78 2390.4L1690.57 2412.83ZM1690.57 2412.83L1687.08 2412.57L1685.59 2412.46L1685.69 2410.97C1689.63 2354.54 1677.46 2315.14 1650.05 2293.39L1650.05 2293.38C1621.51 2270.63 1583.67 2273.63 1567.68 2278.36C1560.36 2280.55 1547.86 2284.99 1535.63 2292.54C1523.39 2300.1 1511.55 2310.7 1505.36 2325.16C1497.58 2343.41 1500.02 2365.29 1512.78 2390.4L1690.57 2412.83Z" fill="#7D869D" stroke="#7D869D" stroke-width="3"/>
<path opacity="0.08" d="M903.667 608.64L872.584 734.429L861.84 731.766L860.383 731.405L860.023 732.862L852.544 763.116L852.184 764.571L853.639 764.932L1162.16 841.456L1163.62 841.817L1163.98 840.359L1171.46 810.055L1171.82 808.601L1170.36 808.24L1158.59 805.322C1159.58 798.735 1158.94 793.102 1157.03 788.269C1154.69 782.368 1150.52 777.804 1145.4 774.194C1135.24 767.023 1121.09 763.434 1109.44 760.543L1109.44 760.542C1066.43 749.878 1044.8 720.152 1033.89 692.839C1022.96 665.488 1022.85 640.674 1022.85 640.24V637.777V636.603L1021.71 636.321L905.483 607.544L904.027 607.183L903.667 608.64ZM1013.75 643.891C1013.97 648.064 1014.6 655.558 1016.35 664.918L998.536 675.673L997.253 676.448L998.026 677.731L1001.25 683.09L1002.03 684.377L1003.31 683.6L1018.41 674.485C1019.08 677.211 1019.84 680.032 1020.7 682.923L1003.6 693.249L1002.32 694.024L1003.09 695.307L1006.32 700.666L1007.09 701.953L1008.38 701.176L1023.69 691.933C1024.89 695.242 1026.24 698.603 1027.75 701.981L1011.91 711.544L1010.63 712.319L1011.4 713.602L1014.63 718.961L1015.41 720.248L1016.69 719.471L1031.82 710.337C1034.09 714.628 1036.64 718.903 1039.51 723.09L1022.85 733.149L1021.57 733.923L1022.34 735.207L1025.57 740.566L1026.34 741.852L1027.63 741.076L1045.06 730.552C1056.95 745.312 1073.34 758.334 1095.92 766.174L1090.41 788.423L881.557 736.653L910.844 618.356L1013.75 643.891ZM1149.59 803.093L1099.39 790.648L1104.77 768.89C1105.57 769.105 1106.38 769.313 1107.19 769.515C1121.22 773.013 1133.23 776.122 1140.96 781.625C1144.77 784.335 1147.47 787.581 1148.85 791.694C1149.9 794.834 1150.22 798.57 1149.59 803.093ZM1160.75 815.373L1156.95 830.644L863.441 757.848L867.202 742.578L1160.75 815.373Z" fill="#7D869D" stroke="#7D869D" stroke-width="3"/>
<path opacity="0.08" d="M378.414 2845.77L380.011 2848.44L381.105 2845.53L384.513 2836.46C384.514 2836.46 384.515 2836.46 384.516 2836.46C393.605 2812.75 387.219 2788.17 364.655 2757.5C377.212 2740.8 384.114 2720.51 384.334 2699.58L384.334 2699.57V2699.57C384.334 2666.26 366.278 2636.21 337.331 2614.54C308.385 2592.86 268.475 2579.5 224.487 2579.5C180.498 2579.5 140.554 2592.9 111.573 2614.6C82.5927 2636.29 64.5 2666.36 64.5 2699.64C64.5 2732.91 82.5927 2762.98 111.573 2784.68C140.554 2806.37 180.498 2819.77 224.487 2819.77C242.187 2819.77 255.428 2818.78 267.533 2815.93C279.528 2813.11 290.336 2808.49 303.221 2801.31C317.147 2802.61 332.075 2807.31 344.844 2813.86C357.788 2820.49 368.315 2828.91 373.4 2837.4C373.4 2837.4 373.4 2837.4 373.401 2837.4L378.414 2845.77ZM300.736 2788.65H300.381L300.064 2788.81L298.811 2789.44L298.777 2789.45L298.745 2789.47C286.211 2796.55 276.179 2800.96 265.057 2803.62C253.919 2806.29 241.608 2807.21 224.487 2807.21C183.688 2807.21 146.752 2795.08 120.052 2775.53C93.3504 2755.98 76.9702 2729.08 76.9702 2699.5C76.9702 2669.91 93.3672 2643.01 120.078 2623.46C146.787 2603.91 183.723 2591.78 224.487 2591.78C265.249 2591.78 302.168 2603.95 328.86 2623.51C355.551 2643.08 371.93 2669.97 371.934 2699.49C371.635 2719.23 364.607 2738.27 352.016 2753.46L352.009 2753.47L352.003 2753.48L349.636 2756.41L348.886 2757.34L349.622 2758.27L351.91 2761.19C351.911 2761.19 351.913 2761.2 351.914 2761.2C370.089 2784.92 377.583 2803.62 375.741 2820.28C367.223 2811.64 355.592 2804.43 343.153 2799.07C329.621 2793.25 315.026 2789.57 302.236 2788.65L302.183 2788.65H302.129H300.736ZM250.395 2629.48L249.987 2628.04L248.542 2628.45L124.861 2663.55L123.42 2663.95L123.827 2665.4L126.407 2674.53L126.815 2675.97L128.26 2675.56L251.942 2640.47L253.383 2640.06L252.975 2638.61L250.395 2629.48ZM186.545 2692.41L186.098 2690.98L184.665 2691.43L135.145 2706.92L133.715 2707.37L134.161 2708.8L136.984 2717.86L137.43 2719.29L138.864 2718.85L188.383 2703.35L189.813 2702.9L189.367 2701.47L186.545 2692.41ZM312.931 2646.04L312.399 2644.63L310.995 2645.17L213.059 2682.35L211.659 2682.88L212.188 2684.28L215.543 2693.16L216.075 2694.56L217.479 2694.03L315.415 2656.85L316.815 2656.31L316.286 2654.91L312.931 2646.04ZM268.411 2707L267.833 2705.62L266.447 2706.2L165.383 2748.52L164.002 2749.1L164.578 2750.48L168.23 2759.24L168.808 2760.63L170.194 2760.05L271.258 2717.72L272.639 2717.14L272.063 2715.76L268.411 2707ZM279.388 2741.89L278.923 2740.46L277.496 2740.92L233.24 2755.4L231.816 2755.86L232.28 2757.29L235.216 2766.3L235.681 2767.73L237.108 2767.26L281.364 2752.79L282.788 2752.33L282.324 2750.9L279.388 2741.89Z" fill="#7D869D" stroke="#7D869D" stroke-width="3"/>
<path opacity="0.08" d="M1494.75 3734.18L1496.3 3731.83L1501.83 3723.45L1494.75 3734.18ZM1494.75 3734.18L1493.66 3731.57M1494.75 3734.18L1493.66 3731.57M1493.66 3731.57L1489.91 3722.51C1489.9 3722.51 1489.9 3722.51 1489.9 3722.51C1479.86 3698.75 1486.93 3674.13 1511.76 3643.5C1497.95 3626.82 1490.34 3606.53 1490.09 3585.58L1490.09 3585.57M1493.66 3731.57L1490.09 3585.57M1490.09 3585.57V3585.57M1490.09 3585.57V3585.57M1490.09 3585.57C1490.09 3552.19 1510.04 3522.14 1541.92 3500.49C1573.81 3478.85 1617.77 3465.5 1666.22 3465.5C1714.67 3465.5 1758.67 3478.88 1790.59 3500.56C1822.51 3522.22 1842.5 3552.29 1842.5 3585.64C1842.5 3618.98 1822.51 3649.05 1790.59 3670.72C1758.67 3692.39 1714.67 3705.77 1666.22 3705.77C1646.71 3705.77 1632.13 3704.78 1618.81 3701.94C1605.6 3699.12 1593.68 3694.49 1579.45 3687.31M1490.09 3585.57L1579.45 3687.31M1579.45 3687.31C1564.03 3688.6 1547.5 3693.32 1533.37 3699.88C1519.07 3706.53 1507.44 3714.97 1501.83 3723.45L1579.45 3687.31ZM1582.13 3674.65H1582.46L1582.75 3674.78L1584.14 3675.41L1584.17 3675.43L1584.2 3675.44C1598.03 3682.52 1609.11 3686.95 1621.41 3689.62C1633.73 3692.29 1647.33 3693.21 1666.22 3693.21C1711.27 3693.21 1752.06 3681.06 1781.54 3661.49C1811.03 3641.91 1829.06 3615.02 1829.06 3585.5C1829.06 3555.98 1811.01 3529.08 1781.51 3509.5C1752.02 3489.93 1711.24 3477.78 1666.22 3477.78C1621.21 3477.78 1580.44 3489.96 1550.97 3509.55C1521.49 3529.15 1503.47 3556.04 1503.46 3585.48C1503.79 3605.19 1511.52 3624.21 1525.41 3639.41L1525.42 3639.41L1525.43 3639.42L1528.04 3642.35L1528.91 3643.33L1528.05 3644.33L1525.53 3647.25C1525.53 3647.25 1525.53 3647.25 1525.52 3647.26C1505.37 3671.1 1497.16 3689.83 1499.29 3706.5C1508.7 3697.75 1521.63 3690.45 1535.46 3685.05C1550.36 3679.24 1566.43 3675.57 1580.5 3674.65L1580.55 3674.65H1580.6H1582.13ZM1637.81 3515.44L1638.23 3514.08L1639.61 3514.44L1776.01 3549.54L1777.54 3549.93L1777.07 3551.43L1774.22 3560.57L1773.8 3561.93L1772.42 3561.57L1636.02 3526.47L1634.49 3526.08L1634.96 3524.58L1637.81 3515.44ZM1708.22 3578.37L1708.68 3577.03L1710.05 3577.42L1764.66 3592.91L1766.19 3593.34L1765.67 3594.84L1762.56 3603.9L1762.1 3605.24L1760.73 3604.86L1706.12 3589.36L1704.6 3588.93L1705.11 3587.43L1708.22 3578.37ZM1568.85 3531.99L1569.39 3530.69L1570.72 3531.15L1678.72 3568.34L1680.24 3568.86L1679.62 3570.33L1675.92 3579.21L1675.38 3580.51L1674.05 3580.05L1566.04 3542.86L1564.53 3542.34L1565.15 3540.87L1568.85 3531.99ZM1617.94 3592.95L1618.53 3591.68L1619.84 3592.18L1731.29 3634.5L1732.79 3635.07L1732.12 3636.53L1728.1 3645.29L1727.51 3646.56L1726.2 3646.07L1614.75 3603.74L1613.25 3603.17L1613.92 3601.71L1617.94 3592.95ZM1605.84 3627.84L1606.31 3626.51L1607.67 3626.91L1656.48 3641.38L1658 3641.84L1657.46 3643.33L1654.23 3652.35L1653.75 3653.68L1652.39 3653.28L1603.58 3638.8L1602.06 3638.35L1602.6 3636.86L1605.84 3627.84Z" fill="#7D869D" stroke="#7D869D" stroke-width="3"/>
<g opacity="0.08">
<path d="M73.9502 1806.53C86.5391 1830.13 101.594 1851.46 110.431 1883.73C119.267 1916 146.685 1950.05 208.017 1952.28C209.318 1888.54 164.916 1862.93 158.009 1857.55C151.102 1852.16 73.9502 1806.53 73.9502 1806.53Z" stroke="#505666" stroke-width="10" stroke-miterlimit="10" stroke-linecap="round"/>
<path d="M74.2871 1807.16C92.7617 1827.95 229.706 1977.99 245.515 1989.5" stroke="#505666" stroke-width="10" stroke-miterlimit="10" stroke-linecap="round"/>
</g>
<g opacity="0.08">
<path d="M1576.4 165.936C1583.02 206.438 1607.19 289.137 1669.43 338.965C1731.67 388.792 1784.78 386.967 1794.06 376.529C1803.33 366.09 1796.73 289.715 1734.78 237.536C1667.2 180.626 1576.4 165.936 1576.4 165.936Z" stroke="#7D869D" stroke-width="10" stroke-miterlimit="10" stroke-linecap="round"/>
<path d="M1587.5 175.764C1621.33 214.618 1835.18 419.17 1863.05 436.755" stroke="#7D869D" stroke-width="10" stroke-miterlimit="10" stroke-linecap="round"/>
<path d="M1598.75 222.08L1631.77 221.417L1634.13 186.757" stroke="#7D869D" stroke-width="10" stroke-miterlimit="10" stroke-linecap="round"/>
<path d="M1609.53 256.689L1664.71 255.248L1667.66 198.816" stroke="#7D869D" stroke-width="10" stroke-miterlimit="10" stroke-linecap="round"/>
<path d="M1634.62 294.772L1697.62 285.652L1703.96 224.282" stroke="#7D869D" stroke-width="10" stroke-miterlimit="10" stroke-linecap="round"/>
<path d="M1661.99 329.055L1726.97 318.047L1737.48 243.52" stroke="#7D869D" stroke-width="10" stroke-miterlimit="10" stroke-linecap="round"/>
<path d="M1695.9 353.009L1757.27 344.888L1767.96 280.976" stroke="#7D869D" stroke-width="10" stroke-miterlimit="10" stroke-linecap="round"/>
<path d="M1749.84 376.478L1783.1 367.767L1791.39 336.649" stroke="#7D869D" stroke-width="10" stroke-miterlimit="10" stroke-linecap="round"/>
</g>
<g opacity="0.08">
<path d="M1839.32 4047.64C1815.94 4046.19 1768.27 4053.91 1748.18 4093.56C1753.91 4060.54 1738.71 4047.51 1738.71 4047.51C1738.71 4047.51 1727.39 4091.36 1703.91 4111.23C1695.44 4100.2 1697.12 4081.51 1704.35 4072.44C1649.69 4086.81 1649.34 4178.36 1671.79 4201.09C1694.23 4223.82 1750.91 4233.97 1777.94 4210.85C1804.98 4187.72 1822.88 4187.65 1822.88 4187.65C1822.88 4187.65 1810.28 4173.88 1782.26 4180.76C1816.83 4170.33 1830.65 4147.05 1830.7 4136.39C1812.14 4150.94 1788.22 4147.25 1789.76 4146.11C1843.09 4107.08 1839.32 4047.64 1839.32 4047.64Z" stroke="#505666" stroke-width="10" stroke-miterlimit="10" stroke-linecap="round"/>
<path d="M1768.52 4115.76C1752.19 4128.27 1673.27 4196.46 1645.86 4228.1" stroke="#505666" stroke-width="10" stroke-miterlimit="10" stroke-linecap="round"/>
<path d="M1732.15 4146.24C1735.73 4135.86 1736.2 4123.3 1734.8 4116.42" stroke="#505666" stroke-width="10" stroke-miterlimit="10" stroke-linecap="round"/>
<path d="M1729.08 4149.05C1731.23 4147.83 1752.39 4152.59 1761.64 4145.74" stroke="#505666" stroke-width="10" stroke-miterlimit="10" stroke-linecap="round"/>
<path d="M1685.63 4148.39C1684.77 4158.16 1687.16 4171.47 1694.76 4179.78C1698.15 4183.48 1710.69 4189.15 1721.83 4187.92" stroke="#505666" stroke-width="10" stroke-miterlimit="10" stroke-linecap="round"/>
</g>
<g opacity="0.08">
<path d="M340.048 4496.49C327.453 4461.02 277.323 4339.72 144.24 4324.56C160.498 4449.67 340.048 4496.49 340.048 4496.49Z" stroke="#505666" stroke-width="10" stroke-miterlimit="10" stroke-linecap="round"/>
<path d="M148.269 4328.1C148.269 4328.1 319.293 4465.12 333.346 4489.65" stroke="#505666" stroke-width="10" stroke-miterlimit="10" stroke-linecap="round"/>
<path d="M254.712 4416.49C255.279 4416.97 269.203 4451.33 269.203 4451.33" stroke="#505666" stroke-width="10" stroke-miterlimit="10" stroke-linecap="round"/>
<path d="M236.337 4400.35L255.987 4457.62" stroke="#505666" stroke-width="10" stroke-miterlimit="10" stroke-linecap="round"/>
<path d="M173.42 4349.25C175.554 4350.19 196.57 4415.39 196.57 4415.39" stroke="#505666" stroke-width="10" stroke-miterlimit="10" stroke-linecap="round"/>
</g>
<g opacity="0.08">
<path d="M22.657 3659.85C26.6934 3682.31 45.0263 3725.64 87.1857 3735.48C54.6141 3737.7 45.7974 3755.09 45.7974 3755.09C45.7974 3755.09 89.9167 3755.67 114.149 3773.29C105.668 3783.85 87.5914 3786.58 77.343 3781.84C103.58 3830.25 190.291 3809.4 206.612 3782.91C222.932 3756.41 219.434 3700.43 191.297 3680.19C163.161 3659.96 158.955 3643.03 158.955 3643.03C158.955 3643.03 148.836 3658.14 161.824 3683.06C143.96 3652.76 118.736 3645.06 108.638 3647.48C126.696 3661.68 128.734 3685.17 127.307 3683.97C78.0381 3642.54 22.657 3659.85 22.657 3659.85Z" stroke="#7D869D" stroke-width="10" stroke-miterlimit="10" stroke-linecap="round"/>
<path d="M103.501 3711.1C119.112 3723.66 201.894 3782.57 238.172 3801.19" stroke="#7D869D" stroke-width="10" stroke-miterlimit="10" stroke-linecap="round"/>
<path d="M140.745 3738.47C130.104 3737.48 118.106 3739.94 111.916 3742.85" stroke="#7D869D" stroke-width="10" stroke-miterlimit="10" stroke-linecap="round"/>
<path d="M144.127 3740.73C142.47 3738.97 142.077 3717.85 133.457 3710.67" stroke="#7D869D" stroke-width="10" stroke-miterlimit="10" stroke-linecap="round"/>
<path d="M153.539 3781.99C162.984 3780.54 175.032 3775.21 181.136 3766.09C183.851 3762.03 186.315 3748.85 182.583 3738.6" stroke="#7D869D" stroke-width="10" stroke-miterlimit="10" stroke-linecap="round"/>
</g>
<g opacity="0.08">
<path d="M45.3722 222.35C43.4153 247.297 50.8291 298.332 92.8059 320.48C57.6487 313.784 43.4684 329.785 43.4684 329.785C43.4684 329.785 90.0986 342.643 110.905 368.06C98.9777 376.905 79.0489 374.784 69.4961 366.913C83.8826 425.528 181.629 427.498 206.293 403.932C230.957 380.366 242.791 320.019 218.57 290.747C194.349 261.475 194.589 242.353 194.589 242.353C194.589 242.353 179.662 255.573 186.515 285.609C175.985 248.513 151.371 233.346 139.989 233.111C155.199 253.179 150.838 278.657 149.657 276.992C108.91 219.372 45.3722 222.35 45.3722 222.35Z" stroke="#7D869D" stroke-width="10" stroke-miterlimit="10" stroke-linecap="round"/>
<path d="M116.879 299.15C129.947 316.805 201.383 402.263 234.687 432.084" stroke="#7D869D" stroke-width="10" stroke-miterlimit="10" stroke-linecap="round"/>
<path d="M148.778 338.513C137.767 334.511 124.361 333.786 116.986 335.161" stroke="#7D869D" stroke-width="10" stroke-miterlimit="10" stroke-linecap="round"/>
<path d="M151.735 341.848C150.465 339.526 155.914 317.014 148.763 307.016" stroke="#7D869D" stroke-width="10" stroke-miterlimit="10" stroke-linecap="round"/>
<path d="M150.262 388.224C160.679 389.312 174.937 387.002 183.944 379.024C187.949 375.475 194.222 362.18 193.111 350.268" stroke="#7D869D" stroke-width="10" stroke-miterlimit="10" stroke-linecap="round"/>
</g>
<g opacity="0.08">
<path d="M835.79 144.621C857.723 135.373 877.839 123.755 907.153 118.533C936.466 113.311 968.861 91.7671 975.793 37.5942C919.409 31.2871 893.125 68.5664 887.795 74.2521C882.464 79.9378 835.79 144.621 835.79 144.621Z" stroke="#505666" stroke-width="10" stroke-miterlimit="10" stroke-linecap="round"/>
<path d="M836.375 144.373C856.297 129.682 1000.33 20.4518 1011.81 7.3736" stroke="#505666" stroke-width="10" stroke-miterlimit="10" stroke-linecap="round"/>
</g>
<g opacity="0.08">
<path d="M42.6816 2424.4C85.511 2409.4 232.04 2349.59 251.025 2189.19C100.074 2208.14 42.6816 2424.4 42.6816 2424.4Z" stroke="#505666" stroke-width="10" stroke-miterlimit="10" stroke-linecap="round"/>
<path d="M246.736 2194.03C246.736 2194.03 80.6155 2399.54 50.9545 2416.36" stroke="#505666" stroke-width="10" stroke-miterlimit="10" stroke-linecap="round"/>
<path d="M139.596 2321.92C139.008 2322.6 97.5029 2339.21 97.5029 2339.21" stroke="#505666" stroke-width="10" stroke-miterlimit="10" stroke-linecap="round"/>
<path d="M159.148 2299.85L89.9847 2323.24" stroke="#505666" stroke-width="10" stroke-miterlimit="10" stroke-linecap="round"/>
<path d="M221.099 2224.25C219.954 2226.82 141.216 2251.82 141.216 2251.82" stroke="#505666" stroke-width="10" stroke-miterlimit="10" stroke-linecap="round"/>
</g>
<g opacity="0.08">
<path d="M1856.36 1941.49C1812.19 1952.17 1660.25 1997.18 1625.37 2155.09C1777.65 2151.24 1856.36 1941.49 1856.36 1941.49Z" stroke="#505666" stroke-width="10" stroke-miterlimit="10" stroke-linecap="round"/>
<path d="M1630.13 2150.7C1630.13 2150.7 1816.09 1962.49 1847.31 1948.68" stroke="#505666" stroke-width="10" stroke-miterlimit="10" stroke-linecap="round"/>
<path d="M1749.6 2033.95C1750.26 2033.33 1793.26 2020.91 1793.26 2020.91" stroke="#505666" stroke-width="10" stroke-miterlimit="10" stroke-linecap="round"/>
<path d="M1727.93 2053.99L1799.16 2037.57" stroke="#505666" stroke-width="10" stroke-miterlimit="10" stroke-linecap="round"/>
<path d="M1658.68 2123.14C1660.07 2120.7 1741.01 2103.63 1741.01 2103.63" stroke="#505666" stroke-width="10" stroke-miterlimit="10" stroke-linecap="round"/>
</g>
</svg>
