<svg width="101" height="101" fill="none" xmlns="http://www.w3.org/2000/svg"><g opacity=".2" clip-path="url(#clip0)" fill="#505666"><path d="M100.362 14.69a2.915 2.915 0 00-2.275-1.094H20.546l-2.169-9.395a2.914 2.914 0 00-2.839-2.259H2.913a2.914 2.914 0 000 5.827h10.308l14.718 63.78a2.914 2.914 0 002.839 2.259h58.374a2.913 2.913 0 000-5.827H33.096l-2.241-9.712h58.491a2.913 2.913 0 002.843-2.273l8.74-38.847a2.914 2.914 0 00-.567-2.46zm-57.63 63.002c-5.89 0-10.683 4.793-10.683 10.683s4.792 10.683 10.683 10.683c5.89 0 10.682-4.792 10.682-10.683 0-5.89-4.792-10.683-10.682-10.683zm34.96 0c-5.89 0-10.682 4.793-10.682 10.683s4.792 10.683 10.682 10.683c5.89 0 10.683-4.792 10.683-10.683 0-5.89-4.792-10.683-10.683-10.683z"/></g><defs><clipPath id="clip0"><path fill="#fff" d="M0 0h101v101H0z"/></clipPath></defs></svg>