<svg width="70" height="70" fill="none" xmlns="http://www.w3.org/2000/svg"><path d="M.298 7.4C.607 3.087 4.273 0 8.596 0h15.16c4.164 0 7.671 2.886 7.96 7.04C31.88 9.384 32 12.351 32 16c0 3.649-.12 6.616-.284 8.96-.289 4.154-3.796 7.04-7.96 7.04H8.596c-4.323 0-7.99-3.087-8.298-7.4C.128 22.226 0 19.334 0 16c0-3.334.128-6.226.298-8.6z" fill="#09409D"/><path d="M.298 45.4C.607 41.087 4.273 38 8.596 38h15.16c4.164 0 7.671 2.886 7.96 7.04.163 2.344.284 5.311.284 8.96 0 3.649-.12 6.616-.284 8.96-.289 4.154-3.796 7.04-7.96 7.04H8.596c-4.323 0-7.99-3.087-8.298-7.4C.128 60.226 0 57.334 0 54c0-3.334.128-6.226.298-8.6z" fill="#E72B27"/><path d="M38.298 30.4c.308-4.313 3.974-7.4 8.298-7.4h15.16c4.164 0 7.671 2.886 7.96 7.04.163 2.344.284 5.311.284 8.96 0 3.649-.12 6.616-.284 8.96-.289 4.154-3.796 7.04-7.96 7.04h-15.16c-4.323 0-7.99-3.087-8.298-7.4-.17-2.374-.298-5.266-.298-8.6 0-3.334.128-6.226.298-8.6z" fill="#404362"/></svg>