<svg width="27" height="27" fill="none" xmlns="http://www.w3.org/2000/svg"><rect width="27" height="27" rx="5" fill="#EC5050"/><path d="M19.33 9.303H7.668a.639.639 0 00-.639.639v9.981A3.08 3.08 0 0010.106 23h6.786a3.08 3.08 0 003.077-3.077V9.942a.639.639 0 00-.64-.64zm-7.367 9.849a.785.785 0 01-1.57 0V13.15a.785.785 0 011.57 0v6zm4.642 0a.785.785 0 11-1.57 0V13.15a.785.785 0 011.57 0v6zM18.69 4.994h-2.784v-.241A.754.754 0 0015.153 4h-3.309a.754.754 0 00-.753.753v.241H8.308a1.935 1.935 0 00-1.933 1.933v1.24c0 .221.18.4.401.4h13.445a.4.4 0 00.401-.4v-1.24a1.935 1.935 0 00-1.933-1.933z" fill="#fff"/></svg>