<svg width="447" height="2442" fill="none" xmlns="http://www.w3.org/2000/svg"><g opacity=".6"><path opacity=".08" d="M140.247 563.459l-79.236 96.103-8.165-6.742-1.157-.955-.955 1.158-19.07 23.123-.953 1.157 1.155.954 235.7 194.682 1.158.956.955-1.159 19.09-23.166.953-1.157-1.156-.954-8.955-7.395c3.587-5.289 5.372-10.434 5.723-15.418.43-6.103-1.299-11.81-4.239-17.076-5.836-10.455-16.617-19.458-25.514-26.809h0c-32.842-27.122-39.23-61.874-37.332-90.084 1.901-28.252 12.117-49.81 12.296-50.183l1.025-2.137.507-1.058-.905-.747-88.813-73.296-1.157-.955-.955 1.158zm80.772 76.41c-1.543 3.716-4.105 10.445-6.471 19.242l-19.88 1.914-1.491.143.142 1.492.569 5.989.142 1.495 1.495-.144 16.803-1.618a165.799 165.799 0 00-1.499 8.153l-19.079 1.837-1.492.143.142 1.492.569 5.989.142 1.495 1.495-.144 17.049-1.641a146.9 146.9 0 00-.647 10.288l-17.659 1.7-1.492.144.142 1.491.569 5.989.142 1.495 1.495-.144 16.856-1.623a125.26 125.26 0 001.353 14.143l-18.568 1.788-1.491.144.142 1.491.569 5.989.142 1.495 1.495-.144 19.44-1.871c4.176 17.724 12.966 35.812 29.252 51.985l-13.956 16.919L67.955 665.296l74.526-90.309 78.538 64.882zm51.632 194.449l-38.264-31.596 13.642-16.539c.591.506 1.19 1.01 1.798 1.512 10.708 8.869 19.822 16.554 24.232 24.53 2.171 3.927 3.153 7.85 2.641 11.976-.388 3.135-1.65 6.482-4.049 10.117zm4.498 15.382l-9.575 11.572L43.431 676.139l9.538-11.588L277.15 849.7z" fill="#7D869D" stroke="#7D869D" stroke-width="3"/></g><g opacity=".6"><path d="M355.319 42.546C323.518 63.794 216.503 143.42 234.733 278.32 353.948 231.118 355.319 42.546 355.319 42.546zM237.215 273.469S329.586 70.814 350.258 50.852m-52.487 95.713c.336-.68 30.718-22.963 30.718-22.963m-42.036 45.089l51.53-33.635m-86.197 108.362c.395-2.336 59.401-39.296 59.401-39.296" opacity=".08" stroke="#505666" stroke-width="10" stroke-miterlimit="10" stroke-linecap="round"/></g><g opacity=".6"><path d="M420.081 2161.37c-44.096 13.83-195.242 69.79-219.952 232.4 154.274-14.22 219.952-232.4 219.952-232.4zm-215.425 227.62s175.98-203.59 206.734-219.71m-93.391 93.14c.621-.67 43.423-16.18 43.423-16.18m-64.064 37.99l71.181-21.49m-136.775 96.36c1.252-2.58 82.231-25.38 82.231-25.38" opacity=".08" stroke="#505666" stroke-width="10" stroke-miterlimit="10" stroke-linecap="round"/></g></svg>