<svg width="215" height="110" viewBox="0 0 215 110" fill="none" xmlns="http://www.w3.org/2000/svg">
<path fill-rule="evenodd" clip-rule="evenodd" d="M180.698 110C191.743 110 200.698 101.046 200.698 90V61.2859L214.303 62.1138L200.698 51.7171V20.0003C200.698 8.95461 191.743 0.000305176 180.698 0.000305176H20.0004C8.95467 0.000305176 0.000366211 8.95461 0.000366211 20.0003V90C0.000366211 101.046 8.95467 110 20.0004 110H180.698Z" fill="url(#paint0_linear)"/>
<path fill-rule="evenodd" clip-rule="evenodd" d="M180.698 110C191.743 110 200.698 101.046 200.698 90V61.2859L214.303 62.1138L200.698 51.7171V20.0003C200.698 8.95461 191.743 0.000305176 180.698 0.000305176H20.0004C8.95467 0.000305176 0.000366211 8.95461 0.000366211 20.0003V90C0.000366211 101.046 8.95467 110 20.0004 110H180.698Z" fill="url(#paint1_linear)"/>
<defs>
<linearGradient id="paint0_linear" x1="90.5024" y1="-0.00484804" x2="120.504" y2="103.841" gradientUnits="userSpaceOnUse">
<stop stop-color="#FFB464"/>
<stop offset="1" stop-color="#F97928"/>
</linearGradient>
<linearGradient id="paint1_linear" x1="76" y1="-0.00486492" x2="73.9273" y2="106.398" gradientUnits="userSpaceOnUse">
<stop stop-color="#FEBA6F"/>
<stop offset="1" stop-color="#F98132"/>
</linearGradient>
</defs>
</svg>
