<svg width="505" height="569" viewBox="0 0 505 569" fill="none" xmlns="http://www.w3.org/2000/svg">
<path d="M0 51.1906C0 39.886 7.52982 30.0385 18.5484 27.5112C57.0379 18.6832 150.54 0 252.5 0C354.46 0 447.962 18.6832 486.452 27.5112C497.47 30.0385 505 39.886 505 51.1906V544C505 557.807 493.807 569 480 569H25C11.1929 569 0 557.807 0 544V51.1906Z" fill="#7BAFE4"/>
<path d="M0 51.1906C0 39.886 7.52982 30.0385 18.5484 27.5112C57.0379 18.6832 150.54 0 252.5 0C354.46 0 447.962 18.6832 486.452 27.5112C497.47 30.0385 505 39.886 505 51.1906V544C505 557.807 493.807 569 480 569H25C11.1929 569 0 557.807 0 544V51.1906Z" fill="white"/>
</svg>
