<svg width="321" height="750" viewBox="0 0 321 750" fill="none" xmlns="http://www.w3.org/2000/svg">
<g opacity="0.08">
<path d="M294.44 682.827C285.76 646.228 258.286 572.192 198.144 530.684C138.001 489.177 89.5582 494.298 81.7571 504.445C73.956 514.591 84.9613 583.987 144.992 627.663C210.477 675.299 294.44 682.827 294.44 682.827Z" stroke="#7D869D" stroke-width="10" stroke-miterlimit="10" stroke-linecap="round"/>
<path d="M283.658 674.563C250.203 641.24 41.3931 468.133 14.7682 453.869" stroke="#7D869D" stroke-width="10" stroke-miterlimit="10" stroke-linecap="round"/>
<path d="M270.361 632.949L240.213 635.703L240.307 667.544" stroke="#7D869D" stroke-width="10" stroke-miterlimit="10" stroke-linecap="round"/>
<path d="M258.254 602.01L207.902 606.915L208.874 658.699" stroke="#7D869D" stroke-width="10" stroke-miterlimit="10" stroke-linecap="round"/>
<path d="M232.842 568.823L175.831 581.258L174.028 637.778" stroke="#7D869D" stroke-width="10" stroke-miterlimit="10" stroke-linecap="round"/>
<path d="M205.584 539.261L146.895 553.549L142.128 622.369" stroke="#7D869D" stroke-width="10" stroke-miterlimit="10" stroke-linecap="round"/>
<path d="M173.025 519.565L117.451 530.98L111.834 590.106" stroke="#7D869D" stroke-width="10" stroke-miterlimit="10" stroke-linecap="round"/>
<path d="M122.189 501.616L92.348 511.743L86.797 540.73" stroke="#7D869D" stroke-width="10" stroke-miterlimit="10" stroke-linecap="round"/>
</g>
<g opacity="0.08">
<path d="M47.1174 168.205C64.2336 173.621 101.103 176.725 123.396 150.984C113.009 174.467 121.89 186.974 121.89 186.974C121.89 186.974 138.445 156.474 159.585 146.059C163.831 155.83 159.113 169.413 152.062 174.811C195.361 174.272 212.604 106.281 200.138 85.2193C187.672 64.1574 147.42 46.091 123.031 58.2666C98.6425 70.4421 85.3178 67.1706 85.3178 67.1706C85.3178 67.1706 92.1337 79.7483 114.237 79.8342C86.6028 81.1721 72.0082 95.9117 69.9964 103.827C86.4898 96.4555 103.587 103.639 102.232 104.194C55.3495 123.317 47.1174 168.205 47.1174 168.205Z" stroke="#7D869D" stroke-width="10" stroke-miterlimit="10" stroke-linecap="round"/>
<path d="M112.397 130.698C126.857 124.432 198.175 88.3799 224.422 69.9461" stroke="#7D869D" stroke-width="10" stroke-miterlimit="10" stroke-linecap="round"/>
<path d="M145.083 114.794C140.499 121.84 137.816 131.091 137.58 136.468" stroke="#7D869D" stroke-width="10" stroke-miterlimit="10" stroke-linecap="round"/>
<path d="M147.893 113.269C146.064 113.78 131.216 106.317 123.068 109.692" stroke="#7D869D" stroke-width="10" stroke-miterlimit="10" stroke-linecap="round"/>
<path d="M180.064 121.827C182.516 114.723 183.216 104.384 179.102 96.7949C177.272 93.4195 168.999 86.8779 160.494 85.7203" stroke="#7D869D" stroke-width="10" stroke-miterlimit="10" stroke-linecap="round"/>
</g>
</svg>
