<svg width="37" height="37" viewBox="0 0 37 37" fill="none" xmlns="http://www.w3.org/2000/svg">
<path d="M26.5527 0.276367H10.5527C5.02989 0.276367 0.552734 4.75352 0.552734 10.2764V26.2764C0.552734 31.7992 5.02989 36.2764 10.5527 36.2764H26.5527C32.0756 36.2764 36.5527 31.7992 36.5527 26.2764V10.2764C36.5527 4.75352 32.0756 0.276367 26.5527 0.276367Z" fill="url(#paint0_linear)"/>
<path fill-rule="evenodd" clip-rule="evenodd" d="M15.4689 11.3535H22.1889C23.2073 11.3535 24.1841 11.7581 24.9042 12.4782C25.6243 13.1984 26.0289 14.1751 26.0289 15.1935V21.9135C26.0289 22.932 25.6243 23.9087 24.9042 24.6288C24.1841 25.349 23.2073 25.7535 22.1889 25.7535H15.4689C14.4505 25.7535 13.4738 25.349 12.7536 24.6288C12.0335 23.9087 11.6289 22.932 11.6289 21.9135V15.1935C11.6289 14.1751 12.0335 13.1984 12.7536 12.4782C13.4738 11.7581 14.4505 11.3535 15.4689 11.3535ZM15.4689 13.2735H22.1889C22.6981 13.2735 23.1865 13.4758 23.5465 13.8359C23.9066 14.1959 24.1089 14.6843 24.1089 15.1935V21.9135C24.1089 22.4227 23.9066 22.9111 23.5465 23.2712C23.1865 23.6312 22.6981 23.8335 22.1889 23.8335H15.4689C14.9597 23.8335 14.4714 23.6312 14.1113 23.2712C13.7512 22.9111 13.5489 22.4227 13.5489 21.9135V15.1935C13.5489 14.6843 13.7512 14.1959 14.1113 13.8359C14.4714 13.4758 14.9597 13.2735 15.4689 13.2735ZM18.8289 15.1935C19.4935 15.1935 20.1431 15.3906 20.6956 15.7598C21.2482 16.129 21.6788 16.6537 21.9331 17.2677C22.1875 17.8817 22.254 18.5573 22.1243 19.209C21.9947 19.8608 21.6747 20.4595 21.2048 20.9294C20.7349 21.3993 20.1362 21.7193 19.4844 21.8489C18.8326 21.9786 18.157 21.9121 17.5431 21.6578C16.9291 21.4034 16.4044 20.9728 16.0352 20.4202C15.666 19.8677 15.4689 19.2181 15.4689 18.5535C15.4689 17.6624 15.8229 16.8078 16.453 16.1776C17.0832 15.5475 17.9378 15.1935 18.8289 15.1935ZM18.8289 17.1135C19.1137 17.1135 19.3921 17.198 19.6289 17.3562C19.8658 17.5144 20.0503 17.7393 20.1593 18.0024C20.2683 18.2656 20.2968 18.5551 20.2413 18.8344C20.1857 19.1138 20.0485 19.3704 19.8471 19.5718C19.6458 19.7731 19.3892 19.9103 19.1099 19.9659C18.8305 20.0214 18.541 19.9929 18.2778 19.8839C18.0147 19.7749 17.7898 19.5903 17.6316 19.3535C17.4734 19.1167 17.3889 18.8383 17.3889 18.5535C17.3889 18.1716 17.5406 17.8053 17.8107 17.5353C18.0807 17.2652 18.447 17.1135 18.8289 17.1135Z" fill="white"/>
<defs>
<linearGradient id="paint0_linear" x1="27.5544" y1="0.276367" x2="9.55106" y2="36.2764" gradientUnits="userSpaceOnUse">
<stop stop-color="#9E42B4"/>
<stop offset="0.067" stop-color="#9E42B4"/>
<stop offset="0.473" stop-color="#E5566F"/>
<stop offset="1" stop-color="#FDC76D"/>
</linearGradient>
</defs>
</svg>
