<svg width="468" height="633" viewBox="0 0 468 633" fill="none" xmlns="http://www.w3.org/2000/svg">
<path opacity="0.7" d="M331 255C346.817 276.756 389.467 318.573 467 277.886" stroke="#FEA04E" stroke-width="2"/>
<path d="M232.5 113C236 177.5 153 258.5 28 243.5" stroke="#FEA04E" stroke-width="2"/>
<path d="M281 618C357 649.5 415.1 620.2 441.5 571" stroke="#FEA04E" stroke-width="2"/>
<path d="M354.456 349.31C405.589 364.191 436.53 418.087 434.348 465.156" stroke="#FEA04E" stroke-width="2"/>
<path d="M193 457.5C195.5 529 133.1 585.1 45.5 579.5" stroke="#FEA04E" stroke-width="2"/>
<path d="M157.5 314C62 300 12.5 383 12.5 383" stroke="#FEA04E" stroke-width="2"/>
<circle cx="184" cy="90" r="12" fill="#7BAFE4"/>
<circle cx="184" cy="90" r="12" fill="url(#paint0_linear)"/>
<circle cx="232.5" cy="108" r="11" fill="#7BAFE4"/>
<circle cx="232.5" cy="108" r="11" fill="url(#paint1_linear)"/>
<path d="M183 86.0003C171.5 19.5001 72 -28 1 23.0003" stroke="#FEA04E" stroke-width="2" stroke-linejoin="round"/>
<circle cx="240" cy="232" r="12" fill="#7BAFE4"/>
<circle cx="240" cy="232" r="12" fill="url(#paint2_linear)"/>
<circle cx="356.5" cy="348.5" r="11.5" fill="#7BAFE4"/>
<circle cx="356.5" cy="348.5" r="11.5" fill="url(#paint3_linear)"/>
<circle cx="277.5" cy="615.5" r="11.5" fill="#7BAFE4"/>
<circle cx="277.5" cy="615.5" r="11.5" fill="url(#paint4_linear)"/>
<circle cx="162" cy="314" r="11" fill="#7BAFE4"/>
<circle cx="162" cy="314" r="11" fill="url(#paint5_linear)"/>
<circle cx="193" cy="451" r="11" fill="#7BAFE4"/>
<circle cx="193" cy="451" r="11" fill="url(#paint6_linear)"/>
<path d="M240 226C246.5 131 357 113 429 121" stroke="#FEA04E" stroke-width="2"/>
<circle cx="162" cy="314" r="4" fill="white"/>
<circle cx="193" cy="451" r="4" fill="white"/>
<circle cx="232.5" cy="108" r="4" fill="white"/>
<circle cx="240" cy="232" r="4" fill="white"/>
<circle cx="356.5" cy="348.5" r="4.5" fill="white"/>
<circle cx="277.5" cy="615.5" r="4.5" fill="white"/>
<circle cx="184" cy="90" r="4" fill="white"/>
<defs>
<linearGradient id="paint0_linear" x1="184" y1="78" x2="184" y2="102" gradientUnits="userSpaceOnUse">
<stop stop-color="#FFB05E"/>
<stop offset="1" stop-color="#F97828"/>
</linearGradient>
<linearGradient id="paint1_linear" x1="232.5" y1="97" x2="232.5" y2="119" gradientUnits="userSpaceOnUse">
<stop stop-color="#FFB05E"/>
<stop offset="1" stop-color="#F97828"/>
</linearGradient>
<linearGradient id="paint2_linear" x1="240" y1="220" x2="240" y2="244" gradientUnits="userSpaceOnUse">
<stop stop-color="#FFB05E"/>
<stop offset="1" stop-color="#F97828"/>
</linearGradient>
<linearGradient id="paint3_linear" x1="356.5" y1="337" x2="356.5" y2="360" gradientUnits="userSpaceOnUse">
<stop stop-color="#FFB05E"/>
<stop offset="1" stop-color="#F97828"/>
</linearGradient>
<linearGradient id="paint4_linear" x1="277.5" y1="604" x2="277.5" y2="627" gradientUnits="userSpaceOnUse">
<stop stop-color="#FFB05E"/>
<stop offset="1" stop-color="#F97828"/>
</linearGradient>
<linearGradient id="paint5_linear" x1="162" y1="303" x2="162" y2="325" gradientUnits="userSpaceOnUse">
<stop stop-color="#FFB05E"/>
<stop offset="1" stop-color="#F97828"/>
</linearGradient>
<linearGradient id="paint6_linear" x1="193" y1="440" x2="193" y2="462" gradientUnits="userSpaceOnUse">
<stop stop-color="#FFB05E"/>
<stop offset="1" stop-color="#F97828"/>
</linearGradient>
</defs>
</svg>
