<svg width="22" height="22" fill="none" xmlns="http://www.w3.org/2000/svg"><g filter="url(#filter0_d)"><path d="M17.722 7.37a.921.921 0 00-.677-.279H12.91V2.954a.921.921 0 00-.278-.676.92.92 0 00-.677-.278h-1.909a.92.92 0 00-.676.278.92.92 0 00-.278.676v4.137H4.954a.92.92 0 00-.676.278.92.92 0 00-.278.676v1.91c0 .265.093.49.278.676a.92.92 0 00.676.278h4.137v4.137c0 .265.093.49.278.676a.92.92 0 00.676.278h1.91a.92.92 0 00.676-.278.92.92 0 00.278-.676v-4.137h4.136a.92.92 0 00.677-.278.92.92 0 00.278-.676v-1.91a.92.92 0 00-.278-.676z" fill="#fff"/></g><defs><filter id="filter0_d" x="0" y="0" width="22" height="22" filterUnits="userSpaceOnUse" color-interpolation-filters="sRGB"><feFlood flood-opacity="0" result="BackgroundImageFix"/><feColorMatrix in="SourceAlpha" values="0 0 0 0 0 0 0 0 0 0 0 0 0 0 0 0 0 0 127 0"/><feOffset dy="2"/><feGaussianBlur stdDeviation="2"/><feColorMatrix values="0 0 0 0 0 0 0 0 0 0 0 0 0 0 0 0 0 0 0.25 0"/><feBlend in2="BackgroundImageFix" result="effect1_dropShadow"/><feBlend in="SourceGraphic" in2="effect1_dropShadow" result="shape"/></filter></defs></svg>