<svg width="458" height="870" fill="none" xmlns="http://www.w3.org/2000/svg"><g opacity=".6"><path opacity=".08" d="M144.147 21.24l-81.892 99.323-8.473-6.996-1.157-.956-.955 1.158-19.701 23.89-.954 1.156 1.156.954 243.503 201.128 1.158.956.955-1.159 19.722-23.934.953-1.156-1.156-.954-9.287-7.668c3.72-5.472 5.568-10.791 5.931-15.943.443-6.292-1.341-12.178-4.374-17.613-6.023-10.792-17.154-20.087-26.347-27.683h0c-33.945-28.033-40.547-63.953-38.586-93.108 1.965-29.196 12.522-51.475 12.708-51.863l1.058-2.207.508-1.058-.905-.748-91.753-75.721-1.158-.956-.954 1.158zm83.467 78.893c-1.594 3.835-4.252 10.812-6.706 19.94l-20.572 1.981-1.491.144.141 1.491.588 6.187.143 1.496 1.495-.144 17.426-1.678a170.998 170.998 0 00-1.568 8.524l-19.749 1.901-1.492.144.142 1.492.588 6.187.142 1.495 1.495-.144 17.673-1.702c-.341 3.476-.576 7.06-.675 10.729l-18.288 1.761-1.491.144.142 1.491.588 6.188.142 1.495 1.495-.144 17.466-1.682c.188 4.813.637 9.733 1.408 14.71l-19.236 1.852-1.491.144.142 1.491.588 6.188.142 1.495 1.495-.144 20.126-1.938c4.312 18.329 13.399 37.035 30.25 53.756l-14.479 17.553-164.84-136.112 77.057-93.376 81.204 67.085zm53.293 200.976L241.295 268.4l14.158-17.164c.622.534 1.254 1.065 1.894 1.594 11.06 9.161 20.486 17.107 25.047 25.357 2.246 4.064 3.264 8.127 2.735 12.403-.405 3.261-1.721 6.741-4.222 10.519zm4.706 15.81l-9.956 12.032-231.64-191.325 9.917-12.048 231.679 191.341z" fill="#7D869D" stroke="#7D869D" stroke-width="3"/></g><g opacity=".6"><path d="M409.437 667.45c-22.06 15.126-41.586 32.452-72.679 44.81-31.094 12.359-61.899 43.381-57.315 104.582 63.495-5.77 84.024-52.737 88.61-60.198 4.586-7.462 41.384-89.194 41.384-89.194zm-.587.404c-18.619 20.665-152.552 173.392-162.247 190.379" opacity=".08" stroke="#505666" stroke-width="10" stroke-miterlimit="10" stroke-linecap="round"/></g></svg>