<svg width="616" height="1449" viewBox="0 0 616 1449" fill="none" xmlns="http://www.w3.org/2000/svg">
<path opacity="0.08" d="M312.455 764.463L312.433 764.471C290.674 772.397 268.361 778.708 245.675 783.352C226.223 787.887 206.547 792.475 189.345 798.654C172.119 804.842 157.573 812.559 148.257 823.234L312.455 764.463ZM312.455 764.463L312.477 764.454C331.057 757.006 347.008 747.265 357.315 733.183C367.662 719.048 372.192 700.718 368.263 676.396C363.587 647.373 350.688 627.256 329.956 617.595C304.705 605.611 272.523 610.976 246.535 619.359C239.487 621.632 232.863 624.137 226.917 626.603L226.617 625.66C208.536 568.873 180.254 534.147 142.831 522.881C103.716 511.096 67.032 529.208 51.3581 541.387L51.3523 541.391L51.3466 541.396C44.8232 546.567 33.9776 556.175 24.6445 568.962C15.3164 581.742 7.42221 597.803 6.98715 615.852L6.9871 615.854C6.46407 639.172 18.2477 661.337 41.6628 681.731L44.3539 684.084L44.3565 684.086C75.6121 711.287 94.3106 727.575 107.743 746.056C121.135 764.483 129.335 785.161 139.339 821.234L141.169 827.834L141.914 830.524L143.746 828.418L148.256 823.236L312.455 764.463ZM221.939 628.723C208.598 634.554 199.613 639.695 198.523 640.326L197.22 641.081L197.98 642.381L201.698 648.748L202.437 650.014L203.72 649.304C203.729 649.299 203.753 649.286 203.789 649.265C205.112 648.518 223.897 637.905 248.024 629.91C272.911 621.663 303.008 616.366 325.522 626.986C342.777 635.153 353.813 652.178 358.017 678.049C360.717 694.719 358.933 707.971 353.844 718.726C348.753 729.487 340.288 737.89 329.383 744.744C307.489 758.503 276.104 765.823 243.433 773.433L243.062 773.52C223.638 778.042 204.701 782.451 187.922 788.253C171.942 793.78 157.798 800.609 146.983 810.109C137.339 776.929 128.5 756.582 114.708 738.172C100.651 719.411 81.4922 702.726 51.347 676.476L51.2716 676.41L51.2693 676.408L48.5793 674.056L221.939 628.723ZM221.939 628.723L218.609 629.782L217.184 630.235L216.726 628.812C199.386 574.97 173.424 542.924 139.891 532.933L139.888 532.932C104.939 522.428 70.9222 539.289 57.8436 549.631C51.8669 554.391 41.9147 563.162 33.3744 574.72C24.8267 586.287 17.7775 600.531 17.412 616.262C16.9856 636.091 27.3863 655.496 48.5784 674.055L221.939 628.723Z" fill="#7D869D" stroke="#7D869D" stroke-width="3"/>
<g opacity="0.08">
<path d="M558.915 32.1943C518.19 37.2652 434.633 58.2767 382.477 118.58C330.322 178.883 330.128 232.031 340.207 241.696C350.286 251.361 426.857 247.66 481.35 187.735C540.786 122.365 558.915 32.1943 558.915 32.1943Z" stroke="#7D869D" stroke-width="10" stroke-miterlimit="10" stroke-linecap="round"/>
<path d="M548.672 42.9067C508.561 75.2365 296.034 281.164 277.403 308.347" stroke="#7D869D" stroke-width="10" stroke-miterlimit="10" stroke-linecap="round"/>
<path d="M501.962 52.391L501.371 85.4155L535.917 89.0921" stroke="#7D869D" stroke-width="10" stroke-miterlimit="10" stroke-linecap="round"/>
<path d="M466.968 61.8509L466.312 117.043L522.591 122.134" stroke="#7D869D" stroke-width="10" stroke-miterlimit="10" stroke-linecap="round"/>
<path d="M427.959 85.4743L434.68 148.782L495.766 157.445" stroke="#7D869D" stroke-width="10" stroke-miterlimit="10" stroke-linecap="round"/>
<path d="M392.663 111.528L401.195 176.875L475.269 190.212" stroke="#7D869D" stroke-width="10" stroke-miterlimit="10" stroke-linecap="round"/>
<path d="M367.438 144.507L373.223 206.136L436.682 219.245" stroke="#7D869D" stroke-width="10" stroke-miterlimit="10" stroke-linecap="round"/>
<path d="M341.937 197.512L349.379 231.078L380.16 240.539" stroke="#7D869D" stroke-width="10" stroke-miterlimit="10" stroke-linecap="round"/>
</g>
<g opacity="0.08">
<path d="M440.719 1282.05C434.027 1250.64 406.302 1190.53 346.632 1178.54C392.285 1174 403.878 1149.15 403.878 1149.15C403.878 1149.15 341.877 1150.29 307.036 1126.58C318.469 1111.35 343.737 1106.71 358.348 1112.93C319.289 1046.02 198.435 1079.15 176.715 1117.13C154.996 1155.1 162.458 1233.67 202.903 1260.88C243.348 1288.09 250.027 1311.71 250.027 1311.71C250.027 1311.71 263.552 1290.01 244.174 1255.54C270.646 1297.36 306.429 1307.08 320.504 1303.22C294.491 1284.06 290.56 1251.12 292.619 1252.74C363.713 1308.83 440.719 1282.05 440.719 1282.05Z" stroke="#505666" stroke-width="10" stroke-miterlimit="10" stroke-linecap="round"/>
<path d="M324.831 1213.54C302.334 1196.57 183.381 1117.4 131.579 1092.82" stroke="#505666" stroke-width="10" stroke-miterlimit="10" stroke-linecap="round"/>
<path d="M271.269 1176.71C286.261 1177.63 303.002 1173.64 311.564 1169.27" stroke="#505666" stroke-width="10" stroke-miterlimit="10" stroke-linecap="round"/>
<path d="M266.418 1173.69C268.826 1176.08 270.338 1205.77 282.775 1215.47" stroke="#505666" stroke-width="10" stroke-miterlimit="10" stroke-linecap="round"/>
<path d="M251.332 1116.08C238.129 1118.53 221.446 1126.56 213.285 1139.65C209.656 1145.48 206.794 1164.12 212.504 1178.38" stroke="#505666" stroke-width="10" stroke-miterlimit="10" stroke-linecap="round"/>
</g>
</svg>
